<?xml version="1.0" encoding="utf-8" standalone="no"?>
<!DOCTYPE svg PUBLIC "-//W3C//DTD SVG 1.1//EN"
  "http://www.w3.org/Graphics/SVG/1.1/DTD/svg11.dtd">
<!-- Created with matplotlib (https://matplotlib.org/) -->
<svg height="288pt" version="1.1" viewBox="0 0 432 288" width="432pt" xmlns="http://www.w3.org/2000/svg" xmlns:xlink="http://www.w3.org/1999/xlink">
 <defs>
  <style type="text/css">
*{stroke-linecap:butt;stroke-linejoin:round;}
  </style>
 </defs>
 <g id="figure_1">
  <g id="patch_1">
   <path d="M 0 288 
L 432 288 
L 432 0 
L 0 0 
z
" style="fill:#ffffff;"/>
  </g>
  <g id="axes_1">
   <g id="patch_2">
    <path d="M 54 252 
L 388.8 252 
L 388.8 34.56 
L 54 34.56 
z
" style="fill:#ffffff;"/>
   </g>
   <g id="matplotlib.axis_1">
    <g id="xtick_1">
     <g id="line2d_1">
      <path clip-path="url(#p5820990523)" d="M 53.989815 252 
L 53.989815 34.56 
" style="fill:none;stroke:#b0b0b0;stroke-linecap:square;stroke-width:0.8;"/>
     </g>
     <g id="line2d_2">
      <defs>
       <path d="M 0 0 
L 0 3.5 
" id="m14bd4ea5c0" style="stroke:#000000;stroke-width:0.8;"/>
      </defs>
      <g>
       <use style="stroke:#000000;stroke-width:0.8;" x="53.989815" xlink:href="#m14bd4ea5c0" y="252"/>
      </g>
     </g>
     <g id="text_1">
      <!-- 0 -->
      <defs>
       <path d="M 31.78125 66.40625 
Q 24.171875 66.40625 20.328125 58.90625 
Q 16.5 51.421875 16.5 36.375 
Q 16.5 21.390625 20.328125 13.890625 
Q 24.171875 6.390625 31.78125 6.390625 
Q 39.453125 6.390625 43.28125 13.890625 
Q 47.125 21.390625 47.125 36.375 
Q 47.125 51.421875 43.28125 58.90625 
Q 39.453125 66.40625 31.78125 66.40625 
z
M 31.78125 74.21875 
Q 44.046875 74.21875 50.515625 64.515625 
Q 56.984375 54.828125 56.984375 36.375 
Q 56.984375 17.96875 50.515625 8.265625 
Q 44.046875 -1.421875 31.78125 -1.421875 
Q 19.53125 -1.421875 13.0625 8.265625 
Q 6.59375 17.96875 6.59375 36.375 
Q 6.59375 54.828125 13.0625 64.515625 
Q 19.53125 74.21875 31.78125 74.21875 
z
" id="DejaVuSans-48"/>
      </defs>
      <g transform="translate(50.808565 266.598437)scale(0.1 -0.1)">
       <use xlink:href="#DejaVuSans-48"/>
      </g>
     </g>
    </g>
    <g id="xtick_2">
     <g id="line2d_3">
      <path clip-path="url(#p5820990523)" d="M 104.916163 252 
L 104.916163 34.56 
" style="fill:none;stroke:#b0b0b0;stroke-linecap:square;stroke-width:0.8;"/>
     </g>
     <g id="line2d_4">
      <g>
       <use style="stroke:#000000;stroke-width:0.8;" x="104.916163" xlink:href="#m14bd4ea5c0" y="252"/>
      </g>
     </g>
     <g id="text_2">
      <!-- 5000 -->
      <defs>
       <path d="M 10.796875 72.90625 
L 49.515625 72.90625 
L 49.515625 64.59375 
L 19.828125 64.59375 
L 19.828125 46.734375 
Q 21.96875 47.46875 24.109375 47.828125 
Q 26.265625 48.1875 28.421875 48.1875 
Q 40.625 48.1875 47.75 41.5 
Q 54.890625 34.8125 54.890625 23.390625 
Q 54.890625 11.625 47.5625 5.09375 
Q 40.234375 -1.421875 26.90625 -1.421875 
Q 22.3125 -1.421875 17.546875 -0.640625 
Q 12.796875 0.140625 7.71875 1.703125 
L 7.71875 11.625 
Q 12.109375 9.234375 16.796875 8.0625 
Q 21.484375 6.890625 26.703125 6.890625 
Q 35.15625 6.890625 40.078125 11.328125 
Q 45.015625 15.765625 45.015625 23.390625 
Q 45.015625 31 40.078125 35.4375 
Q 35.15625 39.890625 26.703125 39.890625 
Q 22.75 39.890625 18.8125 39.015625 
Q 14.890625 38.140625 10.796875 36.28125 
z
" id="DejaVuSans-53"/>
      </defs>
      <g transform="translate(92.191163 266.598437)scale(0.1 -0.1)">
       <use xlink:href="#DejaVuSans-53"/>
       <use x="63.623047" xlink:href="#DejaVuSans-48"/>
       <use x="127.246094" xlink:href="#DejaVuSans-48"/>
       <use x="190.869141" xlink:href="#DejaVuSans-48"/>
      </g>
     </g>
    </g>
    <g id="xtick_3">
     <g id="line2d_5">
      <path clip-path="url(#p5820990523)" d="M 155.842512 252 
L 155.842512 34.56 
" style="fill:none;stroke:#b0b0b0;stroke-linecap:square;stroke-width:0.8;"/>
     </g>
     <g id="line2d_6">
      <g>
       <use style="stroke:#000000;stroke-width:0.8;" x="155.842512" xlink:href="#m14bd4ea5c0" y="252"/>
      </g>
     </g>
     <g id="text_3">
      <!-- 10000 -->
      <defs>
       <path d="M 12.40625 8.296875 
L 28.515625 8.296875 
L 28.515625 63.921875 
L 10.984375 60.40625 
L 10.984375 69.390625 
L 28.421875 72.90625 
L 38.28125 72.90625 
L 38.28125 8.296875 
L 54.390625 8.296875 
L 54.390625 0 
L 12.40625 0 
z
" id="DejaVuSans-49"/>
      </defs>
      <g transform="translate(139.936262 266.598437)scale(0.1 -0.1)">
       <use xlink:href="#DejaVuSans-49"/>
       <use x="63.623047" xlink:href="#DejaVuSans-48"/>
       <use x="127.246094" xlink:href="#DejaVuSans-48"/>
       <use x="190.869141" xlink:href="#DejaVuSans-48"/>
       <use x="254.492188" xlink:href="#DejaVuSans-48"/>
      </g>
     </g>
    </g>
    <g id="xtick_4">
     <g id="line2d_7">
      <path clip-path="url(#p5820990523)" d="M 206.76886 252 
L 206.76886 34.56 
" style="fill:none;stroke:#b0b0b0;stroke-linecap:square;stroke-width:0.8;"/>
     </g>
     <g id="line2d_8">
      <g>
       <use style="stroke:#000000;stroke-width:0.8;" x="206.76886" xlink:href="#m14bd4ea5c0" y="252"/>
      </g>
     </g>
     <g id="text_4">
      <!-- 15000 -->
      <g transform="translate(190.86261 266.598437)scale(0.1 -0.1)">
       <use xlink:href="#DejaVuSans-49"/>
       <use x="63.623047" xlink:href="#DejaVuSans-53"/>
       <use x="127.246094" xlink:href="#DejaVuSans-48"/>
       <use x="190.869141" xlink:href="#DejaVuSans-48"/>
       <use x="254.492188" xlink:href="#DejaVuSans-48"/>
      </g>
     </g>
    </g>
    <g id="xtick_5">
     <g id="line2d_9">
      <path clip-path="url(#p5820990523)" d="M 257.695209 252 
L 257.695209 34.56 
" style="fill:none;stroke:#b0b0b0;stroke-linecap:square;stroke-width:0.8;"/>
     </g>
     <g id="line2d_10">
      <g>
       <use style="stroke:#000000;stroke-width:0.8;" x="257.695209" xlink:href="#m14bd4ea5c0" y="252"/>
      </g>
     </g>
     <g id="text_5">
      <!-- 20000 -->
      <defs>
       <path d="M 19.1875 8.296875 
L 53.609375 8.296875 
L 53.609375 0 
L 7.328125 0 
L 7.328125 8.296875 
Q 12.9375 14.109375 22.625 23.890625 
Q 32.328125 33.6875 34.8125 36.53125 
Q 39.546875 41.84375 41.421875 45.53125 
Q 43.3125 49.21875 43.3125 52.78125 
Q 43.3125 58.59375 39.234375 62.25 
Q 35.15625 65.921875 28.609375 65.921875 
Q 23.96875 65.921875 18.8125 64.3125 
Q 13.671875 62.703125 7.8125 59.421875 
L 7.8125 69.390625 
Q 13.765625 71.78125 18.9375 73 
Q 24.125 74.21875 28.421875 74.21875 
Q 39.75 74.21875 46.484375 68.546875 
Q 53.21875 62.890625 53.21875 53.421875 
Q 53.21875 48.921875 51.53125 44.890625 
Q 49.859375 40.875 45.40625 35.40625 
Q 44.1875 33.984375 37.640625 27.21875 
Q 31.109375 20.453125 19.1875 8.296875 
z
" id="DejaVuSans-50"/>
      </defs>
      <g transform="translate(241.788959 266.598437)scale(0.1 -0.1)">
       <use xlink:href="#DejaVuSans-50"/>
       <use x="63.623047" xlink:href="#DejaVuSans-48"/>
       <use x="127.246094" xlink:href="#DejaVuSans-48"/>
       <use x="190.869141" xlink:href="#DejaVuSans-48"/>
       <use x="254.492188" xlink:href="#DejaVuSans-48"/>
      </g>
     </g>
    </g>
    <g id="xtick_6">
     <g id="line2d_11">
      <path clip-path="url(#p5820990523)" d="M 308.621557 252 
L 308.621557 34.56 
" style="fill:none;stroke:#b0b0b0;stroke-linecap:square;stroke-width:0.8;"/>
     </g>
     <g id="line2d_12">
      <g>
       <use style="stroke:#000000;stroke-width:0.8;" x="308.621557" xlink:href="#m14bd4ea5c0" y="252"/>
      </g>
     </g>
     <g id="text_6">
      <!-- 25000 -->
      <g transform="translate(292.715307 266.598437)scale(0.1 -0.1)">
       <use xlink:href="#DejaVuSans-50"/>
       <use x="63.623047" xlink:href="#DejaVuSans-53"/>
       <use x="127.246094" xlink:href="#DejaVuSans-48"/>
       <use x="190.869141" xlink:href="#DejaVuSans-48"/>
       <use x="254.492188" xlink:href="#DejaVuSans-48"/>
      </g>
     </g>
    </g>
    <g id="xtick_7">
     <g id="line2d_13">
      <path clip-path="url(#p5820990523)" d="M 359.547905 252 
L 359.547905 34.56 
" style="fill:none;stroke:#b0b0b0;stroke-linecap:square;stroke-width:0.8;"/>
     </g>
     <g id="line2d_14">
      <g>
       <use style="stroke:#000000;stroke-width:0.8;" x="359.547905" xlink:href="#m14bd4ea5c0" y="252"/>
      </g>
     </g>
     <g id="text_7">
      <!-- 30000 -->
      <defs>
       <path d="M 40.578125 39.3125 
Q 47.65625 37.796875 51.625 33 
Q 55.609375 28.21875 55.609375 21.1875 
Q 55.609375 10.40625 48.1875 4.484375 
Q 40.765625 -1.421875 27.09375 -1.421875 
Q 22.515625 -1.421875 17.65625 -0.515625 
Q 12.796875 0.390625 7.625 2.203125 
L 7.625 11.71875 
Q 11.71875 9.328125 16.59375 8.109375 
Q 21.484375 6.890625 26.8125 6.890625 
Q 36.078125 6.890625 40.9375 10.546875 
Q 45.796875 14.203125 45.796875 21.1875 
Q 45.796875 27.640625 41.28125 31.265625 
Q 36.765625 34.90625 28.71875 34.90625 
L 20.21875 34.90625 
L 20.21875 43.015625 
L 29.109375 43.015625 
Q 36.375 43.015625 40.234375 45.921875 
Q 44.09375 48.828125 44.09375 54.296875 
Q 44.09375 59.90625 40.109375 62.90625 
Q 36.140625 65.921875 28.71875 65.921875 
Q 24.65625 65.921875 20.015625 65.03125 
Q 15.375 64.15625 9.8125 62.3125 
L 9.8125 71.09375 
Q 15.4375 72.65625 20.34375 73.4375 
Q 25.25 74.21875 29.59375 74.21875 
Q 40.828125 74.21875 47.359375 69.109375 
Q 53.90625 64.015625 53.90625 55.328125 
Q 53.90625 49.265625 50.4375 45.09375 
Q 46.96875 40.921875 40.578125 39.3125 
z
" id="DejaVuSans-51"/>
      </defs>
      <g transform="translate(343.641655 266.598437)scale(0.1 -0.1)">
       <use xlink:href="#DejaVuSans-51"/>
       <use x="63.623047" xlink:href="#DejaVuSans-48"/>
       <use x="127.246094" xlink:href="#DejaVuSans-48"/>
       <use x="190.869141" xlink:href="#DejaVuSans-48"/>
       <use x="254.492188" xlink:href="#DejaVuSans-48"/>
      </g>
     </g>
    </g>
    <g id="text_8">
     <!-- Lag -->
     <defs>
      <path d="M 9.8125 72.90625 
L 19.671875 72.90625 
L 19.671875 8.296875 
L 55.171875 8.296875 
L 55.171875 0 
L 9.8125 0 
z
" id="DejaVuSans-76"/>
      <path d="M 34.28125 27.484375 
Q 23.390625 27.484375 19.1875 25 
Q 14.984375 22.515625 14.984375 16.5 
Q 14.984375 11.71875 18.140625 8.90625 
Q 21.296875 6.109375 26.703125 6.109375 
Q 34.1875 6.109375 38.703125 11.40625 
Q 43.21875 16.703125 43.21875 25.484375 
L 43.21875 27.484375 
z
M 52.203125 31.203125 
L 52.203125 0 
L 43.21875 0 
L 43.21875 8.296875 
Q 40.140625 3.328125 35.546875 0.953125 
Q 30.953125 -1.421875 24.3125 -1.421875 
Q 15.921875 -1.421875 10.953125 3.296875 
Q 6 8.015625 6 15.921875 
Q 6 25.140625 12.171875 29.828125 
Q 18.359375 34.515625 30.609375 34.515625 
L 43.21875 34.515625 
L 43.21875 35.40625 
Q 43.21875 41.609375 39.140625 45 
Q 35.0625 48.390625 27.6875 48.390625 
Q 23 48.390625 18.546875 47.265625 
Q 14.109375 46.140625 10.015625 43.890625 
L 10.015625 52.203125 
Q 14.9375 54.109375 19.578125 55.046875 
Q 24.21875 56 28.609375 56 
Q 40.484375 56 46.34375 49.84375 
Q 52.203125 43.703125 52.203125 31.203125 
z
" id="DejaVuSans-97"/>
      <path d="M 45.40625 27.984375 
Q 45.40625 37.75 41.375 43.109375 
Q 37.359375 48.484375 30.078125 48.484375 
Q 22.859375 48.484375 18.828125 43.109375 
Q 14.796875 37.75 14.796875 27.984375 
Q 14.796875 18.265625 18.828125 12.890625 
Q 22.859375 7.515625 30.078125 7.515625 
Q 37.359375 7.515625 41.375 12.890625 
Q 45.40625 18.265625 45.40625 27.984375 
z
M 54.390625 6.78125 
Q 54.390625 -7.171875 48.1875 -13.984375 
Q 42 -20.796875 29.203125 -20.796875 
Q 24.46875 -20.796875 20.265625 -20.09375 
Q 16.0625 -19.390625 12.109375 -17.921875 
L 12.109375 -9.1875 
Q 16.0625 -11.328125 19.921875 -12.34375 
Q 23.78125 -13.375 27.78125 -13.375 
Q 36.625 -13.375 41.015625 -8.765625 
Q 45.40625 -4.15625 45.40625 5.171875 
L 45.40625 9.625 
Q 42.625 4.78125 38.28125 2.390625 
Q 33.9375 0 27.875 0 
Q 17.828125 0 11.671875 7.65625 
Q 5.515625 15.328125 5.515625 27.984375 
Q 5.515625 40.671875 11.671875 48.328125 
Q 17.828125 56 27.875 56 
Q 33.9375 56 38.28125 53.609375 
Q 42.625 51.21875 45.40625 46.390625 
L 45.40625 54.6875 
L 54.390625 54.6875 
z
" id="DejaVuSans-103"/>
     </defs>
     <g transform="translate(212.375781 280.276563)scale(0.1 -0.1)">
      <use xlink:href="#DejaVuSans-76"/>
      <use x="55.712891" xlink:href="#DejaVuSans-97"/>
      <use x="116.992188" xlink:href="#DejaVuSans-103"/>
     </g>
    </g>
   </g>
   <g id="matplotlib.axis_2">
    <g id="ytick_1">
     <g id="line2d_15">
      <path clip-path="url(#p5820990523)" d="M 54 252 
L 388.8 252 
" style="fill:none;stroke:#b0b0b0;stroke-linecap:square;stroke-width:0.8;"/>
     </g>
     <g id="line2d_16">
      <defs>
       <path d="M 0 0 
L -3.5 0 
" id="mcaff1a49f2" style="stroke:#000000;stroke-width:0.8;"/>
      </defs>
      <g>
       <use style="stroke:#000000;stroke-width:0.8;" x="54" xlink:href="#mcaff1a49f2" y="252"/>
      </g>
     </g>
     <g id="text_9">
      <!-- −1.00 -->
      <defs>
       <path d="M 10.59375 35.5 
L 73.1875 35.5 
L 73.1875 27.203125 
L 10.59375 27.203125 
z
" id="DejaVuSans-8722"/>
       <path d="M 10.6875 12.40625 
L 21 12.40625 
L 21 0 
L 10.6875 0 
z
" id="DejaVuSans-46"/>
      </defs>
      <g transform="translate(16.354687 255.799219)scale(0.1 -0.1)">
       <use xlink:href="#DejaVuSans-8722"/>
       <use x="83.789062" xlink:href="#DejaVuSans-49"/>
       <use x="147.412109" xlink:href="#DejaVuSans-46"/>
       <use x="179.199219" xlink:href="#DejaVuSans-48"/>
       <use x="242.822266" xlink:href="#DejaVuSans-48"/>
      </g>
     </g>
    </g>
    <g id="ytick_2">
     <g id="line2d_17">
      <path clip-path="url(#p5820990523)" d="M 54 224.82 
L 388.8 224.82 
" style="fill:none;stroke:#b0b0b0;stroke-linecap:square;stroke-width:0.8;"/>
     </g>
     <g id="line2d_18">
      <g>
       <use style="stroke:#000000;stroke-width:0.8;" x="54" xlink:href="#mcaff1a49f2" y="224.82"/>
      </g>
     </g>
     <g id="text_10">
      <!-- −0.75 -->
      <defs>
       <path d="M 8.203125 72.90625 
L 55.078125 72.90625 
L 55.078125 68.703125 
L 28.609375 0 
L 18.3125 0 
L 43.21875 64.59375 
L 8.203125 64.59375 
z
" id="DejaVuSans-55"/>
      </defs>
      <g transform="translate(16.354687 228.619219)scale(0.1 -0.1)">
       <use xlink:href="#DejaVuSans-8722"/>
       <use x="83.789062" xlink:href="#DejaVuSans-48"/>
       <use x="147.412109" xlink:href="#DejaVuSans-46"/>
       <use x="179.199219" xlink:href="#DejaVuSans-55"/>
       <use x="242.822266" xlink:href="#DejaVuSans-53"/>
      </g>
     </g>
    </g>
    <g id="ytick_3">
     <g id="line2d_19">
      <path clip-path="url(#p5820990523)" d="M 54 197.64 
L 388.8 197.64 
" style="fill:none;stroke:#b0b0b0;stroke-linecap:square;stroke-width:0.8;"/>
     </g>
     <g id="line2d_20">
      <g>
       <use style="stroke:#000000;stroke-width:0.8;" x="54" xlink:href="#mcaff1a49f2" y="197.64"/>
      </g>
     </g>
     <g id="text_11">
      <!-- −0.50 -->
      <g transform="translate(16.354687 201.439219)scale(0.1 -0.1)">
       <use xlink:href="#DejaVuSans-8722"/>
       <use x="83.789062" xlink:href="#DejaVuSans-48"/>
       <use x="147.412109" xlink:href="#DejaVuSans-46"/>
       <use x="179.199219" xlink:href="#DejaVuSans-53"/>
       <use x="242.822266" xlink:href="#DejaVuSans-48"/>
      </g>
     </g>
    </g>
    <g id="ytick_4">
     <g id="line2d_21">
      <path clip-path="url(#p5820990523)" d="M 54 170.46 
L 388.8 170.46 
" style="fill:none;stroke:#b0b0b0;stroke-linecap:square;stroke-width:0.8;"/>
     </g>
     <g id="line2d_22">
      <g>
       <use style="stroke:#000000;stroke-width:0.8;" x="54" xlink:href="#mcaff1a49f2" y="170.46"/>
      </g>
     </g>
     <g id="text_12">
      <!-- −0.25 -->
      <g transform="translate(16.354687 174.259219)scale(0.1 -0.1)">
       <use xlink:href="#DejaVuSans-8722"/>
       <use x="83.789062" xlink:href="#DejaVuSans-48"/>
       <use x="147.412109" xlink:href="#DejaVuSans-46"/>
       <use x="179.199219" xlink:href="#DejaVuSans-50"/>
       <use x="242.822266" xlink:href="#DejaVuSans-53"/>
      </g>
     </g>
    </g>
    <g id="ytick_5">
     <g id="line2d_23">
      <path clip-path="url(#p5820990523)" d="M 54 143.28 
L 388.8 143.28 
" style="fill:none;stroke:#b0b0b0;stroke-linecap:square;stroke-width:0.8;"/>
     </g>
     <g id="line2d_24">
      <g>
       <use style="stroke:#000000;stroke-width:0.8;" x="54" xlink:href="#mcaff1a49f2" y="143.28"/>
      </g>
     </g>
     <g id="text_13">
      <!-- 0.00 -->
      <g transform="translate(24.734375 147.079219)scale(0.1 -0.1)">
       <use xlink:href="#DejaVuSans-48"/>
       <use x="63.623047" xlink:href="#DejaVuSans-46"/>
       <use x="95.410156" xlink:href="#DejaVuSans-48"/>
       <use x="159.033203" xlink:href="#DejaVuSans-48"/>
      </g>
     </g>
    </g>
    <g id="ytick_6">
     <g id="line2d_25">
      <path clip-path="url(#p5820990523)" d="M 54 116.1 
L 388.8 116.1 
" style="fill:none;stroke:#b0b0b0;stroke-linecap:square;stroke-width:0.8;"/>
     </g>
     <g id="line2d_26">
      <g>
       <use style="stroke:#000000;stroke-width:0.8;" x="54" xlink:href="#mcaff1a49f2" y="116.1"/>
      </g>
     </g>
     <g id="text_14">
      <!-- 0.25 -->
      <g transform="translate(24.734375 119.899219)scale(0.1 -0.1)">
       <use xlink:href="#DejaVuSans-48"/>
       <use x="63.623047" xlink:href="#DejaVuSans-46"/>
       <use x="95.410156" xlink:href="#DejaVuSans-50"/>
       <use x="159.033203" xlink:href="#DejaVuSans-53"/>
      </g>
     </g>
    </g>
    <g id="ytick_7">
     <g id="line2d_27">
      <path clip-path="url(#p5820990523)" d="M 54 88.92 
L 388.8 88.92 
" style="fill:none;stroke:#b0b0b0;stroke-linecap:square;stroke-width:0.8;"/>
     </g>
     <g id="line2d_28">
      <g>
       <use style="stroke:#000000;stroke-width:0.8;" x="54" xlink:href="#mcaff1a49f2" y="88.92"/>
      </g>
     </g>
     <g id="text_15">
      <!-- 0.50 -->
      <g transform="translate(24.734375 92.719219)scale(0.1 -0.1)">
       <use xlink:href="#DejaVuSans-48"/>
       <use x="63.623047" xlink:href="#DejaVuSans-46"/>
       <use x="95.410156" xlink:href="#DejaVuSans-53"/>
       <use x="159.033203" xlink:href="#DejaVuSans-48"/>
      </g>
     </g>
    </g>
    <g id="ytick_8">
     <g id="line2d_29">
      <path clip-path="url(#p5820990523)" d="M 54 61.74 
L 388.8 61.74 
" style="fill:none;stroke:#b0b0b0;stroke-linecap:square;stroke-width:0.8;"/>
     </g>
     <g id="line2d_30">
      <g>
       <use style="stroke:#000000;stroke-width:0.8;" x="54" xlink:href="#mcaff1a49f2" y="61.74"/>
      </g>
     </g>
     <g id="text_16">
      <!-- 0.75 -->
      <g transform="translate(24.734375 65.539219)scale(0.1 -0.1)">
       <use xlink:href="#DejaVuSans-48"/>
       <use x="63.623047" xlink:href="#DejaVuSans-46"/>
       <use x="95.410156" xlink:href="#DejaVuSans-55"/>
       <use x="159.033203" xlink:href="#DejaVuSans-53"/>
      </g>
     </g>
    </g>
    <g id="ytick_9">
     <g id="line2d_31">
      <path clip-path="url(#p5820990523)" d="M 54 34.56 
L 388.8 34.56 
" style="fill:none;stroke:#b0b0b0;stroke-linecap:square;stroke-width:0.8;"/>
     </g>
     <g id="line2d_32">
      <g>
       <use style="stroke:#000000;stroke-width:0.8;" x="54" xlink:href="#mcaff1a49f2" y="34.56"/>
      </g>
     </g>
     <g id="text_17">
      <!-- 1.00 -->
      <g transform="translate(24.734375 38.359219)scale(0.1 -0.1)">
       <use xlink:href="#DejaVuSans-49"/>
       <use x="63.623047" xlink:href="#DejaVuSans-46"/>
       <use x="95.410156" xlink:href="#DejaVuSans-48"/>
       <use x="159.033203" xlink:href="#DejaVuSans-48"/>
      </g>
     </g>
    </g>
    <g id="text_18">
     <!-- Autocorrelation -->
     <defs>
      <path d="M 34.1875 63.1875 
L 20.796875 26.90625 
L 47.609375 26.90625 
z
M 28.609375 72.90625 
L 39.796875 72.90625 
L 67.578125 0 
L 57.328125 0 
L 50.6875 18.703125 
L 17.828125 18.703125 
L 11.1875 0 
L 0.78125 0 
z
" id="DejaVuSans-65"/>
      <path d="M 8.5 21.578125 
L 8.5 54.6875 
L 17.484375 54.6875 
L 17.484375 21.921875 
Q 17.484375 14.15625 20.5 10.265625 
Q 23.53125 6.390625 29.59375 6.390625 
Q 36.859375 6.390625 41.078125 11.03125 
Q 45.3125 15.671875 45.3125 23.6875 
L 45.3125 54.6875 
L 54.296875 54.6875 
L 54.296875 0 
L 45.3125 0 
L 45.3125 8.40625 
Q 42.046875 3.421875 37.71875 1 
Q 33.40625 -1.421875 27.6875 -1.421875 
Q 18.265625 -1.421875 13.375 4.4375 
Q 8.5 10.296875 8.5 21.578125 
z
M 31.109375 56 
z
" id="DejaVuSans-117"/>
      <path d="M 18.3125 70.21875 
L 18.3125 54.6875 
L 36.8125 54.6875 
L 36.8125 47.703125 
L 18.3125 47.703125 
L 18.3125 18.015625 
Q 18.3125 11.328125 20.140625 9.421875 
Q 21.96875 7.515625 27.59375 7.515625 
L 36.8125 7.515625 
L 36.8125 0 
L 27.59375 0 
Q 17.1875 0 13.234375 3.875 
Q 9.28125 7.765625 9.28125 18.015625 
L 9.28125 47.703125 
L 2.6875 47.703125 
L 2.6875 54.6875 
L 9.28125 54.6875 
L 9.28125 70.21875 
z
" id="DejaVuSans-116"/>
      <path d="M 30.609375 48.390625 
Q 23.390625 48.390625 19.1875 42.75 
Q 14.984375 37.109375 14.984375 27.296875 
Q 14.984375 17.484375 19.15625 11.84375 
Q 23.34375 6.203125 30.609375 6.203125 
Q 37.796875 6.203125 41.984375 11.859375 
Q 46.1875 17.53125 46.1875 27.296875 
Q 46.1875 37.015625 41.984375 42.703125 
Q 37.796875 48.390625 30.609375 48.390625 
z
M 30.609375 56 
Q 42.328125 56 49.015625 48.375 
Q 55.71875 40.765625 55.71875 27.296875 
Q 55.71875 13.875 49.015625 6.21875 
Q 42.328125 -1.421875 30.609375 -1.421875 
Q 18.84375 -1.421875 12.171875 6.21875 
Q 5.515625 13.875 5.515625 27.296875 
Q 5.515625 40.765625 12.171875 48.375 
Q 18.84375 56 30.609375 56 
z
" id="DejaVuSans-111"/>
      <path d="M 48.78125 52.59375 
L 48.78125 44.1875 
Q 44.96875 46.296875 41.140625 47.34375 
Q 37.3125 48.390625 33.40625 48.390625 
Q 24.65625 48.390625 19.8125 42.84375 
Q 14.984375 37.3125 14.984375 27.296875 
Q 14.984375 17.28125 19.8125 11.734375 
Q 24.65625 6.203125 33.40625 6.203125 
Q 37.3125 6.203125 41.140625 7.25 
Q 44.96875 8.296875 48.78125 10.40625 
L 48.78125 2.09375 
Q 45.015625 0.34375 40.984375 -0.53125 
Q 36.96875 -1.421875 32.421875 -1.421875 
Q 20.0625 -1.421875 12.78125 6.34375 
Q 5.515625 14.109375 5.515625 27.296875 
Q 5.515625 40.671875 12.859375 48.328125 
Q 20.21875 56 33.015625 56 
Q 37.15625 56 41.109375 55.140625 
Q 45.0625 54.296875 48.78125 52.59375 
z
" id="DejaVuSans-99"/>
      <path d="M 41.109375 46.296875 
Q 39.59375 47.171875 37.8125 47.578125 
Q 36.03125 48 33.890625 48 
Q 26.265625 48 22.1875 43.046875 
Q 18.109375 38.09375 18.109375 28.8125 
L 18.109375 0 
L 9.078125 0 
L 9.078125 54.6875 
L 18.109375 54.6875 
L 18.109375 46.1875 
Q 20.953125 51.171875 25.484375 53.578125 
Q 30.03125 56 36.53125 56 
Q 37.453125 56 38.578125 55.875 
Q 39.703125 55.765625 41.0625 55.515625 
z
" id="DejaVuSans-114"/>
      <path d="M 56.203125 29.59375 
L 56.203125 25.203125 
L 14.890625 25.203125 
Q 15.484375 15.921875 20.484375 11.0625 
Q 25.484375 6.203125 34.421875 6.203125 
Q 39.59375 6.203125 44.453125 7.46875 
Q 49.3125 8.734375 54.109375 11.28125 
L 54.109375 2.78125 
Q 49.265625 0.734375 44.1875 -0.34375 
Q 39.109375 -1.421875 33.890625 -1.421875 
Q 20.796875 -1.421875 13.15625 6.1875 
Q 5.515625 13.8125 5.515625 26.8125 
Q 5.515625 40.234375 12.765625 48.109375 
Q 20.015625 56 32.328125 56 
Q 43.359375 56 49.78125 48.890625 
Q 56.203125 41.796875 56.203125 29.59375 
z
M 47.21875 32.234375 
Q 47.125 39.59375 43.09375 43.984375 
Q 39.0625 48.390625 32.421875 48.390625 
Q 24.90625 48.390625 20.390625 44.140625 
Q 15.875 39.890625 15.1875 32.171875 
z
" id="DejaVuSans-101"/>
      <path d="M 9.421875 75.984375 
L 18.40625 75.984375 
L 18.40625 0 
L 9.421875 0 
z
" id="DejaVuSans-108"/>
      <path d="M 9.421875 54.6875 
L 18.40625 54.6875 
L 18.40625 0 
L 9.421875 0 
z
M 9.421875 75.984375 
L 18.40625 75.984375 
L 18.40625 64.59375 
L 9.421875 64.59375 
z
" id="DejaVuSans-105"/>
      <path d="M 54.890625 33.015625 
L 54.890625 0 
L 45.90625 0 
L 45.90625 32.71875 
Q 45.90625 40.484375 42.875 44.328125 
Q 39.84375 48.1875 33.796875 48.1875 
Q 26.515625 48.1875 22.3125 43.546875 
Q 18.109375 38.921875 18.109375 30.90625 
L 18.109375 0 
L 9.078125 0 
L 9.078125 54.6875 
L 18.109375 54.6875 
L 18.109375 46.1875 
Q 21.34375 51.125 25.703125 53.5625 
Q 30.078125 56 35.796875 56 
Q 45.21875 56 50.046875 50.171875 
Q 54.890625 44.34375 54.890625 33.015625 
z
" id="DejaVuSans-110"/>
     </defs>
     <g transform="translate(10.275 181.912813)rotate(-90)scale(0.1 -0.1)">
      <use xlink:href="#DejaVuSans-65"/>
      <use x="68.408203" xlink:href="#DejaVuSans-117"/>
      <use x="131.787109" xlink:href="#DejaVuSans-116"/>
      <use x="170.996094" xlink:href="#DejaVuSans-111"/>
      <use x="232.177734" xlink:href="#DejaVuSans-99"/>
      <use x="287.158203" xlink:href="#DejaVuSans-111"/>
      <use x="348.339844" xlink:href="#DejaVuSans-114"/>
      <use x="389.4375" xlink:href="#DejaVuSans-114"/>
      <use x="430.519531" xlink:href="#DejaVuSans-101"/>
      <use x="492.042969" xlink:href="#DejaVuSans-108"/>
      <use x="519.826172" xlink:href="#DejaVuSans-97"/>
      <use x="581.105469" xlink:href="#DejaVuSans-116"/>
      <use x="620.314453" xlink:href="#DejaVuSans-105"/>
      <use x="648.097656" xlink:href="#DejaVuSans-111"/>
      <use x="709.279297" xlink:href="#DejaVuSans-110"/>
     </g>
    </g>
   </g>
   <g id="line2d_33">
    <path clip-path="url(#p5820990523)" d="M 54 141.735409 
L 388.8 141.735409 
" style="fill:none;stroke:#808080;stroke-dasharray:5.55,2.4;stroke-dashoffset:0;stroke-width:1.5;"/>
   </g>
   <g id="line2d_34">
    <path clip-path="url(#p5820990523)" d="M 54 142.104712 
L 388.8 142.104712 
" style="fill:none;stroke:#808080;stroke-linecap:square;stroke-width:1.5;"/>
   </g>
   <g id="line2d_35">
    <path clip-path="url(#p5820990523)" d="M 54 143.28 
L 388.8 143.28 
" style="fill:none;stroke:#000000;stroke-linecap:square;stroke-width:1.5;"/>
   </g>
   <g id="line2d_36">
    <path clip-path="url(#p5820990523)" d="M 54 144.455288 
L 388.8 144.455288 
" style="fill:none;stroke:#808080;stroke-linecap:square;stroke-width:1.5;"/>
   </g>
   <g id="line2d_37">
    <path clip-path="url(#p5820990523)" d="M 54 144.824591 
L 388.8 144.824591 
" style="fill:none;stroke:#808080;stroke-dasharray:5.55,2.4;stroke-dashoffset:0;stroke-width:1.5;"/>
   </g>
   <g id="line2d_38">
    <path clip-path="url(#p5820990523)" d="M 54 37.738318 
L 54.376855 124.485799 
L 54.56019 126.81512 
L 54.570375 126.811932 
L 54.600931 126.82491 
L 54.621301 126.899879 
L 54.937045 128.024819 
L 55.038898 127.849774 
L 55.191677 126.871327 
L 55.242603 127.170479 
L 55.466679 129.866821 
L 55.548161 129.488502 
L 55.843534 127.067559 
L 55.935201 126.435139 
L 56.138907 123.083807 
L 56.189833 123.971238 
L 56.485206 130.39221 
L 56.994469 134.913459 
L 57.167619 135.153792 
L 57.22873 135.032592 
L 57.432436 134.589133 
L 57.452806 134.615098 
L 57.717623 135.066429 
L 57.737994 134.991489 
L 57.931514 134.256259 
L 57.96207 134.298298 
L 58.247257 135.3373 
L 58.471333 136.335989 
L 58.501889 136.305715 
L 58.583371 136.159337 
L 58.624112 136.233523 
L 58.71578 136.432406 
L 58.766706 136.382525 
L 58.858374 135.975084 
L 58.980597 135.706241 
L 59.011153 135.727636 
L 59.08245 135.729673 
L 59.10282 135.78584 
L 59.724122 138.990355 
L 59.734307 138.982681 
L 59.815789 138.726889 
L 60.060235 136.661146 
L 60.162088 136.876492 
L 60.284311 137.154521 
L 60.406535 137.943572 
L 60.671352 139.302903 
L 60.691722 139.291235 
L 60.773204 139.384232 
L 60.844501 139.464204 
L 60.885242 139.408426 
L 61.017651 139.225928 
L 61.088948 139.34585 
L 61.353765 139.883283 
L 61.588026 140.372287 
L 61.740805 140.14176 
L 61.863028 139.515408 
L 62.127845 138.532906 
L 62.321365 138.476904 
L 62.606553 138.004871 
L 62.749147 137.762474 
L 62.769517 137.724863 
L 62.810258 137.868855 
L 63.156557 139.171781 
L 63.23804 139.003397 
L 63.441745 137.758807 
L 63.686191 136.955551 
L 63.788044 136.499439 
L 64.195455 134.080633 
L 64.215825 134.095433 
L 64.338049 134.409554 
L 64.37879 134.182063 
L 64.541754 133.809478 
L 64.551939 133.834154 
L 64.633422 134.533237 
L 64.928794 136.742138 
L 65.010277 136.65805 
L 65.285279 135.647877 
L 65.397317 134.702523 
L 65.611207 132.968295 
L 65.631578 132.978634 
L 65.702875 132.879328 
L 65.774172 132.554417 
L 65.825098 132.718052 
L 66.456585 135.880213 
L 66.548252 135.807234 
L 66.66029 136.041957 
L 66.731587 136.301472 
L 66.782513 136.183908 
L 67.149183 134.845201 
L 67.169554 134.873999 
L 67.230665 135.122582 
L 67.281592 134.951694 
L 67.291777 134.897027 
L 67.373259 135.05628 
L 67.444556 134.891169 
L 67.627891 133.84817 
L 67.678817 134.098746 
L 68.025116 137.407114 
L 68.249192 137.64624 
L 68.310304 137.732032 
L 68.55475 138.637518 
L 68.605677 138.422608 
L 68.717715 137.653805 
L 68.799197 137.738418 
L 68.880679 138.463398 
L 69.002902 138.979023 
L 69.033458 138.913451 
L 69.104755 138.755751 
L 69.176052 138.785886 
L 69.277905 138.67526 
L 69.400128 138.284733 
L 69.440869 138.423403 
L 69.583463 140.410434 
L 69.766797 141.384927 
L 69.86865 141.274112 
L 69.990873 140.667018 
L 70.194579 139.963952 
L 70.326987 138.892043 
L 70.377914 138.61853 
L 70.459396 138.721901 
L 70.510322 138.531237 
L 70.632545 137.879177 
L 70.683472 137.905402 
L 70.744583 138.168263 
L 70.948289 138.981682 
L 71.202921 139.361079 
L 71.314958 140.132086 
L 71.56959 141.980256 
L 71.74274 142.896139 
L 71.977001 143.762766 
L 72.038113 143.657737 
L 72.180706 142.707265 
L 72.465894 140.481418 
L 72.679785 140.65201 
L 72.71034 140.596077 
L 72.812193 140.182935 
L 72.873305 139.995754 
L 72.934416 140.118196 
L 72.995528 140.209062 
L 74.075167 145.5103 
L 74.126093 145.463028 
L 74.238131 145.086214 
L 74.39091 143.781226 
L 74.614986 141.715609 
L 74.665912 141.773803 
L 74.747394 141.824195 
L 74.788135 141.774629 
L 74.818691 141.755116 
L 74.859432 141.847932 
L 74.920544 141.96318 
L 74.97147 141.855616 
L 75.16499 141.454154 
L 75.348325 140.975585 
L 75.399252 140.813155 
L 75.460363 140.927857 
L 75.53166 141.15587 
L 75.776107 141.907895 
L 75.969627 142.046097 
L 76.000183 141.980013 
L 76.122406 141.445065 
L 76.692781 136.763882 
L 76.733522 137.06243 
L 76.957598 138.446594 
L 77.252971 137.608971 
L 77.436306 135.842455 
L 77.670567 133.520755 
L 77.752049 134.608083 
L 77.945569 136.691894 
L 78.190016 140.377192 
L 78.240942 140.231162 
L 78.302053 140.084432 
L 78.342795 140.20012 
L 78.434462 140.373768 
L 78.475203 140.324203 
L 78.577056 139.779021 
L 78.709464 138.507025 
L 78.770576 138.085083 
L 78.841873 138.141856 
L 78.902984 138.234826 
L 79.055763 138.545974 
L 79.076134 138.526134 
L 79.12706 138.385295 
L 79.239098 136.94436 
L 79.351136 135.557461 
L 79.422433 136.280567 
L 79.799288 141.055685 
L 79.972438 141.331922 
L 80.115031 141.404555 
L 80.196514 141.313794 
L 80.349293 140.384954 
L 80.471516 139.310336 
L 80.552998 139.439564 
L 80.644666 139.733498 
L 80.685407 139.534341 
L 80.909483 138.234651 
L 80.929853 138.29473 
L 80.980779 138.437313 
L 81.031706 138.290902 
L 81.19467 137.141707 
L 81.276152 137.705587 
L 81.540969 139.577 
L 81.56134 139.562947 
L 81.75486 139.083021 
L 81.938195 136.84194 
L 81.968751 137.14454 
L 82.152085 140.346697 
L 82.203012 140.139744 
L 82.355791 139.778612 
L 82.365976 139.794694 
L 82.630793 140.797454 
L 82.814128 142.247295 
L 82.844684 142.227028 
L 82.997463 142.169742 
L 83.048389 142.078022 
L 83.506726 140.761733 
L 83.64932 140.865723 
L 83.740987 141.257103 
L 84.097472 143.186584 
L 84.260436 143.576126 
L 84.341918 143.398875 
L 84.586365 142.761466 
L 84.59655 142.766816 
L 84.647476 142.594635 
L 84.718773 142.257552 
L 84.7697 142.442702 
L 84.891923 142.978601 
L 84.953035 142.961569 
L 85.238222 142.828497 
L 85.299334 142.856954 
L 85.32989 142.781588 
L 85.533595 142.233929 
L 85.584521 142.349749 
L 85.747486 142.468124 
L 85.859524 142.609312 
L 86.29749 143.792155 
L 86.389158 143.678998 
L 86.49101 143.322547 
L 86.928977 141.274614 
L 86.939162 141.263694 
L 86.979903 141.360992 
L 87.346573 142.420852 
L 87.43824 142.530236 
L 87.478981 142.479568 
L 87.743798 142.298439 
L 87.927133 142.281747 
L 87.937319 142.248887 
L 88.17158 141.856291 
L 88.263247 141.756158 
L 88.293803 141.837057 
L 88.466953 142.043354 
L 88.477138 142.039782 
L 88.640102 141.684178 
L 88.864178 140.5955 
L 88.935475 140.81951 
L 89.047513 140.977602 
L 89.067884 140.947375 
L 89.291959 140.806046 
L 89.353071 140.862718 
L 89.403997 140.7806 
L 89.587332 140.67965 
L 89.679 140.586123 
L 89.943817 139.424633 
L 89.994743 139.505418 
L 90.229004 140.205528 
L 90.279931 140.289376 
L 90.310486 140.141897 
L 90.575303 137.730387 
L 90.656786 138.116475 
L 90.941973 140.564011 
L 90.952158 140.52354 
L 91.176234 139.726549 
L 91.237346 139.766922 
L 91.369754 138.882447 
L 91.461422 138.557182 
L 91.512348 138.61589 
L 91.777165 138.848881 
L 91.797536 138.828084 
L 91.848462 138.609962 
L 91.909574 138.332121 
L 91.970685 138.475222 
L 92.15402 138.794135 
L 92.184576 138.725325 
L 92.225317 138.595606 
L 92.266058 138.749553 
L 92.429023 139.826754 
L 92.479949 139.726016 
L 92.663284 138.560856 
L 92.90773 136.139005 
L 92.958657 136.227523 
L 93.029953 136.625773 
L 93.223474 137.997397 
L 93.264215 137.888283 
L 93.29477 137.930069 
L 93.335512 137.75998 
L 93.579958 136.189989 
L 93.844775 136.378769 
L 93.916072 136.738795 
L 93.977184 136.45465 
L 94.058666 135.884401 
L 94.109592 136.115818 
L 94.567929 139.333946 
L 94.60867 139.19564 
L 95.026266 136.067592 
L 95.189231 133.846168 
L 95.240157 134.024061 
L 95.382751 135.912095 
L 95.739235 139.102849 
L 95.881829 138.937839 
L 95.912385 139.067973 
L 96.136461 140.496917 
L 96.217943 140.462457 
L 96.401278 140.606174 
L 96.431834 140.505343 
L 96.48276 140.341489 
L 96.554057 140.456181 
L 96.737392 140.976844 
L 97.104061 142.439558 
L 97.144802 142.394999 
L 97.216099 142.169608 
L 97.348508 140.656287 
L 97.450361 139.860313 
L 97.501287 140.083835 
L 97.60314 140.450973 
L 97.643881 140.318092 
L 97.745733 139.809929 
L 97.827215 139.926455 
L 97.939253 140.004076 
L 97.969809 139.977673 
L 98.030921 140.068459 
L 98.112403 140.506074 
L 98.519814 142.770064 
L 98.774446 143.109606 
L 98.835557 142.996913 
L 98.927225 143.075687 
L 98.967966 143.118907 
L 99.018892 143.03234 
L 99.110559 142.618533 
L 99.456859 140.889247 
L 99.568897 140.403828 
L 99.619823 140.514209 
L 99.742046 141.478524 
L 100.027234 143.07023 
L 100.180013 142.796902 
L 100.210569 142.775066 
L 100.25131 142.864131 
L 100.455015 143.686301 
L 100.536497 143.416251 
L 100.750388 142.625182 
L 100.780944 142.648663 
L 100.862426 142.756375 
L 100.933723 142.891685 
L 100.994834 142.819198 
L 101.167984 142.66454 
L 101.19854 142.794305 
L 101.371689 143.208695 
L 101.422616 143.128301 
L 101.605951 142.815108 
L 101.616136 142.820959 
L 101.697618 142.651708 
L 101.860582 141.939243 
L 101.962435 142.047527 
L 102.176326 142.795513 
L 102.35966 143.460406 
L 102.410587 143.399413 
L 102.553181 143.346929 
L 102.573551 143.371258 
L 102.644848 143.556023 
L 102.695774 143.439986 
L 102.909665 142.096342 
L 103.174482 141.02188 
L 103.184667 141.027222 
L 103.235594 140.951817 
L 103.48004 139.944275 
L 103.530967 140.096331 
L 103.622634 140.451417 
L 103.683746 140.324636 
L 104.091156 137.837506 
L 104.172638 138.366596 
L 104.42727 140.981591 
L 104.529123 140.652425 
L 104.702273 139.088105 
L 104.81431 138.369115 
L 104.855052 138.478824 
L 105.038386 138.966137 
L 105.058757 138.954936 
L 105.130054 138.709365 
L 105.405056 137.790553 
L 105.445797 137.861876 
L 105.649503 138.094334 
L 105.659688 138.084155 
L 105.781911 137.195057 
L 106.219878 133.655793 
L 106.260619 133.75976 
L 106.393027 136.831259 
L 106.555992 139.22188 
L 106.576362 139.188943 
L 106.678215 138.428979 
L 106.953217 136.058738 
L 106.993958 136.150492 
L 107.156923 137.225763 
L 107.503222 139.386441 
L 107.574519 139.534558 
L 107.61526 139.375962 
L 107.778224 138.185759 
L 107.849521 138.68781 
L 107.992115 139.748554 
L 108.043041 139.412663 
L 108.185635 138.627648 
L 108.226376 138.753721 
L 108.297673 139.083581 
L 108.358784 138.954739 
L 108.705084 137.504213 
L 108.868048 137.374364 
L 108.918974 137.478442 
L 109.081938 137.876939 
L 109.092124 137.874517 
L 109.153235 137.614874 
L 109.33657 134.465725 
L 109.50972 132.46228 
L 109.53009 132.589669 
L 109.652314 134.029336 
L 110.018983 141.523563 
L 110.120836 141.334749 
L 110.243059 141.6837 
L 110.314356 142.17318 
L 110.518062 143.466819 
L 110.609729 143.267674 
L 110.742137 142.33094 
L 110.905102 140.868488 
L 110.986584 141.100561 
L 111.068066 141.578764 
L 111.118992 141.765631 
L 111.180104 141.599504 
L 111.465292 140.823252 
L 111.506033 140.996638 
L 111.638441 141.475029 
L 111.689368 141.411995 
L 111.882888 141.626522 
L 112.096778 143.52795 
L 112.300484 144.268343 
L 112.585671 144.852022 
L 112.626412 144.773962 
L 112.870859 143.467533 
L 113.268084 142.134475 
L 113.369937 142.008838 
L 113.410678 142.06465 
L 113.461604 142.186414 
L 113.512531 142.061024 
L 113.543087 142.01747 
L 113.604198 142.115777 
L 113.970868 143.010647 
L 114.03198 142.917398 
L 114.296797 141.246881 
L 114.388464 141.680526 
L 114.673652 143.233796 
L 114.765319 143.0835 
L 114.826431 142.864029 
L 114.887542 142.561351 
L 114.97921 142.590129 
L 115.040321 142.739634 
L 115.111618 142.936111 
L 115.17273 142.860096 
L 115.223656 142.91672 
L 115.254212 142.838986 
L 115.488473 142.20659 
L 115.651437 141.783079 
L 115.702364 141.610101 
L 115.75329 141.83127 
L 115.936625 142.500194 
L 115.967181 142.444126 
L 116.007922 142.361167 
L 116.058848 142.474531 
L 116.191257 142.696729 
L 116.221813 142.651388 
L 116.333851 142.348876 
L 116.435703 141.62359 
L 116.761632 140.215604 
L 116.812558 140.490929 
L 117.403304 145.465449 
L 117.525527 145.189532 
L 117.759788 144.577907 
L 118.126458 143.302646 
L 118.462572 141.726522 
L 118.513498 141.931338 
L 118.727389 143.568194 
L 118.778315 143.43306 
L 119.022762 141.388233 
L 119.104244 141.620526 
L 119.144985 141.548277 
L 119.175541 141.741604 
L 119.307949 143.774987 
L 119.511655 146.088651 
L 119.52184 146.078467 
L 119.613507 145.894115 
L 119.664434 146.012109 
L 119.735731 146.120874 
L 119.786657 146.049264 
L 119.929251 145.520188 
L 120.041289 145.264179 
L 120.08203 145.300785 
L 120.173697 145.401756 
L 120.204253 145.31728 
L 120.509811 144.737038 
L 120.530182 144.768869 
L 120.64222 145.097762 
L 120.815369 145.745523 
L 121.008889 145.422183 
L 121.39593 144.00748 
L 121.457041 144.154485 
L 121.497782 143.970331 
L 121.732043 142.428725 
L 121.78297 142.866397 
L 122.007046 146.030257 
L 122.027416 145.983435 
L 122.068157 145.825008 
L 122.119084 146.019471 
L 122.231122 146.371764 
L 122.271863 146.241227 
L 122.485753 143.791261 
L 122.567236 143.403306 
L 122.628347 143.468212 
L 122.669088 143.348803 
L 122.740385 143.468424 
L 122.821867 143.462176 
L 123.035758 144.406594 
L 123.056129 144.380734 
L 123.11724 144.454451 
L 123.188537 144.773444 
L 123.473725 146.901576 
L 123.524651 146.764177 
L 123.789468 145.280729 
L 123.860765 145.037737 
L 123.911691 145.17838 
L 124.023729 145.500709 
L 124.06447 145.422994 
L 124.135767 144.972893 
L 124.329287 143.611348 
L 124.380214 143.78369 
L 124.420955 143.90363 
L 124.482066 143.771257 
L 124.706142 143.140455 
L 124.828365 142.145285 
L 124.899662 142.546551 
L 125.0117 143.417348 
L 125.286703 146.367727 
L 125.37837 146.671905 
L 125.439482 146.544588 
L 125.622816 145.723034 
L 126.030227 142.686212 
L 126.040413 142.773197 
L 126.407082 145.379693 
L 126.783937 146.19261 
L 126.824678 146.073635 
L 126.926531 144.731065 
L 127.048754 143.993937 
L 127.089495 144.121494 
L 127.680241 147.270266 
L 127.720982 147.222196 
L 127.812649 147.129926 
L 127.863576 147.191026 
L 127.904317 147.177142 
L 127.924687 147.128206 
L 128.169134 146.596722 
L 128.19969 146.664851 
L 128.383025 147.115281 
L 128.444136 146.950679 
L 128.678397 145.843337 
L 128.749694 146.128947 
L 128.800621 146.273965 
L 128.851547 146.113354 
L 128.983955 144.99771 
L 129.085808 145.281058 
L 129.238587 147.547546 
L 129.442293 148.817808 
L 129.483034 148.835482 
L 129.523775 148.759511 
L 129.595072 148.619329 
L 129.676554 148.662288 
L 129.859889 148.120091 
L 129.931186 147.960626 
L 129.971927 148.071868 
L 130.012668 148.120209 
L 130.073779 148.049115 
L 130.175632 147.80772 
L 130.440449 146.811424 
L 130.450634 146.816892 
L 130.552487 147.078274 
L 130.613599 146.939553 
L 130.827489 146.463799 
L 130.86823 146.534365 
L 130.949713 146.762096 
L 131.000639 146.615252 
L 131.112677 146.328704 
L 131.153418 146.423503 
L 131.285826 147.156163 
L 131.520088 148.164411 
L 131.60157 148.045338 
L 132.059907 146.752985 
L 132.080277 146.765264 
L 132.243242 147.062198 
L 132.324724 146.886329 
L 132.426577 146.287395 
L 132.823802 144.597632 
L 132.905284 144.746469 
L 132.93584 144.611168 
L 132.986766 144.435184 
L 133.037693 144.630401 
L 133.098804 144.840862 
L 133.170101 144.715583 
L 133.271954 144.24562 
L 133.32288 144.313855 
L 133.373807 144.483674 
L 133.608068 146.389182 
L 133.709921 146.352958 
L 133.842329 145.967694 
L 134.066405 145.224767 
L 134.239555 144.499508 
L 134.27011 144.538565 
L 134.453445 144.838806 
L 134.494186 144.776381 
L 134.565483 144.56519 
L 134.61641 144.725092 
L 134.779374 144.971558 
L 134.789559 144.961973 
L 134.840486 144.614139 
L 134.901597 144.18497 
L 134.962709 144.386047 
L 135.064561 145.212174 
L 135.176599 146.237693 
L 135.237711 146.147932 
L 135.421046 145.605751 
L 135.573825 143.861843 
L 135.746975 142.862007 
L 135.75716 142.859334 
L 135.77753 142.942996 
L 135.869198 143.57454 
L 135.940495 143.331528 
L 136.001606 143.229966 
L 136.052533 143.368289 
L 136.225682 144.175876 
L 136.429388 144.55153 
L 136.439573 144.548226 
L 136.643278 144.633716 
L 136.72476 144.843997 
L 137.142356 146.341654 
L 137.162727 146.356476 
L 137.213653 146.272568 
L 137.407173 145.958543 
L 137.447915 146.002084 
L 137.692361 146.030772 
L 137.896066 146.176803 
L 137.936808 146.078174 
L 138.120142 145.071321 
L 138.221995 145.38948 
L 138.456256 146.210903 
L 138.527553 146.347772 
L 138.59885 146.286334 
L 138.741444 146.324388 
L 138.843297 146.35478 
L 138.873852 146.324458 
L 139.118299 145.968023 
L 139.169225 146.153817 
L 139.35256 146.857669 
L 139.383116 146.838638 
L 139.464598 146.570304 
L 139.617377 145.79131 
L 139.658118 145.813824 
L 139.709044 146.071384 
L 140.014603 148.598683 
L 140.055344 148.556193 
L 140.157196 148.226809 
L 140.707201 146.102625 
L 140.839609 145.631501 
L 141.0535 144.786258 
L 141.063685 144.766082 
L 141.124797 144.887362 
L 141.481281 146.973351 
L 141.705357 148.502305 
L 141.735913 148.514539 
L 141.786839 148.43844 
L 141.919248 147.738788 
L 142.275732 145.457089 
L 142.38777 145.503435 
L 142.520179 145.659002 
L 142.73407 146.199227 
L 142.774811 146.173513 
L 142.825737 146.032846 
L 142.998887 145.307146 
L 143.049813 145.4657 
L 143.233148 145.631289 
L 143.467409 145.628352 
L 143.640559 144.99042 
L 143.732226 145.197944 
L 143.966487 146.394739 
L 143.986858 146.374754 
L 144.06834 146.028152 
L 144.536862 142.890509 
L 144.608159 142.344229 
L 144.669271 142.633797 
L 144.791494 142.924716 
L 144.811865 142.90617 
L 145.097052 142.781449 
L 145.38224 143.119214 
L 145.555389 143.541994 
L 145.687798 143.593736 
L 145.697983 143.582734 
L 145.983171 143.323049 
L 146.15632 142.93969 
L 146.288729 142.918547 
L 146.421137 142.964676 
L 146.472064 142.979718 
L 146.512805 142.913892 
L 146.879474 141.750188 
L 147.032253 141.103999 
L 147.042439 141.172361 
L 147.235959 142.495575 
L 147.286885 142.099028 
L 147.358182 139.936287 
L 147.541517 133.125067 
L 147.572073 133.60905 
L 147.847075 140.429841 
L 147.867445 140.407062 
L 148.132262 140.019149 
L 148.458191 138.202557 
L 148.498932 138.168905 
L 148.529488 138.273609 
L 149.028566 140.844538 
L 149.089678 140.9828 
L 149.160975 140.87739 
L 149.222086 140.75599 
L 149.354495 139.730579 
L 149.476718 136.508353 
L 149.578571 125.081318 
L 149.710979 117.121829 
L 149.73135 118.141116 
L 150.006352 141.699508 
L 150.036908 141.708449 
L 150.087834 141.628329 
L 150.199872 141.094561 
L 150.301725 140.264305 
L 150.362837 140.067155 
L 150.413763 140.215862 
L 150.576727 140.457342 
L 150.597098 140.426624 
L 150.923026 138.405587 
L 150.963767 138.658082 
L 151.248955 142.873039 
L 151.330437 142.454681 
L 151.534143 141.554829 
L 151.554513 141.58972 
L 151.931368 142.905953 
L 152.104518 143.260499 
L 152.328594 144.256499 
L 152.37952 144.148795 
L 152.522114 143.720029 
L 152.623966 143.839251 
L 152.685078 143.933583 
L 152.74619 144.015341 
L 152.807301 143.949237 
L 152.949895 143.862193 
L 152.980451 143.902098 
L 153.204527 144.354982 
L 153.32675 145.04148 
L 153.428603 145.306532 
L 153.479529 145.267994 
L 153.723976 145.353769 
L 153.998978 146.301597 
L 154.049904 146.253244 
L 154.131386 146.054621 
L 154.508241 144.786905 
L 154.599909 144.858802 
L 154.722132 145.349219 
L 154.915652 145.834835 
L 154.936023 145.827731 
L 155.078616 145.88309 
L 155.170284 146.01146 
L 155.231395 145.956868 
L 155.455471 145.794514 
L 155.618436 145.559728 
L 155.669362 145.600867 
L 155.893438 145.665833 
L 155.985105 145.661966 
L 156.005476 145.700292 
L 156.514739 146.981716 
L 156.586036 146.897755 
L 156.749001 146.639105 
L 156.779556 146.690727 
L 157.003632 147.19694 
L 157.28882 147.343005 
L 157.492525 146.828232 
L 157.747157 146.334729 
L 157.767528 146.343285 
L 158.23605 147.128512 
L 158.327717 147.202733 
L 158.358273 147.164093 
L 158.521238 146.79057 
L 158.643461 146.689403 
L 158.663831 146.699351 
L 158.857351 146.792787 
L 158.877722 146.756524 
L 159.040686 146.079414 
L 159.346244 144.222018 
L 159.437912 144.2569 
L 159.509209 143.887536 
L 159.641617 143.375629 
L 159.672173 143.472904 
L 159.845323 144.388587 
L 159.896249 144.237709 
L 160.089769 143.368284 
L 160.140695 143.485518 
L 160.32403 144.601326 
L 160.568477 145.764753 
L 160.578662 145.757723 
L 160.660144 145.446672 
L 160.955517 144.151121 
L 160.965702 144.158549 
L 161.05737 144.292195 
L 161.108296 144.161402 
L 161.424039 143.017218 
L 161.525892 143.147532 
L 161.63793 143.488762 
L 161.688856 143.383139 
L 161.760153 143.231583 
L 161.800894 143.358776 
L 162.126823 144.918613 
L 162.187935 144.810448 
L 162.381455 144.30774 
L 162.442566 144.419566 
L 162.921274 145.737023 
L 163.033312 145.87314 
L 163.043497 145.855442 
L 163.328685 145.234777 
L 163.410167 144.767749 
L 163.593502 144.123331 
L 163.624058 144.182678 
L 163.858319 144.921765 
L 163.960172 144.798685 
L 164.143506 144.87623 
L 164.326841 145.384319 
L 164.357397 145.358273 
L 164.469435 145.030312 
L 164.764808 143.567456 
L 164.815734 143.738588 
L 165.009254 145.43877 
L 165.274071 146.972695 
L 165.314812 147.005348 
L 165.355554 146.925782 
L 165.487962 146.152739 
L 165.762964 145.027046 
L 165.77315 145.039673 
L 165.976855 145.519933 
L 166.129634 146.000746 
L 166.170375 145.955322 
L 166.323154 145.810553 
L 166.343525 145.781099 
L 166.37408 145.918118 
L 166.598156 146.770346 
L 166.608342 146.768661 
L 166.669453 146.617909 
L 166.791677 145.906196 
L 166.944456 145.048687 
L 166.985197 145.112994 
L 167.137976 146.395674 
L 167.372237 147.915962 
L 167.49446 148.100928 
L 167.545387 148.028093 
L 167.820389 147.20464 
L 168.075021 146.18449 
L 168.105576 146.225126 
L 168.523172 147.976313 
L 168.696322 148.318773 
L 168.838916 148.471206 
L 168.920398 148.497372 
L 168.950954 148.430733 
L 169.185215 148.03021 
L 169.225956 148.103142 
L 169.256512 148.139512 
L 169.297253 148.051119 
L 169.490773 147.773206 
L 169.56207 147.658412 
L 169.612996 147.608045 
L 169.684293 147.655326 
L 169.826887 147.460281 
L 170.071333 147.119753 
L 170.254668 146.44713 
L 170.305595 146.483075 
L 170.478744 146.572585 
L 170.539856 146.679046 
L 170.651894 147.369084 
L 170.825043 147.952817 
L 170.87597 147.963383 
L 170.89634 147.89136 
L 170.926896 147.823823 
L 170.977822 147.954109 
L 170.998193 147.993149 
L 171.038934 147.850033 
L 171.517642 144.89737 
L 171.568568 144.959475 
L 171.578753 144.988389 
L 171.731532 145.361755 
L 171.8232 145.789298 
L 172.057461 146.4971 
L 172.159314 146.516894 
L 172.179684 146.488042 
L 172.475057 145.969395 
L 172.658392 145.051904 
L 172.77043 145.296693 
L 172.923209 145.093206 
L 173.310249 144.381982 
L 173.33062 144.432345 
L 173.503769 144.726031 
L 173.513955 144.715674 
L 173.666734 144.474983 
L 173.982477 143.274412 
L 174.053774 143.492705 
L 174.420444 145.526249 
L 174.634334 145.541475 
L 174.644519 145.508797 
L 174.797299 144.981746 
L 174.878781 145.128416 
L 174.919522 145.137045 
L 174.970448 145.06995 
L 175.041745 144.815658 
L 175.255636 144.091465 
L 175.296377 144.034854 
L 175.357488 144.107428 
L 175.398229 144.126676 
L 175.449156 144.059496 
L 175.673232 143.657521 
L 175.754714 143.748303 
L 175.815825 144.133716 
L 175.958419 144.891792 
L 175.99916 144.773155 
L 176.243607 143.520661 
L 176.325089 143.759204 
L 176.661203 145.613852 
L 176.75287 145.431933 
L 176.905649 144.927304 
L 176.976946 145.099593 
L 177.058428 145.300611 
L 177.109355 145.197204 
L 177.323245 144.398217 
L 177.394542 144.512486 
L 177.659359 145.059533 
L 177.689915 145.021846 
L 177.761212 144.858856 
L 177.954732 144.099151 
L 177.985288 144.1785 
L 178.219549 144.958024 
L 178.494551 145.929817 
L 178.576034 145.800814 
L 178.616775 145.749409 
L 178.667701 145.822604 
L 178.932518 147.087847 
L 179.034371 147.019828 
L 179.146409 147.034995 
L 179.156594 147.045792 
L 179.645487 147.803665 
L 179.706599 147.661505 
L 179.900119 147.078209 
L 179.930674 147.129739 
L 180.144565 147.705471 
L 180.215862 147.644936 
L 180.317715 147.482083 
L 180.378826 147.558684 
L 180.490864 147.985189 
L 180.664014 148.257698 
L 180.745496 148.320094 
L 180.776052 148.262198 
L 180.949201 147.904299 
L 180.979757 147.966983 
L 181.030684 148.027749 
L 181.08161 147.936856 
L 181.173277 148.045627 
L 181.611244 148.831503 
L 181.692726 148.746022 
L 181.784394 148.623511 
L 182.120507 147.54401 
L 182.171434 147.577762 
L 182.344583 147.557717 
L 182.476992 147.575764 
L 182.823291 147.984224 
L 182.904773 148.075948 
L 182.9557 148.013104 
L 183.251072 147.617992 
L 183.261258 147.630521 
L 183.444592 147.798435 
L 183.475148 147.758187 
L 184.340896 146.444733 
L 184.473305 146.424053 
L 184.626084 146.354703 
L 184.646454 146.380977 
L 184.738122 146.464726 
L 184.768678 146.418204 
L 185.206644 145.607972 
L 185.216829 145.617541 
L 185.41035 145.840893 
L 185.451091 145.802303 
L 185.634425 145.796771 
L 185.695537 145.850745 
L 185.726093 145.774342 
L 186.174245 144.512717 
L 186.296468 143.811615 
L 186.37795 143.480347 
L 186.439062 143.583871 
L 186.673323 144.897219 
L 186.734435 144.706611 
L 186.775176 144.56208 
L 186.836287 144.734528 
L 186.93814 144.967109 
L 186.978881 144.854908 
L 187.284439 144.100973 
L 187.396477 144.195618 
L 187.589997 144.567418 
L 187.620553 144.518972 
L 187.681665 144.444221 
L 187.71222 144.550234 
L 187.773332 144.718225 
L 187.844629 144.635537 
L 187.966852 144.513497 
L 187.997408 144.625386 
L 188.170558 145.22064 
L 188.190928 145.197958 
L 188.44556 144.454921 
L 188.669636 142.907086 
L 188.740933 143.080797 
L 188.914082 144.002976 
L 189.00575 143.766946 
L 189.178899 143.067769 
L 189.229826 143.109962 
L 189.494643 143.621256 
L 189.667792 144.623496 
L 189.708533 144.558014 
L 189.75946 144.701617 
L 189.983536 145.485452 
L 189.993721 145.481676 
L 190.115944 145.538133 
L 190.227982 145.602449 
L 190.248353 145.560955 
L 190.360391 145.343402 
L 190.421502 145.397028 
L 190.645578 146.107917 
L 190.72706 145.905865 
L 190.890025 145.457015 
L 190.92058 145.463937 
L 190.981692 145.598787 
L 191.26688 146.582593 
L 191.317806 146.491055 
L 191.592808 145.768276 
L 191.613179 145.780451 
L 192.010404 146.252501 
L 192.030775 146.220064 
L 192.254851 145.622201 
L 192.285407 145.694307 
L 192.906708 147.537915 
L 193.120599 147.474177 
L 193.477083 147.255503 
L 193.528009 147.357419 
L 193.660418 147.513503 
L 193.701159 147.433353 
L 194.200237 146.052074 
L 194.291905 145.663283 
L 194.353016 145.772658 
L 194.628019 146.261557 
L 194.729871 146.335513 
L 194.770612 146.285687 
L 194.913206 145.695252 
L 195.035429 145.896073 
L 195.412284 147.2489 
L 195.473396 147.088235 
L 196.023401 145.171373 
L 196.043771 145.2014 
L 196.135439 145.349356 
L 196.19655 145.26728 
L 196.410441 144.66524 
L 196.451182 144.802142 
L 196.532664 145.001344 
L 196.593776 144.95563 
L 196.644702 144.97374 
L 196.685443 144.891039 
L 196.766925 144.777685 
L 196.817852 144.878781 
L 197.052113 145.107183 
L 197.194707 145.185492 
L 197.520635 145.305685 
L 197.653044 145.424411 
L 197.846564 145.844408 
L 198.07064 146.343209 
L 198.080825 146.33783 
L 198.152122 146.240332 
L 198.610459 145.406848 
L 198.732682 145.395181 
L 198.742868 145.378406 
L 198.84472 145.134032 
L 198.895647 145.205713 
L 198.977129 145.611269 
L 199.109537 146.002606 
L 199.140093 145.962309 
L 199.221575 145.726247 
L 199.700283 141.890944 
L 199.822506 141.64918 
L 199.842877 141.75891 
L 200.056767 143.354221 
L 200.117879 143.081874 
L 200.341955 140.528363 
L 200.494734 139.380361 
L 200.515104 139.449274 
L 200.688254 141.786584 
L 200.851218 143.027737 
L 200.881774 143.006478 
L 201.696596 141.900221 
L 201.788263 141.557327 
L 201.83919 141.688194 
L 202.175303 142.137671 
L 202.205859 142.099762 
L 202.399379 141.065919 
L 202.572529 139.40375 
L 202.684567 139.609277 
L 202.796605 140.796872 
L 203.051237 142.423423 
L 203.244757 143.132187 
L 203.468833 142.843638 
L 203.784576 142.184882 
L 203.937355 142.136923 
L 204.12069 142.091361 
L 204.202172 142.099705 
L 204.222543 142.162702 
L 204.466989 142.484933 
L 204.50773 142.406143 
L 204.772547 141.901356 
L 204.803103 141.995824 
L 205.006808 142.872173 
L 205.057735 142.793594 
L 205.210514 142.356536 
L 205.271625 142.489481 
L 205.43459 142.612277 
L 205.45496 142.596988 
L 205.495701 142.57793 
L 205.546628 142.660363 
L 205.597554 142.685329 
L 205.64848 142.635018 
L 205.852186 142.083176 
L 205.933668 142.033945 
L 205.964224 142.081211 
L 206.045706 142.396762 
L 206.229041 142.762988 
L 206.300338 142.622521 
L 206.565155 141.822851 
L 206.595711 141.882391 
L 206.74849 143.205573 
L 206.911454 143.700601 
L 206.982751 143.588909 
L 207.13553 143.529737 
L 207.217012 143.380495 
L 207.553126 142.652371 
L 207.634608 142.841034 
L 207.929981 143.645454 
L 208.255909 144.134485 
L 208.367947 144.607959 
L 208.429059 144.466684 
L 208.602209 143.646255 
L 208.673506 143.831763 
L 208.785543 143.88127 
L 208.805914 143.847165 
L 208.907767 143.462822 
L 208.999434 143.134007 
L 209.040175 143.274824 
L 209.264251 143.770197 
L 209.366104 143.826768 
L 209.630921 144.573269 
L 209.671662 144.448861 
L 209.844812 143.079199 
L 210.007776 142.520493 
L 210.017961 142.505412 
L 210.058702 142.623912 
L 210.323519 143.2896 
L 210.394816 143.334124 
L 210.435557 143.263773 
L 210.659633 142.868322 
L 210.710559 142.953296 
L 210.802227 143.137434 
L 210.873524 143.053785 
L 211.250379 142.627491 
L 211.382787 142.35551 
L 211.403158 142.400074 
L 211.922607 143.628656 
L 212.116127 143.666293 
L 212.126312 143.631062 
L 212.330017 142.879817 
L 212.442055 142.956828 
L 212.564279 143.395583 
L 212.666131 143.212596 
L 213.042986 142.313003 
L 213.104098 142.34218 
L 213.216136 142.554537 
L 213.480953 143.398054 
L 213.562435 143.391248 
L 213.582806 143.36389 
L 214.081884 142.520361 
L 214.142995 142.653759 
L 214.234663 143.147156 
L 214.417998 143.784475 
L 214.591147 143.699517 
L 215.049484 143.277573 
L 215.110596 143.363174 
L 215.283746 143.60423 
L 215.395784 143.577882 
L 215.548563 143.51379 
L 215.630045 143.598531 
L 215.83375 143.820993 
L 216.037456 143.648049 
L 216.353199 143.125082 
L 216.39394 143.197734 
L 216.770795 143.89401 
L 216.862462 143.965296 
L 217.035612 144.048997 
L 217.117094 143.950044 
L 217.280058 143.764005 
L 217.361541 143.897407 
L 217.463393 144.228321 
L 217.718025 145.001857 
L 217.748581 144.979614 
L 218.023583 144.53509 
L 218.155992 143.840153 
L 218.349512 142.86865 
L 218.369882 142.884163 
L 218.430994 143.068273 
L 218.532847 143.289186 
L 218.563402 143.216209 
L 218.685626 142.763521 
L 218.746737 142.635728 
L 218.807849 142.699442 
L 218.879146 142.974077 
L 219.103222 143.613249 
L 219.174519 143.63905 
L 219.194889 143.583575 
L 219.296742 142.973085 
L 219.520818 141.006758 
L 219.541188 141.153715 
L 219.724523 143.69863 
L 219.907858 144.918946 
L 219.948599 144.916312 
L 219.979155 144.860111 
L 220.284713 144.005322 
L 220.386566 144.1982 
L 220.620827 144.591177 
L 220.651383 144.561685 
L 220.93657 144.040397 
L 221.181017 143.267057 
L 221.231943 143.306369 
L 221.384722 143.653676 
L 221.731021 144.480601 
L 222.209729 144.960389 
L 222.61714 144.150459 
L 222.678251 143.987873 
L 222.718992 144.133374 
L 222.983809 144.803794 
L 223.187515 145.093228 
L 223.37085 145.143064 
L 223.594926 144.952275 
L 223.768075 144.367776 
L 223.93104 143.962115 
L 223.971781 143.963918 
L 223.981966 144.02636 
L 224.002336 144.134272 
L 224.104189 144.109189 
L 224.236598 144.10142 
L 224.33845 144.010239 
L 224.358821 144.086275 
L 224.419932 144.189787 
L 224.460674 144.091751 
L 224.552341 143.48109 
L 224.70512 142.663816 
L 224.735676 142.742307 
L 225.020863 144.175972 
L 225.07179 144.094701 
L 225.163457 143.509547 
L 225.367163 142.348908 
L 225.387533 142.362848 
L 225.672721 142.958998 
L 225.886611 143.890205 
L 225.998649 143.972838 
L 226.569024 144.688049 
L 227.231067 143.013547 
L 227.536625 141.988799 
L 227.567181 141.967584 
L 227.607922 142.06119 
L 227.74033 142.734872 
L 228.025518 144.027681 
L 228.076444 143.999005 
L 228.402373 143.812887 
L 228.626449 143.385788 
L 228.697746 143.509233 
L 228.921822 144.010136 
L 229.023674 143.841374 
L 229.094971 143.643993 
L 229.319047 142.961994 
L 229.44127 142.896151 
L 229.634791 141.735438 
L 229.828311 140.479007 
L 229.889422 140.645645 
L 230.032016 141.866048 
L 230.327389 144.084606 
L 230.520909 144.204758 
L 230.714429 144.193122 
L 230.867208 144.344606 
L 230.918135 144.270952 
L 231.101469 143.984778 
L 231.172766 144.06203 
L 231.396842 144.375488 
L 231.437583 144.286104 
L 231.7024 143.573188 
L 232.282961 144.267057 
L 232.547778 145.449929 
L 232.782039 145.899175 
L 233.0163 145.874792 
L 233.607046 145.689291 
L 234.024642 145.784334 
L 234.442238 145.063361 
L 234.462608 145.087645 
L 234.737611 145.379658 
L 234.757981 145.346073 
L 234.849649 145.199366 
L 234.91076 145.262909 
L 235.175577 145.323273 
L 235.776508 145.060793 
L 235.990399 144.414825 
L 236.000584 144.427432 
L 236.132993 144.694892 
L 236.183919 144.546937 
L 236.357069 143.947084 
L 236.407995 144.007825 
L 236.632071 144.159899 
L 236.652441 144.110278 
L 237.019111 142.765861 
L 237.100593 142.827326 
L 237.141334 142.940603 
L 237.406151 144.090837 
L 237.569116 143.898186 
L 237.844118 143.24937 
L 237.874674 143.285477 
L 238.047823 143.504331 
L 238.078379 143.466682 
L 238.322826 143.080688 
L 238.363567 143.1197 
L 238.394122 143.122654 
L 238.424678 143.055739 
L 238.699681 142.486404 
L 238.730236 142.532623 
L 238.923757 143.463088 
L 239.096906 143.945677 
L 239.107091 143.939762 
L 239.188574 143.685525 
L 239.443205 142.786637 
L 239.504317 142.887994 
L 239.789504 143.917062 
L 239.840431 143.864355 
L 240.2071 143.335006 
L 240.258027 143.444076 
L 240.400621 143.673523 
L 240.431176 143.619078 
L 240.624697 142.93516 
L 240.777476 142.661896 
L 240.787661 142.665522 
L 241.215442 143.146352 
L 241.225627 143.138059 
L 241.337665 142.725442 
L 241.602482 141.080056 
L 241.775632 139.781422 
L 241.836744 140.004745 
L 241.969152 141.254857 
L 242.193228 143.170022 
L 242.233969 143.231328 
L 242.295081 143.159266 
L 242.743233 142.77841 
L 243.038605 142.807971 
L 243.048791 142.779588 
L 243.283052 142.381181 
L 243.293237 142.384872 
L 243.364534 142.507667 
L 243.41546 142.416207 
L 243.517313 142.058215 
L 243.741389 141.005032 
L 243.792315 141.05859 
L 244.036762 141.084487 
L 244.046947 141.027516 
L 244.250653 140.440727 
L 244.260838 140.453575 
L 244.311764 140.689383 
L 244.637693 143.147263 
L 244.831213 143.333113 
L 244.983992 143.187047 
L 245.1164 142.767269 
L 245.248809 142.55744 
L 245.28955 142.624145 
L 245.605293 143.113817 
L 245.646034 143.06578 
L 245.900666 142.764052 
L 245.910852 142.728712 
L 245.982148 142.858563 
L 246.145113 143.010762 
L 246.033075 142.770545 
L 246.175669 142.932457 
L 246.267336 142.302264 
L 246.521968 139.647991 
L 246.572894 140.226446 
L 246.949749 144.033555 
L 246.980305 144.046499 
L 247.021046 143.96695 
L 247.224751 143.284895 
L 247.285863 143.357519 
L 247.499754 143.695999 
L 247.734015 143.977007 
L 247.846053 143.850623 
L 247.968276 143.48489 
L 248.161796 143.186079 
L 248.32476 143.531094 
L 248.457169 143.696476 
L 248.49791 143.632145 
L 248.681245 142.959818 
L 248.834024 142.387053 
L 248.895136 142.546615 
L 248.966432 142.922126 
L 249.210879 144.574675 
L 249.689587 144.990783 
L 249.750698 144.921221 
L 249.923848 144.965762 
L 250.147924 145.056199 
L 250.443297 145.086736 
L 250.616446 144.909031 
L 250.647002 144.958405 
L 250.962745 145.530201 
L 250.983116 145.517167 
L 251.084969 145.307929 
L 251.268303 144.778377 
L 251.349786 144.845263 
L 251.573861 145.376816 
L 251.634973 145.324803 
L 251.818308 145.223002 
L 252.032199 144.831588 
L 252.378498 144.237839 
L 252.388683 144.260355 
L 252.622944 144.575495 
L 252.63313 144.567003 
L 252.704426 144.447934 
L 253.162764 143.752958 
L 253.264616 143.897972 
L 253.356284 144.043358 
L 253.763694 144.802831 
L 253.77388 144.797834 
L 254.558145 144.210755 
L 254.629442 144.212054 
L 254.649813 144.162838 
L 254.863704 143.346191 
L 255.138706 142.192895 
L 255.189632 142.02191 
L 255.342411 141.481861 
L 255.362782 141.505908 
L 255.434079 142.069198 
L 255.66834 143.510552 
L 255.770193 143.690149 
L 255.831304 143.648142 
L 256.05538 143.564984 
L 256.075751 143.61345 
L 256.320197 144.02936 
L 256.340568 144.019081 
L 256.42205 144.07701 
L 256.656311 144.601491 
L 256.707237 144.512939 
L 256.860016 143.67193 
L 257.104463 142.175619 
L 257.145204 142.274575 
L 257.216501 142.568377 
L 257.267427 142.407959 
L 257.471133 141.682289 
L 257.501688 141.702265 
L 257.583171 141.979716 
L 258.000767 144.135093 
L 258.163731 144.144816 
L 258.214657 144.06465 
L 258.408177 143.382078 
L 258.520215 143.607383 
L 258.70355 144.569866 
L 258.734106 144.516439 
L 259.151702 143.413302 
L 259.172073 143.428215 
L 259.324852 143.610798 
L 259.355408 143.529554 
L 259.65078 142.668998 
L 259.711892 142.759406 
L 260.241526 144.058035 
L 260.261897 144.041665 
L 260.496158 143.760899 
L 260.536899 143.822835 
L 260.77116 144.057686 
L 261.005421 144.124022 
L 261.015606 144.095505 
L 261.188756 143.237779 
L 261.33135 142.988207 
L 261.361906 143.066124 
L 261.738761 144.478064 
L 262.08506 144.16806 
L 262.10543 144.19173 
L 262.197098 144.370762 
L 262.248024 144.265032 
L 262.421174 143.934936 
L 262.624879 143.409368 
L 262.655435 143.465964 
L 262.899881 144.501818 
L 262.971178 144.454705 
L 263.134143 144.247123 
L 263.144328 144.253694 
L 263.317477 144.570894 
L 263.541553 145.21894 
L 263.623036 145.105828 
L 264.030446 144.117636 
L 264.050817 144.15489 
L 264.264707 144.837824 
L 264.336004 145.016441 
L 264.386931 144.927115 
L 264.7536 143.76272 
L 264.957306 143.249631 
L 265.048973 143.095738 
L 265.181382 142.664463 
L 265.252679 142.822575 
L 265.374902 142.970459 
L 265.456384 143.123079 
L 265.50731 143.0572 
L 265.568422 143.157716 
L 265.761942 143.716919 
L 265.843424 143.598316 
L 266.301761 142.047597 
L 266.393429 142.206309 
L 266.648061 142.78401 
L 266.658246 142.779323 
L 266.963804 142.081645 
L 267.18788 141.557444 
L 267.248992 141.678092 
L 267.3814 142.402884 
L 267.636032 143.666993 
L 267.788811 143.749867 
L 267.809181 143.717267 
L 268.023072 143.564265 
L 268.145295 143.546312 
L 268.369371 142.862428 
L 268.410112 142.965361 
L 268.491594 143.194076 
L 268.562891 143.1241 
L 268.664744 142.989189 
L 269.041599 142.244209 
L 269.072155 142.293572 
L 269.316601 142.953951 
L 269.408269 143.060723 
L 269.44901 142.981934 
L 269.64253 142.782689 
L 269.6629 142.808791 
L 269.754568 143.238119 
L 269.968459 144.178902 
L 269.988829 144.160144 
L 270.518463 143.103556 
L 270.599945 143.314379 
L 270.640686 143.359932 
L 270.711983 143.314952 
L 270.874948 143.151896 
L 270.936059 143.228544 
L 271.058282 143.350403 
L 271.099023 143.261052 
L 271.211061 142.772371 
L 271.36384 141.758568 
L 271.465693 141.898154 
L 271.51662 142.0549 
L 271.638843 142.390128 
L 271.689769 142.322753 
L 271.750881 142.25472 
L 271.791622 142.357956 
L 272.025883 143.992051 
L 272.249959 144.754516 
L 272.392553 144.614348 
L 272.453664 144.498228 
L 272.535146 144.55101 
L 272.647184 144.697678 
L 272.698111 144.627479 
L 272.840705 144.3619 
L 272.891631 144.220696 
L 272.983298 144.245244 
L 273.003669 144.222445 
L 273.054595 144.322844 
L 273.21756 144.544242 
L 273.227745 144.53084 
L 273.716638 143.974326 
L 274.134234 143.958316 
L 274.266642 143.728579 
L 274.287013 143.765969 
L 274.399051 144.408492 
L 274.694424 146.068563 
L 275.071279 146.090535 
L 275.336096 146.260922 
L 275.356466 146.235573 
L 275.570357 146.158342 
L 275.702765 146.08733 
L 275.855544 145.367637 
L 276.089806 144.193791 
L 276.436105 143.971862 
L 276.670366 142.143334 
L 276.721292 142.493211 
L 277.047221 145.519312 
L 277.220371 145.884618 
L 277.271297 145.816898 
L 277.58704 144.501074 
L 277.76019 143.6578 
L 277.811116 143.729904 
L 277.892598 144.023736 
L 278.086118 144.445005 
L 278.269453 144.301009 
L 278.381491 144.256904 
L 278.401862 144.300035 
L 278.717605 145.019229 
L 278.931496 144.892983 
L 279.033349 144.904967 
L 279.043534 144.912585 
L 279.196313 145.032253 
L 279.237054 145.00402 
L 279.369462 144.856039 
L 279.471315 144.916039 
L 279.705576 144.971931 
L 279.817614 144.819091 
L 280.051876 144.33038 
L 280.153728 144.087586 
L 280.21484 144.161857 
L 280.571324 144.923392 
L 280.622251 144.849704 
L 280.876882 144.221085 
L 281.029661 144.361096 
L 281.172255 144.474966 
L 281.202811 144.450992 
L 281.52874 144.559229 
L 281.691704 145.086906 
L 281.885224 145.476635 
L 281.997262 145.3272 
L 282.598193 144.530426 
L 282.638934 144.58216 
L 282.679675 144.614164 
L 282.740787 144.535613 
L 282.88338 144.43752 
L 283.025974 144.182689 
L 283.066715 144.261785 
L 283.239865 144.684526 
L 283.311162 144.47446 
L 283.453756 144.242923 
L 283.474126 144.254558 
L 283.525052 144.459015 
L 283.688017 144.809089 
L 283.698202 144.793027 
L 283.891722 144.062644 
L 283.993575 144.281212 
L 284.492653 145.702831 
L 284.625062 145.616346 
L 284.859323 145.629322 
L 285.12414 145.791714 
L 285.205622 145.897733 
L 285.256548 145.837562 
L 285.388957 145.226428 
L 285.49081 144.946253 
L 285.531551 145.075697 
L 285.714885 145.478058 
L 285.735256 145.460793 
L 285.826923 145.390149 
L 285.857479 145.422801 
L 286.07137 145.812922 
L 286.43804 147.036698 
L 286.621374 146.9993 
L 287.028785 146.585928 
L 287.232491 146.492042 
L 287.293602 146.323535 
L 287.446381 145.900298 
L 287.487122 145.978235 
L 287.639901 146.113902 
L 287.711198 146.026218 
L 287.904718 145.644715 
L 287.94546 145.701884 
L 288.210277 146.212275 
L 288.322315 146.352913 
L 288.373241 146.327671 
L 288.923245 146.121268 
L 289.014913 146.19181 
L 289.055654 146.104729 
L 289.401953 144.993699 
L 289.66677 143.161549 
L 289.697326 143.184578 
L 289.768623 143.221292 
L 289.799179 143.155197 
L 289.962143 142.669164 
L 290.002884 142.788003 
L 290.257516 144.359275 
L 290.359368 144.241812 
L 290.430665 144.106083 
L 290.624185 143.765271 
L 290.634371 143.772647 
L 290.736223 143.914717 
L 291.143634 144.741829 
L 291.214931 144.569707 
L 291.357525 144.316068 
L 291.398266 144.373954 
L 291.439007 144.391812 
L 291.479748 144.318896 
L 291.581601 144.088648 
L 291.744565 143.621969 
L 291.775121 143.676614 
L 291.846418 143.855394 
L 291.917715 143.767591 
L 291.968641 143.748945 
L 292.009382 143.830105 
L 292.304755 144.681687 
L 292.396422 144.576816 
L 292.610313 143.983606 
L 292.763092 143.697902 
L 292.783463 143.716228 
L 292.946427 144.250122 
L 293.26217 145.026644 
L 293.364023 144.940367 
L 294.036251 143.940003 
L 294.260327 143.974625 
L 294.494588 143.802321 
L 294.606626 143.588674 
L 294.789961 143.291528 
L 294.810331 143.306857 
L 295.126075 143.959853 
L 295.32978 144.563387 
L 295.452003 144.551208 
L 295.625153 144.582934 
L 295.727006 144.67757 
L 295.869599 144.662022 
L 296.032564 144.402707 
L 296.144602 144.297927 
L 296.175157 144.316371 
L 296.297381 144.586234 
L 296.439974 144.642949 
L 296.572383 144.608321 
L 296.857571 144.277603 
L 296.939053 144.382766 
L 296.969608 144.272168 
L 297.122388 144.087485 
L 297.183499 144.237866 
L 297.39739 144.686772 
L 297.825171 144.848761 
L 298.008506 145.154918 
L 298.018691 145.149974 
L 298.110359 145.153958 
L 298.130729 145.18903 
L 298.293694 145.329964 
L 298.303879 145.324659 
L 298.415917 145.150705 
L 298.578881 144.395511 
L 298.752031 143.482031 
L 298.772401 143.538904 
L 298.976107 144.011819 
L 298.986292 144.002425 
L 299.027033 143.959559 
L 299.077959 144.032623 
L 299.281665 144.220868 
L 299.953892 144.450133 
L 300.330747 144.489028 
L 301.603906 144.12467 
L 301.909464 144.310555 
L 302.388172 144.299823 
L 302.591877 144.339483 
L 303.182623 144.180827 
L 303.64096 144.261682 
L 304.00763 144.254761 
L 304.353929 144.381362 
L 304.76134 144.49287 
L 305.250233 144.453991 
L 306.003943 144.307548 
L 306.350242 144.228329 
L 306.747467 144.375473 
L 307.348398 144.382506 
L 307.77618 144.459765 
L 308.040997 144.376898 
L 308.560445 144.267306 
L 308.896559 144.370405 
L 309.741937 144.720042 
L 310.078051 144.713331 
L 310.403979 144.584291 
L 311.300283 144.672553 
L 311.870658 144.828562 
L 312.644739 144.652357 
L 313.347522 144.456158 
L 314.732719 144.785577 
L 315.313279 144.482334 
L 315.700319 144.526623 
L 316.932737 144.56549 
L 318.521639 144.431881 
L 319.051273 144.609884 
L 320.772584 144.634236 
L 321.129068 144.785525 
L 321.872593 144.851435 
L 322.249448 144.859271 
L 323.329086 144.822955 
L 323.756868 144.929449 
L 324.082796 144.954753 
L 324.968915 144.66559 
L 325.92633 144.764221 
L 326.578187 144.548044 
L 327.189304 144.360745 
L 327.647641 144.552209 
L 327.99394 144.587051 
L 328.5745 144.382469 
L 329.440248 144.353356 
L 329.745806 144.441293 
L 330.407849 144.495906 
L 331.181929 144.447537 
L 331.456932 144.424277 
L 331.874528 144.433189 
L 332.210642 144.418638 
L 332.587497 144.344263 
L 333.300465 144.450164 
L 333.636579 144.342734 
L 334.960664 144.194784 
L 336.060674 144.222458 
L 336.529196 144.085918 
L 336.926421 143.975294 
L 337.262535 143.950317 
L 338.016245 144.14363 
L 338.474582 144.014431 
L 339.085699 143.970367 
L 340.328302 144.166153 
L 341.438496 144.273806 
L 342.019056 144.254454 
L 342.691284 144.099819 
L 342.976472 144.12718 
L 343.261659 144.13354 
L 343.923702 144.177702 
L 344.585744 144.095744 
L 344.98297 144.060914 
L 346.734836 144.071714 
L 347.295026 143.981105 
L 347.906142 143.990853 
L 348.710778 144.013896 
L 350.075605 143.8591 
L 350.768203 143.796002 
L 351.114502 143.835473 
L 351.532098 143.852851 
L 354.088601 143.741318 
L 355.38213 143.825396 
L 356.033987 143.692233 
L 356.624733 143.770036 
L 357.021959 143.786183 
L 358.101597 143.640217 
L 358.478452 143.594711 
L 359.527535 143.599626 
L 360.301615 143.561011 
L 365.18036 143.25641 
L 365.903514 143.314869 
L 367.298896 143.282011 
L 368.185014 143.239328 
L 368.908168 143.314622 
L 371.688747 143.129386 
L 372.391531 143.164243 
L 373.868395 143.211112 
L 374.479511 143.276607 
L 375.426741 143.374086 
L 377.005458 143.371082 
L 377.748982 143.365054 
L 378.889733 143.375728 
L 380.193447 143.354899 
L 382.230501 143.227625 
L 383.758292 143.221812 
L 387.995364 143.267288 
L 388.8 143.28 
L 388.8 143.28 
" style="fill:none;stroke:#1f77b4;stroke-linecap:square;stroke-width:1.5;"/>
   </g>
   <g id="patch_3">
    <path d="M 54 252 
L 54 34.56 
" style="fill:none;stroke:#000000;stroke-linecap:square;stroke-linejoin:miter;stroke-width:0.8;"/>
   </g>
   <g id="patch_4">
    <path d="M 388.8 252 
L 388.8 34.56 
" style="fill:none;stroke:#000000;stroke-linecap:square;stroke-linejoin:miter;stroke-width:0.8;"/>
   </g>
   <g id="patch_5">
    <path d="M 54 252 
L 388.8 252 
" style="fill:none;stroke:#000000;stroke-linecap:square;stroke-linejoin:miter;stroke-width:0.8;"/>
   </g>
   <g id="patch_6">
    <path d="M 54 34.56 
L 388.8 34.56 
" style="fill:none;stroke:#000000;stroke-linecap:square;stroke-linejoin:miter;stroke-width:0.8;"/>
   </g>
  </g>
 </g>
 <defs>
  <clipPath id="p5820990523">
   <rect height="217.44" width="334.8" x="54" y="34.56"/>
  </clipPath>
 </defs>
</svg>
