<?xml version="1.0" encoding="utf-8" standalone="no"?>
<!DOCTYPE svg PUBLIC "-//W3C//DTD SVG 1.1//EN"
  "http://www.w3.org/Graphics/SVG/1.1/DTD/svg11.dtd">
<!-- Created with matplotlib (https://matplotlib.org/) -->
<svg height="288pt" version="1.1" viewBox="0 0 432 288" width="432pt" xmlns="http://www.w3.org/2000/svg" xmlns:xlink="http://www.w3.org/1999/xlink">
 <defs>
  <style type="text/css">
*{stroke-linecap:butt;stroke-linejoin:round;}
  </style>
 </defs>
 <g id="figure_1">
  <g id="patch_1">
   <path d="M 0 288 
L 432 288 
L 432 0 
L 0 0 
z
" style="fill:#ffffff;"/>
  </g>
  <g id="axes_1">
   <g id="patch_2">
    <path d="M 54 98.512941 
L 388.8 98.512941 
L 388.8 34.56 
L 54 34.56 
z
" style="fill:#ffffff;"/>
   </g>
   <g id="matplotlib.axis_1">
    <g id="xtick_1">
     <g id="line2d_1">
      <defs>
       <path d="M 0 0 
L 0 3.5 
" id="m73be49eda1" style="stroke:#000000;stroke-width:0.8;"/>
      </defs>
      <g>
       <use style="stroke:#000000;stroke-width:0.8;" x="54" xlink:href="#m73be49eda1" y="98.512941"/>
      </g>
     </g>
    </g>
    <g id="xtick_2">
     <g id="line2d_2">
      <g>
       <use style="stroke:#000000;stroke-width:0.8;" x="114.872727" xlink:href="#m73be49eda1" y="98.512941"/>
      </g>
     </g>
    </g>
    <g id="xtick_3">
     <g id="line2d_3">
      <g>
       <use style="stroke:#000000;stroke-width:0.8;" x="175.745455" xlink:href="#m73be49eda1" y="98.512941"/>
      </g>
     </g>
    </g>
    <g id="xtick_4">
     <g id="line2d_4">
      <g>
       <use style="stroke:#000000;stroke-width:0.8;" x="236.618182" xlink:href="#m73be49eda1" y="98.512941"/>
      </g>
     </g>
    </g>
    <g id="xtick_5">
     <g id="line2d_5">
      <g>
       <use style="stroke:#000000;stroke-width:0.8;" x="297.490909" xlink:href="#m73be49eda1" y="98.512941"/>
      </g>
     </g>
    </g>
    <g id="xtick_6">
     <g id="line2d_6">
      <g>
       <use style="stroke:#000000;stroke-width:0.8;" x="358.363636" xlink:href="#m73be49eda1" y="98.512941"/>
      </g>
     </g>
    </g>
   </g>
   <g id="matplotlib.axis_2">
    <g id="ytick_1">
     <g id="line2d_7">
      <defs>
       <path d="M 0 0 
L -3.5 0 
" id="m27819b0bdf" style="stroke:#000000;stroke-width:0.8;"/>
      </defs>
      <g>
       <use style="stroke:#000000;stroke-width:0.8;" x="54" xlink:href="#m27819b0bdf" y="78.275231"/>
      </g>
     </g>
     <g id="text_1">
      <!-- 1.0 -->
      <defs>
       <path d="M 12.40625 8.296875 
L 28.515625 8.296875 
L 28.515625 63.921875 
L 10.984375 60.40625 
L 10.984375 69.390625 
L 28.421875 72.90625 
L 38.28125 72.90625 
L 38.28125 8.296875 
L 54.390625 8.296875 
L 54.390625 0 
L 12.40625 0 
z
" id="DejaVuSans-49"/>
       <path d="M 10.6875 12.40625 
L 21 12.40625 
L 21 0 
L 10.6875 0 
z
" id="DejaVuSans-46"/>
       <path d="M 31.78125 66.40625 
Q 24.171875 66.40625 20.328125 58.90625 
Q 16.5 51.421875 16.5 36.375 
Q 16.5 21.390625 20.328125 13.890625 
Q 24.171875 6.390625 31.78125 6.390625 
Q 39.453125 6.390625 43.28125 13.890625 
Q 47.125 21.390625 47.125 36.375 
Q 47.125 51.421875 43.28125 58.90625 
Q 39.453125 66.40625 31.78125 66.40625 
z
M 31.78125 74.21875 
Q 44.046875 74.21875 50.515625 64.515625 
Q 56.984375 54.828125 56.984375 36.375 
Q 56.984375 17.96875 50.515625 8.265625 
Q 44.046875 -1.421875 31.78125 -1.421875 
Q 19.53125 -1.421875 13.0625 8.265625 
Q 6.59375 17.96875 6.59375 36.375 
Q 6.59375 54.828125 13.0625 64.515625 
Q 19.53125 74.21875 31.78125 74.21875 
z
" id="DejaVuSans-48"/>
      </defs>
      <g transform="translate(31.096875 82.07445)scale(0.1 -0.1)">
       <use xlink:href="#DejaVuSans-49"/>
       <use x="63.623047" xlink:href="#DejaVuSans-46"/>
       <use x="95.410156" xlink:href="#DejaVuSans-48"/>
      </g>
     </g>
    </g>
    <g id="ytick_2">
     <g id="line2d_8">
      <g>
       <use style="stroke:#000000;stroke-width:0.8;" x="54" xlink:href="#m27819b0bdf" y="54.293557"/>
      </g>
     </g>
     <g id="text_2">
      <!-- 1.5 -->
      <defs>
       <path d="M 10.796875 72.90625 
L 49.515625 72.90625 
L 49.515625 64.59375 
L 19.828125 64.59375 
L 19.828125 46.734375 
Q 21.96875 47.46875 24.109375 47.828125 
Q 26.265625 48.1875 28.421875 48.1875 
Q 40.625 48.1875 47.75 41.5 
Q 54.890625 34.8125 54.890625 23.390625 
Q 54.890625 11.625 47.5625 5.09375 
Q 40.234375 -1.421875 26.90625 -1.421875 
Q 22.3125 -1.421875 17.546875 -0.640625 
Q 12.796875 0.140625 7.71875 1.703125 
L 7.71875 11.625 
Q 12.109375 9.234375 16.796875 8.0625 
Q 21.484375 6.890625 26.703125 6.890625 
Q 35.15625 6.890625 40.078125 11.328125 
Q 45.015625 15.765625 45.015625 23.390625 
Q 45.015625 31 40.078125 35.4375 
Q 35.15625 39.890625 26.703125 39.890625 
Q 22.75 39.890625 18.8125 39.015625 
Q 14.890625 38.140625 10.796875 36.28125 
z
" id="DejaVuSans-53"/>
      </defs>
      <g transform="translate(31.096875 58.092775)scale(0.1 -0.1)">
       <use xlink:href="#DejaVuSans-49"/>
       <use x="63.623047" xlink:href="#DejaVuSans-46"/>
       <use x="95.410156" xlink:href="#DejaVuSans-53"/>
      </g>
     </g>
    </g>
   </g>
   <g id="line2d_9">
    <path clip-path="url(#pfb1acdf5ff)" d="M 54 95.603906 
L 69.218182 95.603906 
L 84.436364 95.603906 
L 99.654545 95.603906 
L 114.872727 95.603906 
L 130.090909 95.603906 
L 145.309091 95.603907 
L 160.527273 95.603908 
L 175.745455 95.603912 
L 190.963636 95.603924 
L 206.181818 95.603961 
L 221.4 95.604073 
L 236.618182 95.604416 
L 251.836364 95.605445 
L 267.054545 95.605989 
L 282.272727 95.605688 
L 297.490909 95.601091 
L 312.709091 95.564723 
L 327.927273 94.763096 
L 343.145455 85.825554 
L 358.363636 37.466952 
L 373.581818 37.466952 
L 388.8 37.466952 
" style="fill:none;stroke:#1f77b4;stroke-dasharray:5.55,2.4;stroke-dashoffset:0;stroke-width:1.5;"/>
    <defs>
     <path d="M 0 1.5 
C 0.397805 1.5 0.77937 1.341951 1.06066 1.06066 
C 1.341951 0.77937 1.5 0.397805 1.5 0 
C 1.5 -0.397805 1.341951 -0.77937 1.06066 -1.06066 
C 0.77937 -1.341951 0.397805 -1.5 0 -1.5 
C -0.397805 -1.5 -0.77937 -1.341951 -1.06066 -1.06066 
C -1.341951 -0.77937 -1.5 -0.397805 -1.5 0 
C -1.5 0.397805 -1.341951 0.77937 -1.06066 1.06066 
C -0.77937 1.341951 -0.397805 1.5 0 1.5 
z
" id="m34accab4a9" style="stroke:#1f77b4;"/>
    </defs>
    <g clip-path="url(#pfb1acdf5ff)">
     <use style="fill:#1f77b4;stroke:#1f77b4;" x="54" xlink:href="#m34accab4a9" y="95.603906"/>
     <use style="fill:#1f77b4;stroke:#1f77b4;" x="69.218182" xlink:href="#m34accab4a9" y="95.603906"/>
     <use style="fill:#1f77b4;stroke:#1f77b4;" x="84.436364" xlink:href="#m34accab4a9" y="95.603906"/>
     <use style="fill:#1f77b4;stroke:#1f77b4;" x="99.654545" xlink:href="#m34accab4a9" y="95.603906"/>
     <use style="fill:#1f77b4;stroke:#1f77b4;" x="114.872727" xlink:href="#m34accab4a9" y="95.603906"/>
     <use style="fill:#1f77b4;stroke:#1f77b4;" x="130.090909" xlink:href="#m34accab4a9" y="95.603906"/>
     <use style="fill:#1f77b4;stroke:#1f77b4;" x="145.309091" xlink:href="#m34accab4a9" y="95.603907"/>
     <use style="fill:#1f77b4;stroke:#1f77b4;" x="160.527273" xlink:href="#m34accab4a9" y="95.603908"/>
     <use style="fill:#1f77b4;stroke:#1f77b4;" x="175.745455" xlink:href="#m34accab4a9" y="95.603912"/>
     <use style="fill:#1f77b4;stroke:#1f77b4;" x="190.963636" xlink:href="#m34accab4a9" y="95.603924"/>
     <use style="fill:#1f77b4;stroke:#1f77b4;" x="206.181818" xlink:href="#m34accab4a9" y="95.603961"/>
     <use style="fill:#1f77b4;stroke:#1f77b4;" x="221.4" xlink:href="#m34accab4a9" y="95.604073"/>
     <use style="fill:#1f77b4;stroke:#1f77b4;" x="236.618182" xlink:href="#m34accab4a9" y="95.604416"/>
     <use style="fill:#1f77b4;stroke:#1f77b4;" x="251.836364" xlink:href="#m34accab4a9" y="95.605445"/>
     <use style="fill:#1f77b4;stroke:#1f77b4;" x="267.054545" xlink:href="#m34accab4a9" y="95.605989"/>
     <use style="fill:#1f77b4;stroke:#1f77b4;" x="282.272727" xlink:href="#m34accab4a9" y="95.605688"/>
     <use style="fill:#1f77b4;stroke:#1f77b4;" x="297.490909" xlink:href="#m34accab4a9" y="95.601091"/>
     <use style="fill:#1f77b4;stroke:#1f77b4;" x="312.709091" xlink:href="#m34accab4a9" y="95.564723"/>
     <use style="fill:#1f77b4;stroke:#1f77b4;" x="327.927273" xlink:href="#m34accab4a9" y="94.763096"/>
     <use style="fill:#1f77b4;stroke:#1f77b4;" x="343.145455" xlink:href="#m34accab4a9" y="85.825554"/>
     <use style="fill:#1f77b4;stroke:#1f77b4;" x="358.363636" xlink:href="#m34accab4a9" y="37.466952"/>
     <use style="fill:#1f77b4;stroke:#1f77b4;" x="373.581818" xlink:href="#m34accab4a9" y="37.466952"/>
     <use style="fill:#1f77b4;stroke:#1f77b4;" x="388.8" xlink:href="#m34accab4a9" y="37.466952"/>
    </g>
   </g>
   <g id="patch_3">
    <path d="M 54 98.512941 
L 54 34.56 
" style="fill:none;stroke:#000000;stroke-linecap:square;stroke-linejoin:miter;stroke-width:0.8;"/>
   </g>
   <g id="patch_4">
    <path d="M 388.8 98.512941 
L 388.8 34.56 
" style="fill:none;stroke:#000000;stroke-linecap:square;stroke-linejoin:miter;stroke-width:0.8;"/>
   </g>
   <g id="patch_5">
    <path d="M 54 98.512941 
L 388.8 98.512941 
" style="fill:none;stroke:#000000;stroke-linecap:square;stroke-linejoin:miter;stroke-width:0.8;"/>
   </g>
   <g id="patch_6">
    <path d="M 54 34.56 
L 388.8 34.56 
" style="fill:none;stroke:#000000;stroke-linecap:square;stroke-linejoin:miter;stroke-width:0.8;"/>
   </g>
   <g id="legend_1">
    <g id="patch_7">
     <path d="M 61 57.238125 
L 121.24375 57.238125 
Q 123.24375 57.238125 123.24375 55.238125 
L 123.24375 41.56 
Q 123.24375 39.56 121.24375 39.56 
L 61 39.56 
Q 59 39.56 59 41.56 
L 59 55.238125 
Q 59 57.238125 61 57.238125 
z
" style="fill:#ffffff;opacity:0.8;stroke:#cccccc;stroke-linejoin:miter;"/>
    </g>
    <g id="line2d_10">
     <path d="M 63 47.658437 
L 83 47.658437 
" style="fill:none;stroke:#1f77b4;stroke-dasharray:5.55,2.4;stroke-dashoffset:0;stroke-width:1.5;"/>
    </g>
    <g id="line2d_11">
     <g>
      <use style="fill:#1f77b4;stroke:#1f77b4;" x="73" xlink:href="#m34accab4a9" y="47.658437"/>
     </g>
    </g>
    <g id="text_3">
     <!-- RMSE -->
     <defs>
      <path d="M 44.390625 34.1875 
Q 47.5625 33.109375 50.5625 29.59375 
Q 53.5625 26.078125 56.59375 19.921875 
L 66.609375 0 
L 56 0 
L 46.6875 18.703125 
Q 43.0625 26.03125 39.671875 28.421875 
Q 36.28125 30.8125 30.421875 30.8125 
L 19.671875 30.8125 
L 19.671875 0 
L 9.8125 0 
L 9.8125 72.90625 
L 32.078125 72.90625 
Q 44.578125 72.90625 50.734375 67.671875 
Q 56.890625 62.453125 56.890625 51.90625 
Q 56.890625 45.015625 53.6875 40.46875 
Q 50.484375 35.9375 44.390625 34.1875 
z
M 19.671875 64.796875 
L 19.671875 38.921875 
L 32.078125 38.921875 
Q 39.203125 38.921875 42.84375 42.21875 
Q 46.484375 45.515625 46.484375 51.90625 
Q 46.484375 58.296875 42.84375 61.546875 
Q 39.203125 64.796875 32.078125 64.796875 
z
" id="DejaVuSans-82"/>
      <path d="M 9.8125 72.90625 
L 24.515625 72.90625 
L 43.109375 23.296875 
L 61.8125 72.90625 
L 76.515625 72.90625 
L 76.515625 0 
L 66.890625 0 
L 66.890625 64.015625 
L 48.09375 14.015625 
L 38.1875 14.015625 
L 19.390625 64.015625 
L 19.390625 0 
L 9.8125 0 
z
" id="DejaVuSans-77"/>
      <path d="M 53.515625 70.515625 
L 53.515625 60.890625 
Q 47.90625 63.578125 42.921875 64.890625 
Q 37.9375 66.21875 33.296875 66.21875 
Q 25.25 66.21875 20.875 63.09375 
Q 16.5 59.96875 16.5 54.203125 
Q 16.5 49.359375 19.40625 46.890625 
Q 22.3125 44.4375 30.421875 42.921875 
L 36.375 41.703125 
Q 47.40625 39.59375 52.65625 34.296875 
Q 57.90625 29 57.90625 20.125 
Q 57.90625 9.515625 50.796875 4.046875 
Q 43.703125 -1.421875 29.984375 -1.421875 
Q 24.8125 -1.421875 18.96875 -0.25 
Q 13.140625 0.921875 6.890625 3.21875 
L 6.890625 13.375 
Q 12.890625 10.015625 18.65625 8.296875 
Q 24.421875 6.59375 29.984375 6.59375 
Q 38.421875 6.59375 43.015625 9.90625 
Q 47.609375 13.234375 47.609375 19.390625 
Q 47.609375 24.75 44.3125 27.78125 
Q 41.015625 30.8125 33.5 32.328125 
L 27.484375 33.5 
Q 16.453125 35.6875 11.515625 40.375 
Q 6.59375 45.0625 6.59375 53.421875 
Q 6.59375 63.09375 13.40625 68.65625 
Q 20.21875 74.21875 32.171875 74.21875 
Q 37.3125 74.21875 42.625 73.28125 
Q 47.953125 72.359375 53.515625 70.515625 
z
" id="DejaVuSans-83"/>
      <path d="M 9.8125 72.90625 
L 55.90625 72.90625 
L 55.90625 64.59375 
L 19.671875 64.59375 
L 19.671875 43.015625 
L 54.390625 43.015625 
L 54.390625 34.71875 
L 19.671875 34.71875 
L 19.671875 8.296875 
L 56.78125 8.296875 
L 56.78125 0 
L 9.8125 0 
z
" id="DejaVuSans-69"/>
     </defs>
     <g transform="translate(91 51.158437)scale(0.1 -0.1)">
      <use xlink:href="#DejaVuSans-82"/>
      <use x="69.482422" xlink:href="#DejaVuSans-77"/>
      <use x="155.761719" xlink:href="#DejaVuSans-83"/>
      <use x="219.238281" xlink:href="#DejaVuSans-69"/>
     </g>
    </g>
   </g>
  </g>
  <g id="axes_2">
   <g id="patch_8">
    <path d="M 54 252 
L 388.8 252 
L 388.8 111.303529 
L 54 111.303529 
z
" style="fill:#ffffff;"/>
   </g>
   <g id="matplotlib.axis_3">
    <g id="xtick_7">
     <g id="line2d_12">
      <g>
       <use style="stroke:#000000;stroke-width:0.8;" x="54" xlink:href="#m73be49eda1" y="252"/>
      </g>
     </g>
     <g id="text_4">
      <!-- $\mathdefault{10^{-10}}$ -->
      <defs>
       <path d="M 10.59375 35.5 
L 73.1875 35.5 
L 73.1875 27.203125 
L 10.59375 27.203125 
z
" id="DejaVuSans-8722"/>
      </defs>
      <g transform="translate(40.05 266.598437)scale(0.1 -0.1)">
       <use transform="translate(0 0.765625)" xlink:href="#DejaVuSans-49"/>
       <use transform="translate(63.623047 0.765625)" xlink:href="#DejaVuSans-48"/>
       <use transform="translate(128.203125 39.046875)scale(0.7)" xlink:href="#DejaVuSans-8722"/>
       <use transform="translate(186.855469 39.046875)scale(0.7)" xlink:href="#DejaVuSans-49"/>
       <use transform="translate(231.391602 39.046875)scale(0.7)" xlink:href="#DejaVuSans-48"/>
      </g>
     </g>
    </g>
    <g id="xtick_8">
     <g id="line2d_13">
      <g>
       <use style="stroke:#000000;stroke-width:0.8;" x="114.872727" xlink:href="#m73be49eda1" y="252"/>
      </g>
     </g>
     <g id="text_5">
      <!-- $\mathdefault{10^{-8}}$ -->
      <defs>
       <path d="M 31.78125 34.625 
Q 24.75 34.625 20.71875 30.859375 
Q 16.703125 27.09375 16.703125 20.515625 
Q 16.703125 13.921875 20.71875 10.15625 
Q 24.75 6.390625 31.78125 6.390625 
Q 38.8125 6.390625 42.859375 10.171875 
Q 46.921875 13.96875 46.921875 20.515625 
Q 46.921875 27.09375 42.890625 30.859375 
Q 38.875 34.625 31.78125 34.625 
z
M 21.921875 38.8125 
Q 15.578125 40.375 12.03125 44.71875 
Q 8.5 49.078125 8.5 55.328125 
Q 8.5 64.0625 14.71875 69.140625 
Q 20.953125 74.21875 31.78125 74.21875 
Q 42.671875 74.21875 48.875 69.140625 
Q 55.078125 64.0625 55.078125 55.328125 
Q 55.078125 49.078125 51.53125 44.71875 
Q 48 40.375 41.703125 38.8125 
Q 48.828125 37.15625 52.796875 32.3125 
Q 56.78125 27.484375 56.78125 20.515625 
Q 56.78125 9.90625 50.3125 4.234375 
Q 43.84375 -1.421875 31.78125 -1.421875 
Q 19.734375 -1.421875 13.25 4.234375 
Q 6.78125 9.90625 6.78125 20.515625 
Q 6.78125 27.484375 10.78125 32.3125 
Q 14.796875 37.15625 21.921875 38.8125 
z
M 18.3125 54.390625 
Q 18.3125 48.734375 21.84375 45.5625 
Q 25.390625 42.390625 31.78125 42.390625 
Q 38.140625 42.390625 41.71875 45.5625 
Q 45.3125 48.734375 45.3125 54.390625 
Q 45.3125 60.0625 41.71875 63.234375 
Q 38.140625 66.40625 31.78125 66.40625 
Q 25.390625 66.40625 21.84375 63.234375 
Q 18.3125 60.0625 18.3125 54.390625 
z
" id="DejaVuSans-56"/>
      </defs>
      <g transform="translate(103.122727 266.598437)scale(0.1 -0.1)">
       <use transform="translate(0 0.765625)" xlink:href="#DejaVuSans-49"/>
       <use transform="translate(63.623047 0.765625)" xlink:href="#DejaVuSans-48"/>
       <use transform="translate(128.203125 39.046875)scale(0.7)" xlink:href="#DejaVuSans-8722"/>
       <use transform="translate(186.855469 39.046875)scale(0.7)" xlink:href="#DejaVuSans-56"/>
      </g>
     </g>
    </g>
    <g id="xtick_9">
     <g id="line2d_14">
      <g>
       <use style="stroke:#000000;stroke-width:0.8;" x="175.745455" xlink:href="#m73be49eda1" y="252"/>
      </g>
     </g>
     <g id="text_6">
      <!-- $\mathdefault{10^{-6}}$ -->
      <defs>
       <path d="M 33.015625 40.375 
Q 26.375 40.375 22.484375 35.828125 
Q 18.609375 31.296875 18.609375 23.390625 
Q 18.609375 15.53125 22.484375 10.953125 
Q 26.375 6.390625 33.015625 6.390625 
Q 39.65625 6.390625 43.53125 10.953125 
Q 47.40625 15.53125 47.40625 23.390625 
Q 47.40625 31.296875 43.53125 35.828125 
Q 39.65625 40.375 33.015625 40.375 
z
M 52.59375 71.296875 
L 52.59375 62.3125 
Q 48.875 64.0625 45.09375 64.984375 
Q 41.3125 65.921875 37.59375 65.921875 
Q 27.828125 65.921875 22.671875 59.328125 
Q 17.53125 52.734375 16.796875 39.40625 
Q 19.671875 43.65625 24.015625 45.921875 
Q 28.375 48.1875 33.59375 48.1875 
Q 44.578125 48.1875 50.953125 41.515625 
Q 57.328125 34.859375 57.328125 23.390625 
Q 57.328125 12.15625 50.6875 5.359375 
Q 44.046875 -1.421875 33.015625 -1.421875 
Q 20.359375 -1.421875 13.671875 8.265625 
Q 6.984375 17.96875 6.984375 36.375 
Q 6.984375 53.65625 15.1875 63.9375 
Q 23.390625 74.21875 37.203125 74.21875 
Q 40.921875 74.21875 44.703125 73.484375 
Q 48.484375 72.75 52.59375 71.296875 
z
" id="DejaVuSans-54"/>
      </defs>
      <g transform="translate(163.995455 266.598437)scale(0.1 -0.1)">
       <use transform="translate(0 0.765625)" xlink:href="#DejaVuSans-49"/>
       <use transform="translate(63.623047 0.765625)" xlink:href="#DejaVuSans-48"/>
       <use transform="translate(128.203125 39.046875)scale(0.7)" xlink:href="#DejaVuSans-8722"/>
       <use transform="translate(186.855469 39.046875)scale(0.7)" xlink:href="#DejaVuSans-54"/>
      </g>
     </g>
    </g>
    <g id="xtick_10">
     <g id="line2d_15">
      <g>
       <use style="stroke:#000000;stroke-width:0.8;" x="236.618182" xlink:href="#m73be49eda1" y="252"/>
      </g>
     </g>
     <g id="text_7">
      <!-- $\mathdefault{10^{-4}}$ -->
      <defs>
       <path d="M 37.796875 64.3125 
L 12.890625 25.390625 
L 37.796875 25.390625 
z
M 35.203125 72.90625 
L 47.609375 72.90625 
L 47.609375 25.390625 
L 58.015625 25.390625 
L 58.015625 17.1875 
L 47.609375 17.1875 
L 47.609375 0 
L 37.796875 0 
L 37.796875 17.1875 
L 4.890625 17.1875 
L 4.890625 26.703125 
z
" id="DejaVuSans-52"/>
      </defs>
      <g transform="translate(224.868182 266.598437)scale(0.1 -0.1)">
       <use transform="translate(0 0.684375)" xlink:href="#DejaVuSans-49"/>
       <use transform="translate(63.623047 0.684375)" xlink:href="#DejaVuSans-48"/>
       <use transform="translate(128.203125 38.965625)scale(0.7)" xlink:href="#DejaVuSans-8722"/>
       <use transform="translate(186.855469 38.965625)scale(0.7)" xlink:href="#DejaVuSans-52"/>
      </g>
     </g>
    </g>
    <g id="xtick_11">
     <g id="line2d_16">
      <g>
       <use style="stroke:#000000;stroke-width:0.8;" x="297.490909" xlink:href="#m73be49eda1" y="252"/>
      </g>
     </g>
     <g id="text_8">
      <!-- $\mathdefault{10^{-2}}$ -->
      <defs>
       <path d="M 19.1875 8.296875 
L 53.609375 8.296875 
L 53.609375 0 
L 7.328125 0 
L 7.328125 8.296875 
Q 12.9375 14.109375 22.625 23.890625 
Q 32.328125 33.6875 34.8125 36.53125 
Q 39.546875 41.84375 41.421875 45.53125 
Q 43.3125 49.21875 43.3125 52.78125 
Q 43.3125 58.59375 39.234375 62.25 
Q 35.15625 65.921875 28.609375 65.921875 
Q 23.96875 65.921875 18.8125 64.3125 
Q 13.671875 62.703125 7.8125 59.421875 
L 7.8125 69.390625 
Q 13.765625 71.78125 18.9375 73 
Q 24.125 74.21875 28.421875 74.21875 
Q 39.75 74.21875 46.484375 68.546875 
Q 53.21875 62.890625 53.21875 53.421875 
Q 53.21875 48.921875 51.53125 44.890625 
Q 49.859375 40.875 45.40625 35.40625 
Q 44.1875 33.984375 37.640625 27.21875 
Q 31.109375 20.453125 19.1875 8.296875 
z
" id="DejaVuSans-50"/>
      </defs>
      <g transform="translate(285.740909 266.598437)scale(0.1 -0.1)">
       <use transform="translate(0 0.765625)" xlink:href="#DejaVuSans-49"/>
       <use transform="translate(63.623047 0.765625)" xlink:href="#DejaVuSans-48"/>
       <use transform="translate(128.203125 39.046875)scale(0.7)" xlink:href="#DejaVuSans-8722"/>
       <use transform="translate(186.855469 39.046875)scale(0.7)" xlink:href="#DejaVuSans-50"/>
      </g>
     </g>
    </g>
    <g id="xtick_12">
     <g id="line2d_17">
      <g>
       <use style="stroke:#000000;stroke-width:0.8;" x="358.363636" xlink:href="#m73be49eda1" y="252"/>
      </g>
     </g>
     <g id="text_9">
      <!-- $\mathdefault{10^{0}}$ -->
      <g transform="translate(349.563636 266.598437)scale(0.1 -0.1)">
       <use transform="translate(0 0.765625)" xlink:href="#DejaVuSans-49"/>
       <use transform="translate(63.623047 0.765625)" xlink:href="#DejaVuSans-48"/>
       <use transform="translate(128.203125 39.046875)scale(0.7)" xlink:href="#DejaVuSans-48"/>
      </g>
     </g>
    </g>
    <g id="text_10">
     <!-- alpha -->
     <defs>
      <path d="M 34.28125 27.484375 
Q 23.390625 27.484375 19.1875 25 
Q 14.984375 22.515625 14.984375 16.5 
Q 14.984375 11.71875 18.140625 8.90625 
Q 21.296875 6.109375 26.703125 6.109375 
Q 34.1875 6.109375 38.703125 11.40625 
Q 43.21875 16.703125 43.21875 25.484375 
L 43.21875 27.484375 
z
M 52.203125 31.203125 
L 52.203125 0 
L 43.21875 0 
L 43.21875 8.296875 
Q 40.140625 3.328125 35.546875 0.953125 
Q 30.953125 -1.421875 24.3125 -1.421875 
Q 15.921875 -1.421875 10.953125 3.296875 
Q 6 8.015625 6 15.921875 
Q 6 25.140625 12.171875 29.828125 
Q 18.359375 34.515625 30.609375 34.515625 
L 43.21875 34.515625 
L 43.21875 35.40625 
Q 43.21875 41.609375 39.140625 45 
Q 35.0625 48.390625 27.6875 48.390625 
Q 23 48.390625 18.546875 47.265625 
Q 14.109375 46.140625 10.015625 43.890625 
L 10.015625 52.203125 
Q 14.9375 54.109375 19.578125 55.046875 
Q 24.21875 56 28.609375 56 
Q 40.484375 56 46.34375 49.84375 
Q 52.203125 43.703125 52.203125 31.203125 
z
" id="DejaVuSans-97"/>
      <path d="M 9.421875 75.984375 
L 18.40625 75.984375 
L 18.40625 0 
L 9.421875 0 
z
" id="DejaVuSans-108"/>
      <path d="M 18.109375 8.203125 
L 18.109375 -20.796875 
L 9.078125 -20.796875 
L 9.078125 54.6875 
L 18.109375 54.6875 
L 18.109375 46.390625 
Q 20.953125 51.265625 25.265625 53.625 
Q 29.59375 56 35.59375 56 
Q 45.5625 56 51.78125 48.09375 
Q 58.015625 40.1875 58.015625 27.296875 
Q 58.015625 14.40625 51.78125 6.484375 
Q 45.5625 -1.421875 35.59375 -1.421875 
Q 29.59375 -1.421875 25.265625 0.953125 
Q 20.953125 3.328125 18.109375 8.203125 
z
M 48.6875 27.296875 
Q 48.6875 37.203125 44.609375 42.84375 
Q 40.53125 48.484375 33.40625 48.484375 
Q 26.265625 48.484375 22.1875 42.84375 
Q 18.109375 37.203125 18.109375 27.296875 
Q 18.109375 17.390625 22.1875 11.75 
Q 26.265625 6.109375 33.40625 6.109375 
Q 40.53125 6.109375 44.609375 11.75 
Q 48.6875 17.390625 48.6875 27.296875 
z
" id="DejaVuSans-112"/>
      <path d="M 54.890625 33.015625 
L 54.890625 0 
L 45.90625 0 
L 45.90625 32.71875 
Q 45.90625 40.484375 42.875 44.328125 
Q 39.84375 48.1875 33.796875 48.1875 
Q 26.515625 48.1875 22.3125 43.546875 
Q 18.109375 38.921875 18.109375 30.90625 
L 18.109375 0 
L 9.078125 0 
L 9.078125 75.984375 
L 18.109375 75.984375 
L 18.109375 46.1875 
Q 21.34375 51.125 25.703125 53.5625 
Q 30.078125 56 35.796875 56 
Q 45.21875 56 50.046875 50.171875 
Q 54.890625 44.34375 54.890625 33.015625 
z
" id="DejaVuSans-104"/>
     </defs>
     <g transform="translate(207.539844 280.276563)scale(0.1 -0.1)">
      <use xlink:href="#DejaVuSans-97"/>
      <use x="61.279297" xlink:href="#DejaVuSans-108"/>
      <use x="89.0625" xlink:href="#DejaVuSans-112"/>
      <use x="152.539062" xlink:href="#DejaVuSans-104"/>
      <use x="215.917969" xlink:href="#DejaVuSans-97"/>
     </g>
    </g>
   </g>
   <g id="matplotlib.axis_4">
    <g id="ytick_3">
     <g id="line2d_18">
      <g>
       <use style="stroke:#000000;stroke-width:0.8;" x="54" xlink:href="#m27819b0bdf" y="243.389355"/>
      </g>
     </g>
     <g id="text_11">
      <!-- 0.0 -->
      <g transform="translate(31.096875 247.188574)scale(0.1 -0.1)">
       <use xlink:href="#DejaVuSans-48"/>
       <use x="63.623047" xlink:href="#DejaVuSans-46"/>
       <use x="95.410156" xlink:href="#DejaVuSans-48"/>
      </g>
     </g>
    </g>
    <g id="ytick_4">
     <g id="line2d_19">
      <g>
       <use style="stroke:#000000;stroke-width:0.8;" x="54" xlink:href="#m27819b0bdf" y="216.854735"/>
      </g>
     </g>
     <g id="text_12">
      <!-- 0.2 -->
      <g transform="translate(31.096875 220.653954)scale(0.1 -0.1)">
       <use xlink:href="#DejaVuSans-48"/>
       <use x="63.623047" xlink:href="#DejaVuSans-46"/>
       <use x="95.410156" xlink:href="#DejaVuSans-50"/>
      </g>
     </g>
    </g>
    <g id="ytick_5">
     <g id="line2d_20">
      <g>
       <use style="stroke:#000000;stroke-width:0.8;" x="54" xlink:href="#m27819b0bdf" y="190.320116"/>
      </g>
     </g>
     <g id="text_13">
      <!-- 0.4 -->
      <g transform="translate(31.096875 194.119335)scale(0.1 -0.1)">
       <use xlink:href="#DejaVuSans-48"/>
       <use x="63.623047" xlink:href="#DejaVuSans-46"/>
       <use x="95.410156" xlink:href="#DejaVuSans-52"/>
      </g>
     </g>
    </g>
    <g id="ytick_6">
     <g id="line2d_21">
      <g>
       <use style="stroke:#000000;stroke-width:0.8;" x="54" xlink:href="#m27819b0bdf" y="163.785496"/>
      </g>
     </g>
     <g id="text_14">
      <!-- 0.6 -->
      <g transform="translate(31.096875 167.584715)scale(0.1 -0.1)">
       <use xlink:href="#DejaVuSans-48"/>
       <use x="63.623047" xlink:href="#DejaVuSans-46"/>
       <use x="95.410156" xlink:href="#DejaVuSans-54"/>
      </g>
     </g>
    </g>
    <g id="ytick_7">
     <g id="line2d_22">
      <g>
       <use style="stroke:#000000;stroke-width:0.8;" x="54" xlink:href="#m27819b0bdf" y="137.250877"/>
      </g>
     </g>
     <g id="text_15">
      <!-- 0.8 -->
      <g transform="translate(31.096875 141.050096)scale(0.1 -0.1)">
       <use xlink:href="#DejaVuSans-48"/>
       <use x="63.623047" xlink:href="#DejaVuSans-46"/>
       <use x="95.410156" xlink:href="#DejaVuSans-56"/>
      </g>
     </g>
    </g>
   </g>
   <g id="line2d_23">
    <path clip-path="url(#peca3dd83fd)" d="M 54 245.604706 
L 69.218182 245.604706 
L 84.436364 245.604706 
L 99.654545 245.604705 
L 114.872727 245.604704 
L 130.090909 245.604701 
L 145.309091 245.604691 
L 160.527273 245.604657 
L 175.745455 245.604554 
L 190.963636 245.604227 
L 206.181818 245.603197 
L 221.4 245.599956 
L 236.618182 245.589752 
L 251.836364 245.55762 
L 267.054545 245.466818 
L 282.272727 245.179673 
L 297.490909 244.379876 
L 312.709091 243.389355 
L 327.927273 243.389355 
L 343.145455 243.389355 
L 358.363636 243.389355 
L 373.581818 243.389355 
L 388.8 243.389355 
" style="fill:none;stroke:#1f77b4;stroke-dasharray:5.55,2.4;stroke-dashoffset:0;stroke-width:1.5;"/>
    <g clip-path="url(#peca3dd83fd)">
     <use style="fill:#1f77b4;stroke:#1f77b4;" x="54" xlink:href="#m34accab4a9" y="245.604706"/>
     <use style="fill:#1f77b4;stroke:#1f77b4;" x="69.218182" xlink:href="#m34accab4a9" y="245.604706"/>
     <use style="fill:#1f77b4;stroke:#1f77b4;" x="84.436364" xlink:href="#m34accab4a9" y="245.604706"/>
     <use style="fill:#1f77b4;stroke:#1f77b4;" x="99.654545" xlink:href="#m34accab4a9" y="245.604705"/>
     <use style="fill:#1f77b4;stroke:#1f77b4;" x="114.872727" xlink:href="#m34accab4a9" y="245.604704"/>
     <use style="fill:#1f77b4;stroke:#1f77b4;" x="130.090909" xlink:href="#m34accab4a9" y="245.604701"/>
     <use style="fill:#1f77b4;stroke:#1f77b4;" x="145.309091" xlink:href="#m34accab4a9" y="245.604691"/>
     <use style="fill:#1f77b4;stroke:#1f77b4;" x="160.527273" xlink:href="#m34accab4a9" y="245.604657"/>
     <use style="fill:#1f77b4;stroke:#1f77b4;" x="175.745455" xlink:href="#m34accab4a9" y="245.604554"/>
     <use style="fill:#1f77b4;stroke:#1f77b4;" x="190.963636" xlink:href="#m34accab4a9" y="245.604227"/>
     <use style="fill:#1f77b4;stroke:#1f77b4;" x="206.181818" xlink:href="#m34accab4a9" y="245.603197"/>
     <use style="fill:#1f77b4;stroke:#1f77b4;" x="221.4" xlink:href="#m34accab4a9" y="245.599956"/>
     <use style="fill:#1f77b4;stroke:#1f77b4;" x="236.618182" xlink:href="#m34accab4a9" y="245.589752"/>
     <use style="fill:#1f77b4;stroke:#1f77b4;" x="251.836364" xlink:href="#m34accab4a9" y="245.55762"/>
     <use style="fill:#1f77b4;stroke:#1f77b4;" x="267.054545" xlink:href="#m34accab4a9" y="245.466818"/>
     <use style="fill:#1f77b4;stroke:#1f77b4;" x="282.272727" xlink:href="#m34accab4a9" y="245.179673"/>
     <use style="fill:#1f77b4;stroke:#1f77b4;" x="297.490909" xlink:href="#m34accab4a9" y="244.379876"/>
     <use style="fill:#1f77b4;stroke:#1f77b4;" x="312.709091" xlink:href="#m34accab4a9" y="243.389355"/>
     <use style="fill:#1f77b4;stroke:#1f77b4;" x="327.927273" xlink:href="#m34accab4a9" y="243.389355"/>
     <use style="fill:#1f77b4;stroke:#1f77b4;" x="343.145455" xlink:href="#m34accab4a9" y="243.389355"/>
     <use style="fill:#1f77b4;stroke:#1f77b4;" x="358.363636" xlink:href="#m34accab4a9" y="243.389355"/>
     <use style="fill:#1f77b4;stroke:#1f77b4;" x="373.581818" xlink:href="#m34accab4a9" y="243.389355"/>
     <use style="fill:#1f77b4;stroke:#1f77b4;" x="388.8" xlink:href="#m34accab4a9" y="243.389355"/>
    </g>
   </g>
   <g id="line2d_24">
    <path clip-path="url(#peca3dd83fd)" d="M 54 243.129083 
L 69.218182 243.129083 
L 84.436364 243.129083 
L 99.654545 243.129083 
L 114.872727 243.129083 
L 130.090909 243.129081 
L 145.309091 243.129075 
L 160.527273 243.129049 
L 175.745455 243.128979 
L 190.963636 243.12877 
L 206.181818 243.128142 
L 221.4 243.126257 
L 236.618182 243.120607 
L 251.836364 243.103689 
L 267.054545 243.125686 
L 282.272727 243.195233 
L 297.490909 243.301374 
L 312.709091 243.389355 
L 327.927273 243.389355 
L 343.145455 243.389355 
L 358.363636 243.389355 
L 373.581818 243.389355 
L 388.8 243.389355 
" style="fill:none;stroke:#ff7f0e;stroke-dasharray:5.55,2.4;stroke-dashoffset:0;stroke-width:1.5;"/>
    <defs>
     <path d="M 0 1.5 
C 0.397805 1.5 0.77937 1.341951 1.06066 1.06066 
C 1.341951 0.77937 1.5 0.397805 1.5 0 
C 1.5 -0.397805 1.341951 -0.77937 1.06066 -1.06066 
C 0.77937 -1.341951 0.397805 -1.5 0 -1.5 
C -0.397805 -1.5 -0.77937 -1.341951 -1.06066 -1.06066 
C -1.341951 -0.77937 -1.5 -0.397805 -1.5 0 
C -1.5 0.397805 -1.341951 0.77937 -1.06066 1.06066 
C -0.77937 1.341951 -0.397805 1.5 0 1.5 
z
" id="mb5f3a9551a" style="stroke:#ff7f0e;"/>
    </defs>
    <g clip-path="url(#peca3dd83fd)">
     <use style="fill:#ff7f0e;stroke:#ff7f0e;" x="54" xlink:href="#mb5f3a9551a" y="243.129083"/>
     <use style="fill:#ff7f0e;stroke:#ff7f0e;" x="69.218182" xlink:href="#mb5f3a9551a" y="243.129083"/>
     <use style="fill:#ff7f0e;stroke:#ff7f0e;" x="84.436364" xlink:href="#mb5f3a9551a" y="243.129083"/>
     <use style="fill:#ff7f0e;stroke:#ff7f0e;" x="99.654545" xlink:href="#mb5f3a9551a" y="243.129083"/>
     <use style="fill:#ff7f0e;stroke:#ff7f0e;" x="114.872727" xlink:href="#mb5f3a9551a" y="243.129083"/>
     <use style="fill:#ff7f0e;stroke:#ff7f0e;" x="130.090909" xlink:href="#mb5f3a9551a" y="243.129081"/>
     <use style="fill:#ff7f0e;stroke:#ff7f0e;" x="145.309091" xlink:href="#mb5f3a9551a" y="243.129075"/>
     <use style="fill:#ff7f0e;stroke:#ff7f0e;" x="160.527273" xlink:href="#mb5f3a9551a" y="243.129049"/>
     <use style="fill:#ff7f0e;stroke:#ff7f0e;" x="175.745455" xlink:href="#mb5f3a9551a" y="243.128979"/>
     <use style="fill:#ff7f0e;stroke:#ff7f0e;" x="190.963636" xlink:href="#mb5f3a9551a" y="243.12877"/>
     <use style="fill:#ff7f0e;stroke:#ff7f0e;" x="206.181818" xlink:href="#mb5f3a9551a" y="243.128142"/>
     <use style="fill:#ff7f0e;stroke:#ff7f0e;" x="221.4" xlink:href="#mb5f3a9551a" y="243.126257"/>
     <use style="fill:#ff7f0e;stroke:#ff7f0e;" x="236.618182" xlink:href="#mb5f3a9551a" y="243.120607"/>
     <use style="fill:#ff7f0e;stroke:#ff7f0e;" x="251.836364" xlink:href="#mb5f3a9551a" y="243.103689"/>
     <use style="fill:#ff7f0e;stroke:#ff7f0e;" x="267.054545" xlink:href="#mb5f3a9551a" y="243.125686"/>
     <use style="fill:#ff7f0e;stroke:#ff7f0e;" x="282.272727" xlink:href="#mb5f3a9551a" y="243.195233"/>
     <use style="fill:#ff7f0e;stroke:#ff7f0e;" x="297.490909" xlink:href="#mb5f3a9551a" y="243.301374"/>
     <use style="fill:#ff7f0e;stroke:#ff7f0e;" x="312.709091" xlink:href="#mb5f3a9551a" y="243.389355"/>
     <use style="fill:#ff7f0e;stroke:#ff7f0e;" x="327.927273" xlink:href="#mb5f3a9551a" y="243.389355"/>
     <use style="fill:#ff7f0e;stroke:#ff7f0e;" x="343.145455" xlink:href="#mb5f3a9551a" y="243.389355"/>
     <use style="fill:#ff7f0e;stroke:#ff7f0e;" x="358.363636" xlink:href="#mb5f3a9551a" y="243.389355"/>
     <use style="fill:#ff7f0e;stroke:#ff7f0e;" x="373.581818" xlink:href="#mb5f3a9551a" y="243.389355"/>
     <use style="fill:#ff7f0e;stroke:#ff7f0e;" x="388.8" xlink:href="#mb5f3a9551a" y="243.389355"/>
    </g>
   </g>
   <g id="line2d_25">
    <path clip-path="url(#peca3dd83fd)" d="M 54 240.8138 
L 69.218182 240.8138 
L 84.436364 240.8138 
L 99.654545 240.8138 
L 114.872727 240.813801 
L 130.090909 240.813804 
L 145.309091 240.813813 
L 160.527273 240.813842 
L 175.745455 240.813933 
L 190.963636 240.814222 
L 206.181818 240.815137 
L 221.4 240.818035 
L 236.618182 240.827214 
L 251.836364 240.856291 
L 267.054545 240.952006 
L 282.272727 241.254685 
L 297.490909 241.999186 
L 312.709091 243.389355 
L 327.927273 243.389355 
L 343.145455 243.389355 
L 358.363636 243.389355 
L 373.581818 243.389355 
L 388.8 243.389355 
" style="fill:none;stroke:#2ca02c;stroke-dasharray:5.55,2.4;stroke-dashoffset:0;stroke-width:1.5;"/>
    <defs>
     <path d="M 0 1.5 
C 0.397805 1.5 0.77937 1.341951 1.06066 1.06066 
C 1.341951 0.77937 1.5 0.397805 1.5 0 
C 1.5 -0.397805 1.341951 -0.77937 1.06066 -1.06066 
C 0.77937 -1.341951 0.397805 -1.5 0 -1.5 
C -0.397805 -1.5 -0.77937 -1.341951 -1.06066 -1.06066 
C -1.341951 -0.77937 -1.5 -0.397805 -1.5 0 
C -1.5 0.397805 -1.341951 0.77937 -1.06066 1.06066 
C -0.77937 1.341951 -0.397805 1.5 0 1.5 
z
" id="m70b874402b" style="stroke:#2ca02c;"/>
    </defs>
    <g clip-path="url(#peca3dd83fd)">
     <use style="fill:#2ca02c;stroke:#2ca02c;" x="54" xlink:href="#m70b874402b" y="240.8138"/>
     <use style="fill:#2ca02c;stroke:#2ca02c;" x="69.218182" xlink:href="#m70b874402b" y="240.8138"/>
     <use style="fill:#2ca02c;stroke:#2ca02c;" x="84.436364" xlink:href="#m70b874402b" y="240.8138"/>
     <use style="fill:#2ca02c;stroke:#2ca02c;" x="99.654545" xlink:href="#m70b874402b" y="240.8138"/>
     <use style="fill:#2ca02c;stroke:#2ca02c;" x="114.872727" xlink:href="#m70b874402b" y="240.813801"/>
     <use style="fill:#2ca02c;stroke:#2ca02c;" x="130.090909" xlink:href="#m70b874402b" y="240.813804"/>
     <use style="fill:#2ca02c;stroke:#2ca02c;" x="145.309091" xlink:href="#m70b874402b" y="240.813813"/>
     <use style="fill:#2ca02c;stroke:#2ca02c;" x="160.527273" xlink:href="#m70b874402b" y="240.813842"/>
     <use style="fill:#2ca02c;stroke:#2ca02c;" x="175.745455" xlink:href="#m70b874402b" y="240.813933"/>
     <use style="fill:#2ca02c;stroke:#2ca02c;" x="190.963636" xlink:href="#m70b874402b" y="240.814222"/>
     <use style="fill:#2ca02c;stroke:#2ca02c;" x="206.181818" xlink:href="#m70b874402b" y="240.815137"/>
     <use style="fill:#2ca02c;stroke:#2ca02c;" x="221.4" xlink:href="#m70b874402b" y="240.818035"/>
     <use style="fill:#2ca02c;stroke:#2ca02c;" x="236.618182" xlink:href="#m70b874402b" y="240.827214"/>
     <use style="fill:#2ca02c;stroke:#2ca02c;" x="251.836364" xlink:href="#m70b874402b" y="240.856291"/>
     <use style="fill:#2ca02c;stroke:#2ca02c;" x="267.054545" xlink:href="#m70b874402b" y="240.952006"/>
     <use style="fill:#2ca02c;stroke:#2ca02c;" x="282.272727" xlink:href="#m70b874402b" y="241.254685"/>
     <use style="fill:#2ca02c;stroke:#2ca02c;" x="297.490909" xlink:href="#m70b874402b" y="241.999186"/>
     <use style="fill:#2ca02c;stroke:#2ca02c;" x="312.709091" xlink:href="#m70b874402b" y="243.389355"/>
     <use style="fill:#2ca02c;stroke:#2ca02c;" x="327.927273" xlink:href="#m70b874402b" y="243.389355"/>
     <use style="fill:#2ca02c;stroke:#2ca02c;" x="343.145455" xlink:href="#m70b874402b" y="243.389355"/>
     <use style="fill:#2ca02c;stroke:#2ca02c;" x="358.363636" xlink:href="#m70b874402b" y="243.389355"/>
     <use style="fill:#2ca02c;stroke:#2ca02c;" x="373.581818" xlink:href="#m70b874402b" y="243.389355"/>
     <use style="fill:#2ca02c;stroke:#2ca02c;" x="388.8" xlink:href="#m70b874402b" y="243.389355"/>
    </g>
   </g>
   <g id="line2d_26">
    <path clip-path="url(#peca3dd83fd)" d="M 54 241.926049 
L 69.218182 241.926049 
L 84.436364 241.926049 
L 99.654545 241.92605 
L 114.872727 241.926051 
L 130.090909 241.926056 
L 145.309091 241.926072 
L 160.527273 241.92612 
L 175.745455 241.926272 
L 190.963636 241.926755 
L 206.181818 241.92828 
L 221.4 241.933107 
L 236.618182 241.948374 
L 251.836364 241.996667 
L 267.054545 242.15046 
L 282.272727 242.636797 
L 297.490909 243.389355 
L 312.709091 243.389355 
L 327.927273 243.389355 
L 343.145455 243.389355 
L 358.363636 243.389355 
L 373.581818 243.389355 
L 388.8 243.389355 
" style="fill:none;stroke:#d62728;stroke-dasharray:5.55,2.4;stroke-dashoffset:0;stroke-width:1.5;"/>
    <defs>
     <path d="M 0 1.5 
C 0.397805 1.5 0.77937 1.341951 1.06066 1.06066 
C 1.341951 0.77937 1.5 0.397805 1.5 0 
C 1.5 -0.397805 1.341951 -0.77937 1.06066 -1.06066 
C 0.77937 -1.341951 0.397805 -1.5 0 -1.5 
C -0.397805 -1.5 -0.77937 -1.341951 -1.06066 -1.06066 
C -1.341951 -0.77937 -1.5 -0.397805 -1.5 0 
C -1.5 0.397805 -1.341951 0.77937 -1.06066 1.06066 
C -0.77937 1.341951 -0.397805 1.5 0 1.5 
z
" id="m2fd11eacf5" style="stroke:#d62728;"/>
    </defs>
    <g clip-path="url(#peca3dd83fd)">
     <use style="fill:#d62728;stroke:#d62728;" x="54" xlink:href="#m2fd11eacf5" y="241.926049"/>
     <use style="fill:#d62728;stroke:#d62728;" x="69.218182" xlink:href="#m2fd11eacf5" y="241.926049"/>
     <use style="fill:#d62728;stroke:#d62728;" x="84.436364" xlink:href="#m2fd11eacf5" y="241.926049"/>
     <use style="fill:#d62728;stroke:#d62728;" x="99.654545" xlink:href="#m2fd11eacf5" y="241.92605"/>
     <use style="fill:#d62728;stroke:#d62728;" x="114.872727" xlink:href="#m2fd11eacf5" y="241.926051"/>
     <use style="fill:#d62728;stroke:#d62728;" x="130.090909" xlink:href="#m2fd11eacf5" y="241.926056"/>
     <use style="fill:#d62728;stroke:#d62728;" x="145.309091" xlink:href="#m2fd11eacf5" y="241.926072"/>
     <use style="fill:#d62728;stroke:#d62728;" x="160.527273" xlink:href="#m2fd11eacf5" y="241.92612"/>
     <use style="fill:#d62728;stroke:#d62728;" x="175.745455" xlink:href="#m2fd11eacf5" y="241.926272"/>
     <use style="fill:#d62728;stroke:#d62728;" x="190.963636" xlink:href="#m2fd11eacf5" y="241.926755"/>
     <use style="fill:#d62728;stroke:#d62728;" x="206.181818" xlink:href="#m2fd11eacf5" y="241.92828"/>
     <use style="fill:#d62728;stroke:#d62728;" x="221.4" xlink:href="#m2fd11eacf5" y="241.933107"/>
     <use style="fill:#d62728;stroke:#d62728;" x="236.618182" xlink:href="#m2fd11eacf5" y="241.948374"/>
     <use style="fill:#d62728;stroke:#d62728;" x="251.836364" xlink:href="#m2fd11eacf5" y="241.996667"/>
     <use style="fill:#d62728;stroke:#d62728;" x="267.054545" xlink:href="#m2fd11eacf5" y="242.15046"/>
     <use style="fill:#d62728;stroke:#d62728;" x="282.272727" xlink:href="#m2fd11eacf5" y="242.636797"/>
     <use style="fill:#d62728;stroke:#d62728;" x="297.490909" xlink:href="#m2fd11eacf5" y="243.389355"/>
     <use style="fill:#d62728;stroke:#d62728;" x="312.709091" xlink:href="#m2fd11eacf5" y="243.389355"/>
     <use style="fill:#d62728;stroke:#d62728;" x="327.927273" xlink:href="#m2fd11eacf5" y="243.389355"/>
     <use style="fill:#d62728;stroke:#d62728;" x="343.145455" xlink:href="#m2fd11eacf5" y="243.389355"/>
     <use style="fill:#d62728;stroke:#d62728;" x="358.363636" xlink:href="#m2fd11eacf5" y="243.389355"/>
     <use style="fill:#d62728;stroke:#d62728;" x="373.581818" xlink:href="#m2fd11eacf5" y="243.389355"/>
     <use style="fill:#d62728;stroke:#d62728;" x="388.8" xlink:href="#m2fd11eacf5" y="243.389355"/>
    </g>
   </g>
   <g id="line2d_27">
    <path clip-path="url(#peca3dd83fd)" d="M 54 117.698824 
L 69.218182 117.698824 
L 84.436364 117.698824 
L 99.654545 117.698824 
L 114.872727 117.698825 
L 130.090909 117.698829 
L 145.309091 117.698839 
L 160.527273 117.698882 
L 175.745455 117.699004 
L 190.963636 117.699379 
L 206.181818 117.700538 
L 221.4 117.704115 
L 236.618182 117.71516 
L 251.836364 117.74927 
L 267.054545 117.792154 
L 282.272727 117.927776 
L 297.490909 118.425813 
L 312.709091 120.475933 
L 327.927273 129.547751 
L 343.145455 158.235359 
L 358.363636 243.389355 
L 373.581818 243.389355 
L 388.8 243.389355 
" style="fill:none;stroke:#9467bd;stroke-dasharray:5.55,2.4;stroke-dashoffset:0;stroke-width:1.5;"/>
    <defs>
     <path d="M 0 1.5 
C 0.397805 1.5 0.77937 1.341951 1.06066 1.06066 
C 1.341951 0.77937 1.5 0.397805 1.5 0 
C 1.5 -0.397805 1.341951 -0.77937 1.06066 -1.06066 
C 0.77937 -1.341951 0.397805 -1.5 0 -1.5 
C -0.397805 -1.5 -0.77937 -1.341951 -1.06066 -1.06066 
C -1.341951 -0.77937 -1.5 -0.397805 -1.5 0 
C -1.5 0.397805 -1.341951 0.77937 -1.06066 1.06066 
C -0.77937 1.341951 -0.397805 1.5 0 1.5 
z
" id="m94c0bcd794" style="stroke:#9467bd;"/>
    </defs>
    <g clip-path="url(#peca3dd83fd)">
     <use style="fill:#9467bd;stroke:#9467bd;" x="54" xlink:href="#m94c0bcd794" y="117.698824"/>
     <use style="fill:#9467bd;stroke:#9467bd;" x="69.218182" xlink:href="#m94c0bcd794" y="117.698824"/>
     <use style="fill:#9467bd;stroke:#9467bd;" x="84.436364" xlink:href="#m94c0bcd794" y="117.698824"/>
     <use style="fill:#9467bd;stroke:#9467bd;" x="99.654545" xlink:href="#m94c0bcd794" y="117.698824"/>
     <use style="fill:#9467bd;stroke:#9467bd;" x="114.872727" xlink:href="#m94c0bcd794" y="117.698825"/>
     <use style="fill:#9467bd;stroke:#9467bd;" x="130.090909" xlink:href="#m94c0bcd794" y="117.698829"/>
     <use style="fill:#9467bd;stroke:#9467bd;" x="145.309091" xlink:href="#m94c0bcd794" y="117.698839"/>
     <use style="fill:#9467bd;stroke:#9467bd;" x="160.527273" xlink:href="#m94c0bcd794" y="117.698882"/>
     <use style="fill:#9467bd;stroke:#9467bd;" x="175.745455" xlink:href="#m94c0bcd794" y="117.699004"/>
     <use style="fill:#9467bd;stroke:#9467bd;" x="190.963636" xlink:href="#m94c0bcd794" y="117.699379"/>
     <use style="fill:#9467bd;stroke:#9467bd;" x="206.181818" xlink:href="#m94c0bcd794" y="117.700538"/>
     <use style="fill:#9467bd;stroke:#9467bd;" x="221.4" xlink:href="#m94c0bcd794" y="117.704115"/>
     <use style="fill:#9467bd;stroke:#9467bd;" x="236.618182" xlink:href="#m94c0bcd794" y="117.71516"/>
     <use style="fill:#9467bd;stroke:#9467bd;" x="251.836364" xlink:href="#m94c0bcd794" y="117.74927"/>
     <use style="fill:#9467bd;stroke:#9467bd;" x="267.054545" xlink:href="#m94c0bcd794" y="117.792154"/>
     <use style="fill:#9467bd;stroke:#9467bd;" x="282.272727" xlink:href="#m94c0bcd794" y="117.927776"/>
     <use style="fill:#9467bd;stroke:#9467bd;" x="297.490909" xlink:href="#m94c0bcd794" y="118.425813"/>
     <use style="fill:#9467bd;stroke:#9467bd;" x="312.709091" xlink:href="#m94c0bcd794" y="120.475933"/>
     <use style="fill:#9467bd;stroke:#9467bd;" x="327.927273" xlink:href="#m94c0bcd794" y="129.547751"/>
     <use style="fill:#9467bd;stroke:#9467bd;" x="343.145455" xlink:href="#m94c0bcd794" y="158.235359"/>
     <use style="fill:#9467bd;stroke:#9467bd;" x="358.363636" xlink:href="#m94c0bcd794" y="243.389355"/>
     <use style="fill:#9467bd;stroke:#9467bd;" x="373.581818" xlink:href="#m94c0bcd794" y="243.389355"/>
     <use style="fill:#9467bd;stroke:#9467bd;" x="388.8" xlink:href="#m94c0bcd794" y="243.389355"/>
    </g>
   </g>
   <g id="patch_9">
    <path d="M 54 252 
L 54 111.303529 
" style="fill:none;stroke:#000000;stroke-linecap:square;stroke-linejoin:miter;stroke-width:0.8;"/>
   </g>
   <g id="patch_10">
    <path d="M 388.8 252 
L 388.8 111.303529 
" style="fill:none;stroke:#000000;stroke-linecap:square;stroke-linejoin:miter;stroke-width:0.8;"/>
   </g>
   <g id="patch_11">
    <path d="M 54 252 
L 388.8 252 
" style="fill:none;stroke:#000000;stroke-linecap:square;stroke-linejoin:miter;stroke-width:0.8;"/>
   </g>
   <g id="patch_12">
    <path d="M 54 111.303529 
L 388.8 111.303529 
" style="fill:none;stroke:#000000;stroke-linecap:square;stroke-linejoin:miter;stroke-width:0.8;"/>
   </g>
   <g id="legend_2">
    <g id="patch_13">
     <path d="M 61 219.847077 
L 180.384375 219.847077 
Q 182.384375 219.847077 182.384375 217.847077 
L 182.384375 145.456452 
Q 182.384375 143.456452 180.384375 143.456452 
L 61 143.456452 
Q 59 143.456452 59 145.456452 
L 59 217.847077 
Q 59 219.847077 61 219.847077 
z
" style="fill:#ffffff;opacity:0.8;stroke:#cccccc;stroke-linejoin:miter;"/>
    </g>
    <g id="line2d_28">
     <path d="M 63 151.55489 
L 83 151.55489 
" style="fill:none;stroke:#1f77b4;stroke-dasharray:5.55,2.4;stroke-dashoffset:0;stroke-width:1.5;"/>
    </g>
    <g id="line2d_29">
     <g>
      <use style="fill:#1f77b4;stroke:#1f77b4;" x="73" xlink:href="#m34accab4a9" y="151.55489"/>
     </g>
    </g>
    <g id="text_16">
     <!-- koeficient o3 -->
     <defs>
      <path d="M 9.078125 75.984375 
L 18.109375 75.984375 
L 18.109375 31.109375 
L 44.921875 54.6875 
L 56.390625 54.6875 
L 27.390625 29.109375 
L 57.625 0 
L 45.90625 0 
L 18.109375 26.703125 
L 18.109375 0 
L 9.078125 0 
z
" id="DejaVuSans-107"/>
      <path d="M 30.609375 48.390625 
Q 23.390625 48.390625 19.1875 42.75 
Q 14.984375 37.109375 14.984375 27.296875 
Q 14.984375 17.484375 19.15625 11.84375 
Q 23.34375 6.203125 30.609375 6.203125 
Q 37.796875 6.203125 41.984375 11.859375 
Q 46.1875 17.53125 46.1875 27.296875 
Q 46.1875 37.015625 41.984375 42.703125 
Q 37.796875 48.390625 30.609375 48.390625 
z
M 30.609375 56 
Q 42.328125 56 49.015625 48.375 
Q 55.71875 40.765625 55.71875 27.296875 
Q 55.71875 13.875 49.015625 6.21875 
Q 42.328125 -1.421875 30.609375 -1.421875 
Q 18.84375 -1.421875 12.171875 6.21875 
Q 5.515625 13.875 5.515625 27.296875 
Q 5.515625 40.765625 12.171875 48.375 
Q 18.84375 56 30.609375 56 
z
" id="DejaVuSans-111"/>
      <path d="M 56.203125 29.59375 
L 56.203125 25.203125 
L 14.890625 25.203125 
Q 15.484375 15.921875 20.484375 11.0625 
Q 25.484375 6.203125 34.421875 6.203125 
Q 39.59375 6.203125 44.453125 7.46875 
Q 49.3125 8.734375 54.109375 11.28125 
L 54.109375 2.78125 
Q 49.265625 0.734375 44.1875 -0.34375 
Q 39.109375 -1.421875 33.890625 -1.421875 
Q 20.796875 -1.421875 13.15625 6.1875 
Q 5.515625 13.8125 5.515625 26.8125 
Q 5.515625 40.234375 12.765625 48.109375 
Q 20.015625 56 32.328125 56 
Q 43.359375 56 49.78125 48.890625 
Q 56.203125 41.796875 56.203125 29.59375 
z
M 47.21875 32.234375 
Q 47.125 39.59375 43.09375 43.984375 
Q 39.0625 48.390625 32.421875 48.390625 
Q 24.90625 48.390625 20.390625 44.140625 
Q 15.875 39.890625 15.1875 32.171875 
z
" id="DejaVuSans-101"/>
      <path d="M 37.109375 75.984375 
L 37.109375 68.5 
L 28.515625 68.5 
Q 23.6875 68.5 21.796875 66.546875 
Q 19.921875 64.59375 19.921875 59.515625 
L 19.921875 54.6875 
L 34.71875 54.6875 
L 34.71875 47.703125 
L 19.921875 47.703125 
L 19.921875 0 
L 10.890625 0 
L 10.890625 47.703125 
L 2.296875 47.703125 
L 2.296875 54.6875 
L 10.890625 54.6875 
L 10.890625 58.5 
Q 10.890625 67.625 15.140625 71.796875 
Q 19.390625 75.984375 28.609375 75.984375 
z
" id="DejaVuSans-102"/>
      <path d="M 9.421875 54.6875 
L 18.40625 54.6875 
L 18.40625 0 
L 9.421875 0 
z
M 9.421875 75.984375 
L 18.40625 75.984375 
L 18.40625 64.59375 
L 9.421875 64.59375 
z
" id="DejaVuSans-105"/>
      <path d="M 48.78125 52.59375 
L 48.78125 44.1875 
Q 44.96875 46.296875 41.140625 47.34375 
Q 37.3125 48.390625 33.40625 48.390625 
Q 24.65625 48.390625 19.8125 42.84375 
Q 14.984375 37.3125 14.984375 27.296875 
Q 14.984375 17.28125 19.8125 11.734375 
Q 24.65625 6.203125 33.40625 6.203125 
Q 37.3125 6.203125 41.140625 7.25 
Q 44.96875 8.296875 48.78125 10.40625 
L 48.78125 2.09375 
Q 45.015625 0.34375 40.984375 -0.53125 
Q 36.96875 -1.421875 32.421875 -1.421875 
Q 20.0625 -1.421875 12.78125 6.34375 
Q 5.515625 14.109375 5.515625 27.296875 
Q 5.515625 40.671875 12.859375 48.328125 
Q 20.21875 56 33.015625 56 
Q 37.15625 56 41.109375 55.140625 
Q 45.0625 54.296875 48.78125 52.59375 
z
" id="DejaVuSans-99"/>
      <path d="M 54.890625 33.015625 
L 54.890625 0 
L 45.90625 0 
L 45.90625 32.71875 
Q 45.90625 40.484375 42.875 44.328125 
Q 39.84375 48.1875 33.796875 48.1875 
Q 26.515625 48.1875 22.3125 43.546875 
Q 18.109375 38.921875 18.109375 30.90625 
L 18.109375 0 
L 9.078125 0 
L 9.078125 54.6875 
L 18.109375 54.6875 
L 18.109375 46.1875 
Q 21.34375 51.125 25.703125 53.5625 
Q 30.078125 56 35.796875 56 
Q 45.21875 56 50.046875 50.171875 
Q 54.890625 44.34375 54.890625 33.015625 
z
" id="DejaVuSans-110"/>
      <path d="M 18.3125 70.21875 
L 18.3125 54.6875 
L 36.8125 54.6875 
L 36.8125 47.703125 
L 18.3125 47.703125 
L 18.3125 18.015625 
Q 18.3125 11.328125 20.140625 9.421875 
Q 21.96875 7.515625 27.59375 7.515625 
L 36.8125 7.515625 
L 36.8125 0 
L 27.59375 0 
Q 17.1875 0 13.234375 3.875 
Q 9.28125 7.765625 9.28125 18.015625 
L 9.28125 47.703125 
L 2.6875 47.703125 
L 2.6875 54.6875 
L 9.28125 54.6875 
L 9.28125 70.21875 
z
" id="DejaVuSans-116"/>
      <path id="DejaVuSans-32"/>
      <path d="M 40.578125 39.3125 
Q 47.65625 37.796875 51.625 33 
Q 55.609375 28.21875 55.609375 21.1875 
Q 55.609375 10.40625 48.1875 4.484375 
Q 40.765625 -1.421875 27.09375 -1.421875 
Q 22.515625 -1.421875 17.65625 -0.515625 
Q 12.796875 0.390625 7.625 2.203125 
L 7.625 11.71875 
Q 11.71875 9.328125 16.59375 8.109375 
Q 21.484375 6.890625 26.8125 6.890625 
Q 36.078125 6.890625 40.9375 10.546875 
Q 45.796875 14.203125 45.796875 21.1875 
Q 45.796875 27.640625 41.28125 31.265625 
Q 36.765625 34.90625 28.71875 34.90625 
L 20.21875 34.90625 
L 20.21875 43.015625 
L 29.109375 43.015625 
Q 36.375 43.015625 40.234375 45.921875 
Q 44.09375 48.828125 44.09375 54.296875 
Q 44.09375 59.90625 40.109375 62.90625 
Q 36.140625 65.921875 28.71875 65.921875 
Q 24.65625 65.921875 20.015625 65.03125 
Q 15.375 64.15625 9.8125 62.3125 
L 9.8125 71.09375 
Q 15.4375 72.65625 20.34375 73.4375 
Q 25.25 74.21875 29.59375 74.21875 
Q 40.828125 74.21875 47.359375 69.109375 
Q 53.90625 64.015625 53.90625 55.328125 
Q 53.90625 49.265625 50.4375 45.09375 
Q 46.96875 40.921875 40.578125 39.3125 
z
" id="DejaVuSans-51"/>
     </defs>
     <g transform="translate(91 155.05489)scale(0.1 -0.1)">
      <use xlink:href="#DejaVuSans-107"/>
      <use x="57.863281" xlink:href="#DejaVuSans-111"/>
      <use x="119.044922" xlink:href="#DejaVuSans-101"/>
      <use x="180.568359" xlink:href="#DejaVuSans-102"/>
      <use x="215.773438" xlink:href="#DejaVuSans-105"/>
      <use x="243.556641" xlink:href="#DejaVuSans-99"/>
      <use x="298.537109" xlink:href="#DejaVuSans-105"/>
      <use x="326.320312" xlink:href="#DejaVuSans-101"/>
      <use x="387.84375" xlink:href="#DejaVuSans-110"/>
      <use x="451.222656" xlink:href="#DejaVuSans-116"/>
      <use x="490.431641" xlink:href="#DejaVuSans-32"/>
      <use x="522.21875" xlink:href="#DejaVuSans-111"/>
      <use x="583.400391" xlink:href="#DejaVuSans-51"/>
     </g>
    </g>
    <g id="line2d_30">
     <path d="M 63 166.233015 
L 83 166.233015 
" style="fill:none;stroke:#ff7f0e;stroke-dasharray:5.55,2.4;stroke-dashoffset:0;stroke-width:1.5;"/>
    </g>
    <g id="line2d_31">
     <g>
      <use style="fill:#ff7f0e;stroke:#ff7f0e;" x="73" xlink:href="#mb5f3a9551a" y="166.233015"/>
     </g>
    </g>
    <g id="text_17">
     <!-- koeficient pm2p5 -->
     <defs>
      <path d="M 52 44.1875 
Q 55.375 50.25 60.0625 53.125 
Q 64.75 56 71.09375 56 
Q 79.640625 56 84.28125 50.015625 
Q 88.921875 44.046875 88.921875 33.015625 
L 88.921875 0 
L 79.890625 0 
L 79.890625 32.71875 
Q 79.890625 40.578125 77.09375 44.375 
Q 74.3125 48.1875 68.609375 48.1875 
Q 61.625 48.1875 57.5625 43.546875 
Q 53.515625 38.921875 53.515625 30.90625 
L 53.515625 0 
L 44.484375 0 
L 44.484375 32.71875 
Q 44.484375 40.625 41.703125 44.40625 
Q 38.921875 48.1875 33.109375 48.1875 
Q 26.21875 48.1875 22.15625 43.53125 
Q 18.109375 38.875 18.109375 30.90625 
L 18.109375 0 
L 9.078125 0 
L 9.078125 54.6875 
L 18.109375 54.6875 
L 18.109375 46.1875 
Q 21.1875 51.21875 25.484375 53.609375 
Q 29.78125 56 35.6875 56 
Q 41.65625 56 45.828125 52.96875 
Q 50 49.953125 52 44.1875 
z
" id="DejaVuSans-109"/>
     </defs>
     <g transform="translate(91 169.733015)scale(0.1 -0.1)">
      <use xlink:href="#DejaVuSans-107"/>
      <use x="57.863281" xlink:href="#DejaVuSans-111"/>
      <use x="119.044922" xlink:href="#DejaVuSans-101"/>
      <use x="180.568359" xlink:href="#DejaVuSans-102"/>
      <use x="215.773438" xlink:href="#DejaVuSans-105"/>
      <use x="243.556641" xlink:href="#DejaVuSans-99"/>
      <use x="298.537109" xlink:href="#DejaVuSans-105"/>
      <use x="326.320312" xlink:href="#DejaVuSans-101"/>
      <use x="387.84375" xlink:href="#DejaVuSans-110"/>
      <use x="451.222656" xlink:href="#DejaVuSans-116"/>
      <use x="490.431641" xlink:href="#DejaVuSans-32"/>
      <use x="522.21875" xlink:href="#DejaVuSans-112"/>
      <use x="585.695312" xlink:href="#DejaVuSans-109"/>
      <use x="683.107422" xlink:href="#DejaVuSans-50"/>
      <use x="746.730469" xlink:href="#DejaVuSans-112"/>
      <use x="810.207031" xlink:href="#DejaVuSans-53"/>
     </g>
    </g>
    <g id="line2d_32">
     <path d="M 63 180.91114 
L 83 180.91114 
" style="fill:none;stroke:#2ca02c;stroke-dasharray:5.55,2.4;stroke-dashoffset:0;stroke-width:1.5;"/>
    </g>
    <g id="line2d_33">
     <g>
      <use style="fill:#2ca02c;stroke:#2ca02c;" x="73" xlink:href="#m70b874402b" y="180.91114"/>
     </g>
    </g>
    <g id="text_18">
     <!-- koeficient no2 -->
     <g transform="translate(91 184.41114)scale(0.1 -0.1)">
      <use xlink:href="#DejaVuSans-107"/>
      <use x="57.863281" xlink:href="#DejaVuSans-111"/>
      <use x="119.044922" xlink:href="#DejaVuSans-101"/>
      <use x="180.568359" xlink:href="#DejaVuSans-102"/>
      <use x="215.773438" xlink:href="#DejaVuSans-105"/>
      <use x="243.556641" xlink:href="#DejaVuSans-99"/>
      <use x="298.537109" xlink:href="#DejaVuSans-105"/>
      <use x="326.320312" xlink:href="#DejaVuSans-101"/>
      <use x="387.84375" xlink:href="#DejaVuSans-110"/>
      <use x="451.222656" xlink:href="#DejaVuSans-116"/>
      <use x="490.431641" xlink:href="#DejaVuSans-32"/>
      <use x="522.21875" xlink:href="#DejaVuSans-110"/>
      <use x="585.597656" xlink:href="#DejaVuSans-111"/>
      <use x="646.779297" xlink:href="#DejaVuSans-50"/>
     </g>
    </g>
    <g id="line2d_34">
     <path d="M 63 195.589265 
L 83 195.589265 
" style="fill:none;stroke:#d62728;stroke-dasharray:5.55,2.4;stroke-dashoffset:0;stroke-width:1.5;"/>
    </g>
    <g id="line2d_35">
     <g>
      <use style="fill:#d62728;stroke:#d62728;" x="73" xlink:href="#m2fd11eacf5" y="195.589265"/>
     </g>
    </g>
    <g id="text_19">
     <!-- koeficient so2 -->
     <defs>
      <path d="M 44.28125 53.078125 
L 44.28125 44.578125 
Q 40.484375 46.53125 36.375 47.5 
Q 32.28125 48.484375 27.875 48.484375 
Q 21.1875 48.484375 17.84375 46.4375 
Q 14.5 44.390625 14.5 40.28125 
Q 14.5 37.15625 16.890625 35.375 
Q 19.28125 33.59375 26.515625 31.984375 
L 29.59375 31.296875 
Q 39.15625 29.25 43.1875 25.515625 
Q 47.21875 21.78125 47.21875 15.09375 
Q 47.21875 7.46875 41.1875 3.015625 
Q 35.15625 -1.421875 24.609375 -1.421875 
Q 20.21875 -1.421875 15.453125 -0.5625 
Q 10.6875 0.296875 5.421875 2 
L 5.421875 11.28125 
Q 10.40625 8.6875 15.234375 7.390625 
Q 20.0625 6.109375 24.8125 6.109375 
Q 31.15625 6.109375 34.5625 8.28125 
Q 37.984375 10.453125 37.984375 14.40625 
Q 37.984375 18.0625 35.515625 20.015625 
Q 33.0625 21.96875 24.703125 23.78125 
L 21.578125 24.515625 
Q 13.234375 26.265625 9.515625 29.90625 
Q 5.8125 33.546875 5.8125 39.890625 
Q 5.8125 47.609375 11.28125 51.796875 
Q 16.75 56 26.8125 56 
Q 31.78125 56 36.171875 55.265625 
Q 40.578125 54.546875 44.28125 53.078125 
z
" id="DejaVuSans-115"/>
     </defs>
     <g transform="translate(91 199.089265)scale(0.1 -0.1)">
      <use xlink:href="#DejaVuSans-107"/>
      <use x="57.863281" xlink:href="#DejaVuSans-111"/>
      <use x="119.044922" xlink:href="#DejaVuSans-101"/>
      <use x="180.568359" xlink:href="#DejaVuSans-102"/>
      <use x="215.773438" xlink:href="#DejaVuSans-105"/>
      <use x="243.556641" xlink:href="#DejaVuSans-99"/>
      <use x="298.537109" xlink:href="#DejaVuSans-105"/>
      <use x="326.320312" xlink:href="#DejaVuSans-101"/>
      <use x="387.84375" xlink:href="#DejaVuSans-110"/>
      <use x="451.222656" xlink:href="#DejaVuSans-116"/>
      <use x="490.431641" xlink:href="#DejaVuSans-32"/>
      <use x="522.21875" xlink:href="#DejaVuSans-115"/>
      <use x="574.318359" xlink:href="#DejaVuSans-111"/>
      <use x="635.5" xlink:href="#DejaVuSans-50"/>
     </g>
    </g>
    <g id="line2d_36">
     <path d="M 63 210.26739 
L 83 210.26739 
" style="fill:none;stroke:#9467bd;stroke-dasharray:5.55,2.4;stroke-dashoffset:0;stroke-width:1.5;"/>
    </g>
    <g id="line2d_37">
     <g>
      <use style="fill:#9467bd;stroke:#9467bd;" x="73" xlink:href="#m94c0bcd794" y="210.26739"/>
     </g>
    </g>
    <g id="text_20">
     <!-- koeficient pm10 -->
     <g transform="translate(91 213.76739)scale(0.1 -0.1)">
      <use xlink:href="#DejaVuSans-107"/>
      <use x="57.863281" xlink:href="#DejaVuSans-111"/>
      <use x="119.044922" xlink:href="#DejaVuSans-101"/>
      <use x="180.568359" xlink:href="#DejaVuSans-102"/>
      <use x="215.773438" xlink:href="#DejaVuSans-105"/>
      <use x="243.556641" xlink:href="#DejaVuSans-99"/>
      <use x="298.537109" xlink:href="#DejaVuSans-105"/>
      <use x="326.320312" xlink:href="#DejaVuSans-101"/>
      <use x="387.84375" xlink:href="#DejaVuSans-110"/>
      <use x="451.222656" xlink:href="#DejaVuSans-116"/>
      <use x="490.431641" xlink:href="#DejaVuSans-32"/>
      <use x="522.21875" xlink:href="#DejaVuSans-112"/>
      <use x="585.695312" xlink:href="#DejaVuSans-109"/>
      <use x="683.107422" xlink:href="#DejaVuSans-49"/>
      <use x="746.730469" xlink:href="#DejaVuSans-48"/>
     </g>
    </g>
   </g>
  </g>
 </g>
 <defs>
  <clipPath id="pfb1acdf5ff">
   <rect height="63.952941" width="334.8" x="54" y="34.56"/>
  </clipPath>
  <clipPath id="peca3dd83fd">
   <rect height="140.696471" width="334.8" x="54" y="111.303529"/>
  </clipPath>
 </defs>
</svg>
