<?xml version="1.0" encoding="utf-8" standalone="no"?>
<!DOCTYPE svg PUBLIC "-//W3C//DTD SVG 1.1//EN"
  "http://www.w3.org/Graphics/SVG/1.1/DTD/svg11.dtd">
<!-- Created with matplotlib (https://matplotlib.org/) -->
<svg height="288pt" version="1.1" viewBox="0 0 432 288" width="432pt" xmlns="http://www.w3.org/2000/svg" xmlns:xlink="http://www.w3.org/1999/xlink">
 <defs>
  <style type="text/css">
*{stroke-linecap:butt;stroke-linejoin:round;}
  </style>
 </defs>
 <g id="figure_1">
  <g id="patch_1">
   <path d="M 0 288 
L 432 288 
L 432 0 
L 0 0 
z
" style="fill:#ffffff;"/>
  </g>
  <g id="axes_1">
   <g id="patch_2">
    <path d="M 54 252 
L 388.8 252 
L 388.8 34.56 
L 54 34.56 
z
" style="fill:#ffffff;"/>
   </g>
   <g id="matplotlib.axis_1">
    <g id="xtick_1">
     <g id="line2d_1">
      <defs>
       <path d="M 0 0 
L 0 3.5 
" id="mefc41f7c47" style="stroke:#000000;stroke-width:0.8;"/>
      </defs>
      <g>
       <use style="stroke:#000000;stroke-width:0.8;" x="118.910204" xlink:href="#mefc41f7c47" y="252"/>
      </g>
     </g>
     <g id="text_1">
      <!-- 20 -->
      <defs>
       <path d="M 19.1875 8.296875 
L 53.609375 8.296875 
L 53.609375 0 
L 7.328125 0 
L 7.328125 8.296875 
Q 12.9375 14.109375 22.625 23.890625 
Q 32.328125 33.6875 34.8125 36.53125 
Q 39.546875 41.84375 41.421875 45.53125 
Q 43.3125 49.21875 43.3125 52.78125 
Q 43.3125 58.59375 39.234375 62.25 
Q 35.15625 65.921875 28.609375 65.921875 
Q 23.96875 65.921875 18.8125 64.3125 
Q 13.671875 62.703125 7.8125 59.421875 
L 7.8125 69.390625 
Q 13.765625 71.78125 18.9375 73 
Q 24.125 74.21875 28.421875 74.21875 
Q 39.75 74.21875 46.484375 68.546875 
Q 53.21875 62.890625 53.21875 53.421875 
Q 53.21875 48.921875 51.53125 44.890625 
Q 49.859375 40.875 45.40625 35.40625 
Q 44.1875 33.984375 37.640625 27.21875 
Q 31.109375 20.453125 19.1875 8.296875 
z
" id="DejaVuSans-50"/>
       <path d="M 31.78125 66.40625 
Q 24.171875 66.40625 20.328125 58.90625 
Q 16.5 51.421875 16.5 36.375 
Q 16.5 21.390625 20.328125 13.890625 
Q 24.171875 6.390625 31.78125 6.390625 
Q 39.453125 6.390625 43.28125 13.890625 
Q 47.125 21.390625 47.125 36.375 
Q 47.125 51.421875 43.28125 58.90625 
Q 39.453125 66.40625 31.78125 66.40625 
z
M 31.78125 74.21875 
Q 44.046875 74.21875 50.515625 64.515625 
Q 56.984375 54.828125 56.984375 36.375 
Q 56.984375 17.96875 50.515625 8.265625 
Q 44.046875 -1.421875 31.78125 -1.421875 
Q 19.53125 -1.421875 13.0625 8.265625 
Q 6.59375 17.96875 6.59375 36.375 
Q 6.59375 54.828125 13.0625 64.515625 
Q 19.53125 74.21875 31.78125 74.21875 
z
" id="DejaVuSans-48"/>
      </defs>
      <g transform="translate(112.547704 266.598437)scale(0.1 -0.1)">
       <use xlink:href="#DejaVuSans-50"/>
       <use x="63.623047" xlink:href="#DejaVuSans-48"/>
      </g>
     </g>
    </g>
    <g id="xtick_2">
     <g id="line2d_2">
      <g>
       <use style="stroke:#000000;stroke-width:0.8;" x="187.236735" xlink:href="#mefc41f7c47" y="252"/>
      </g>
     </g>
     <g id="text_2">
      <!-- 40 -->
      <defs>
       <path d="M 37.796875 64.3125 
L 12.890625 25.390625 
L 37.796875 25.390625 
z
M 35.203125 72.90625 
L 47.609375 72.90625 
L 47.609375 25.390625 
L 58.015625 25.390625 
L 58.015625 17.1875 
L 47.609375 17.1875 
L 47.609375 0 
L 37.796875 0 
L 37.796875 17.1875 
L 4.890625 17.1875 
L 4.890625 26.703125 
z
" id="DejaVuSans-52"/>
      </defs>
      <g transform="translate(180.874235 266.598437)scale(0.1 -0.1)">
       <use xlink:href="#DejaVuSans-52"/>
       <use x="63.623047" xlink:href="#DejaVuSans-48"/>
      </g>
     </g>
    </g>
    <g id="xtick_3">
     <g id="line2d_3">
      <g>
       <use style="stroke:#000000;stroke-width:0.8;" x="255.563265" xlink:href="#mefc41f7c47" y="252"/>
      </g>
     </g>
     <g id="text_3">
      <!-- 60 -->
      <defs>
       <path d="M 33.015625 40.375 
Q 26.375 40.375 22.484375 35.828125 
Q 18.609375 31.296875 18.609375 23.390625 
Q 18.609375 15.53125 22.484375 10.953125 
Q 26.375 6.390625 33.015625 6.390625 
Q 39.65625 6.390625 43.53125 10.953125 
Q 47.40625 15.53125 47.40625 23.390625 
Q 47.40625 31.296875 43.53125 35.828125 
Q 39.65625 40.375 33.015625 40.375 
z
M 52.59375 71.296875 
L 52.59375 62.3125 
Q 48.875 64.0625 45.09375 64.984375 
Q 41.3125 65.921875 37.59375 65.921875 
Q 27.828125 65.921875 22.671875 59.328125 
Q 17.53125 52.734375 16.796875 39.40625 
Q 19.671875 43.65625 24.015625 45.921875 
Q 28.375 48.1875 33.59375 48.1875 
Q 44.578125 48.1875 50.953125 41.515625 
Q 57.328125 34.859375 57.328125 23.390625 
Q 57.328125 12.15625 50.6875 5.359375 
Q 44.046875 -1.421875 33.015625 -1.421875 
Q 20.359375 -1.421875 13.671875 8.265625 
Q 6.984375 17.96875 6.984375 36.375 
Q 6.984375 53.65625 15.1875 63.9375 
Q 23.390625 74.21875 37.203125 74.21875 
Q 40.921875 74.21875 44.703125 73.484375 
Q 48.484375 72.75 52.59375 71.296875 
z
" id="DejaVuSans-54"/>
      </defs>
      <g transform="translate(249.200765 266.598437)scale(0.1 -0.1)">
       <use xlink:href="#DejaVuSans-54"/>
       <use x="63.623047" xlink:href="#DejaVuSans-48"/>
      </g>
     </g>
    </g>
    <g id="xtick_4">
     <g id="line2d_4">
      <g>
       <use style="stroke:#000000;stroke-width:0.8;" x="323.889796" xlink:href="#mefc41f7c47" y="252"/>
      </g>
     </g>
     <g id="text_4">
      <!-- 80 -->
      <defs>
       <path d="M 31.78125 34.625 
Q 24.75 34.625 20.71875 30.859375 
Q 16.703125 27.09375 16.703125 20.515625 
Q 16.703125 13.921875 20.71875 10.15625 
Q 24.75 6.390625 31.78125 6.390625 
Q 38.8125 6.390625 42.859375 10.171875 
Q 46.921875 13.96875 46.921875 20.515625 
Q 46.921875 27.09375 42.890625 30.859375 
Q 38.875 34.625 31.78125 34.625 
z
M 21.921875 38.8125 
Q 15.578125 40.375 12.03125 44.71875 
Q 8.5 49.078125 8.5 55.328125 
Q 8.5 64.0625 14.71875 69.140625 
Q 20.953125 74.21875 31.78125 74.21875 
Q 42.671875 74.21875 48.875 69.140625 
Q 55.078125 64.0625 55.078125 55.328125 
Q 55.078125 49.078125 51.53125 44.71875 
Q 48 40.375 41.703125 38.8125 
Q 48.828125 37.15625 52.796875 32.3125 
Q 56.78125 27.484375 56.78125 20.515625 
Q 56.78125 9.90625 50.3125 4.234375 
Q 43.84375 -1.421875 31.78125 -1.421875 
Q 19.734375 -1.421875 13.25 4.234375 
Q 6.78125 9.90625 6.78125 20.515625 
Q 6.78125 27.484375 10.78125 32.3125 
Q 14.796875 37.15625 21.921875 38.8125 
z
M 18.3125 54.390625 
Q 18.3125 48.734375 21.84375 45.5625 
Q 25.390625 42.390625 31.78125 42.390625 
Q 38.140625 42.390625 41.71875 45.5625 
Q 45.3125 48.734375 45.3125 54.390625 
Q 45.3125 60.0625 41.71875 63.234375 
Q 38.140625 66.40625 31.78125 66.40625 
Q 25.390625 66.40625 21.84375 63.234375 
Q 18.3125 60.0625 18.3125 54.390625 
z
" id="DejaVuSans-56"/>
      </defs>
      <g transform="translate(317.527296 266.598437)scale(0.1 -0.1)">
       <use xlink:href="#DejaVuSans-56"/>
       <use x="63.623047" xlink:href="#DejaVuSans-48"/>
      </g>
     </g>
    </g>
    <g id="text_5">
     <!-- okno -->
     <defs>
      <path d="M 30.609375 48.390625 
Q 23.390625 48.390625 19.1875 42.75 
Q 14.984375 37.109375 14.984375 27.296875 
Q 14.984375 17.484375 19.15625 11.84375 
Q 23.34375 6.203125 30.609375 6.203125 
Q 37.796875 6.203125 41.984375 11.859375 
Q 46.1875 17.53125 46.1875 27.296875 
Q 46.1875 37.015625 41.984375 42.703125 
Q 37.796875 48.390625 30.609375 48.390625 
z
M 30.609375 56 
Q 42.328125 56 49.015625 48.375 
Q 55.71875 40.765625 55.71875 27.296875 
Q 55.71875 13.875 49.015625 6.21875 
Q 42.328125 -1.421875 30.609375 -1.421875 
Q 18.84375 -1.421875 12.171875 6.21875 
Q 5.515625 13.875 5.515625 27.296875 
Q 5.515625 40.765625 12.171875 48.375 
Q 18.84375 56 30.609375 56 
z
" id="DejaVuSans-111"/>
      <path d="M 9.078125 75.984375 
L 18.109375 75.984375 
L 18.109375 31.109375 
L 44.921875 54.6875 
L 56.390625 54.6875 
L 27.390625 29.109375 
L 57.625 0 
L 45.90625 0 
L 18.109375 26.703125 
L 18.109375 0 
L 9.078125 0 
z
" id="DejaVuSans-107"/>
      <path d="M 54.890625 33.015625 
L 54.890625 0 
L 45.90625 0 
L 45.90625 32.71875 
Q 45.90625 40.484375 42.875 44.328125 
Q 39.84375 48.1875 33.796875 48.1875 
Q 26.515625 48.1875 22.3125 43.546875 
Q 18.109375 38.921875 18.109375 30.90625 
L 18.109375 0 
L 9.078125 0 
L 9.078125 54.6875 
L 18.109375 54.6875 
L 18.109375 46.1875 
Q 21.34375 51.125 25.703125 53.5625 
Q 30.078125 56 35.796875 56 
Q 45.21875 56 50.046875 50.171875 
Q 54.890625 44.34375 54.890625 33.015625 
z
" id="DejaVuSans-110"/>
     </defs>
     <g transform="translate(209.217187 280.276563)scale(0.1 -0.1)">
      <use xlink:href="#DejaVuSans-111"/>
      <use x="61.181641" xlink:href="#DejaVuSans-107"/>
      <use x="119.091797" xlink:href="#DejaVuSans-110"/>
      <use x="182.470703" xlink:href="#DejaVuSans-111"/>
     </g>
    </g>
   </g>
   <g id="matplotlib.axis_2">
    <g id="ytick_1">
     <g id="line2d_5">
      <defs>
       <path d="M 0 0 
L -3.5 0 
" id="m9ec4170068" style="stroke:#000000;stroke-width:0.8;"/>
      </defs>
      <g>
       <use style="stroke:#000000;stroke-width:0.8;" x="54" xlink:href="#m9ec4170068" y="239.052584"/>
      </g>
     </g>
     <g id="text_6">
      <!-- 0.64 -->
      <defs>
       <path d="M 10.6875 12.40625 
L 21 12.40625 
L 21 0 
L 10.6875 0 
z
" id="DejaVuSans-46"/>
      </defs>
      <g transform="translate(24.734375 242.851802)scale(0.1 -0.1)">
       <use xlink:href="#DejaVuSans-48"/>
       <use x="63.623047" xlink:href="#DejaVuSans-46"/>
       <use x="95.410156" xlink:href="#DejaVuSans-54"/>
       <use x="159.033203" xlink:href="#DejaVuSans-52"/>
      </g>
     </g>
    </g>
    <g id="ytick_2">
     <g id="line2d_6">
      <g>
       <use style="stroke:#000000;stroke-width:0.8;" x="54" xlink:href="#m9ec4170068" y="208.865905"/>
      </g>
     </g>
     <g id="text_7">
      <!-- 0.66 -->
      <g transform="translate(24.734375 212.665124)scale(0.1 -0.1)">
       <use xlink:href="#DejaVuSans-48"/>
       <use x="63.623047" xlink:href="#DejaVuSans-46"/>
       <use x="95.410156" xlink:href="#DejaVuSans-54"/>
       <use x="159.033203" xlink:href="#DejaVuSans-54"/>
      </g>
     </g>
    </g>
    <g id="ytick_3">
     <g id="line2d_7">
      <g>
       <use style="stroke:#000000;stroke-width:0.8;" x="54" xlink:href="#m9ec4170068" y="178.679226"/>
      </g>
     </g>
     <g id="text_8">
      <!-- 0.68 -->
      <g transform="translate(24.734375 182.478445)scale(0.1 -0.1)">
       <use xlink:href="#DejaVuSans-48"/>
       <use x="63.623047" xlink:href="#DejaVuSans-46"/>
       <use x="95.410156" xlink:href="#DejaVuSans-54"/>
       <use x="159.033203" xlink:href="#DejaVuSans-56"/>
      </g>
     </g>
    </g>
    <g id="ytick_4">
     <g id="line2d_8">
      <g>
       <use style="stroke:#000000;stroke-width:0.8;" x="54" xlink:href="#m9ec4170068" y="148.492547"/>
      </g>
     </g>
     <g id="text_9">
      <!-- 0.70 -->
      <defs>
       <path d="M 8.203125 72.90625 
L 55.078125 72.90625 
L 55.078125 68.703125 
L 28.609375 0 
L 18.3125 0 
L 43.21875 64.59375 
L 8.203125 64.59375 
z
" id="DejaVuSans-55"/>
      </defs>
      <g transform="translate(24.734375 152.291766)scale(0.1 -0.1)">
       <use xlink:href="#DejaVuSans-48"/>
       <use x="63.623047" xlink:href="#DejaVuSans-46"/>
       <use x="95.410156" xlink:href="#DejaVuSans-55"/>
       <use x="159.033203" xlink:href="#DejaVuSans-48"/>
      </g>
     </g>
    </g>
    <g id="ytick_5">
     <g id="line2d_9">
      <g>
       <use style="stroke:#000000;stroke-width:0.8;" x="54" xlink:href="#m9ec4170068" y="118.305869"/>
      </g>
     </g>
     <g id="text_10">
      <!-- 0.72 -->
      <g transform="translate(24.734375 122.105087)scale(0.1 -0.1)">
       <use xlink:href="#DejaVuSans-48"/>
       <use x="63.623047" xlink:href="#DejaVuSans-46"/>
       <use x="95.410156" xlink:href="#DejaVuSans-55"/>
       <use x="159.033203" xlink:href="#DejaVuSans-50"/>
      </g>
     </g>
    </g>
    <g id="ytick_6">
     <g id="line2d_10">
      <g>
       <use style="stroke:#000000;stroke-width:0.8;" x="54" xlink:href="#m9ec4170068" y="88.11919"/>
      </g>
     </g>
     <g id="text_11">
      <!-- 0.74 -->
      <g transform="translate(24.734375 91.918409)scale(0.1 -0.1)">
       <use xlink:href="#DejaVuSans-48"/>
       <use x="63.623047" xlink:href="#DejaVuSans-46"/>
       <use x="95.410156" xlink:href="#DejaVuSans-55"/>
       <use x="159.033203" xlink:href="#DejaVuSans-52"/>
      </g>
     </g>
    </g>
    <g id="ytick_7">
     <g id="line2d_11">
      <g>
       <use style="stroke:#000000;stroke-width:0.8;" x="54" xlink:href="#m9ec4170068" y="57.932511"/>
      </g>
     </g>
     <g id="text_12">
      <!-- 0.76 -->
      <g transform="translate(24.734375 61.73173)scale(0.1 -0.1)">
       <use xlink:href="#DejaVuSans-48"/>
       <use x="63.623047" xlink:href="#DejaVuSans-46"/>
       <use x="95.410156" xlink:href="#DejaVuSans-55"/>
       <use x="159.033203" xlink:href="#DejaVuSans-54"/>
      </g>
     </g>
    </g>
   </g>
   <g id="line2d_12">
    <path clip-path="url(#p69e5f78509)" d="M 54 238.802945 
L 57.416327 242.116364 
L 60.832653 137.696891 
L 64.24898 132.604805 
L 67.665306 44.443636 
L 71.081633 56.389969 
L 74.497959 98.12913 
L 77.914286 97.415981 
L 81.330612 102.049603 
L 84.746939 103.475858 
L 88.163265 132.727132 
L 91.579592 131.518188 
L 94.995918 124.082843 
L 98.412245 125.631733 
L 101.828571 128.690196 
L 105.244898 127.898391 
L 108.661224 131.744179 
L 112.077551 132.051204 
L 115.493878 128.658071 
L 118.910204 129.293751 
L 122.326531 131.863792 
L 125.742857 131.197073 
L 129.159184 130.352172 
L 132.57551 130.968456 
L 135.991837 130.510015 
L 139.408163 130.319747 
L 142.82449 131.001066 
L 146.240816 130.979958 
L 149.657143 130.681479 
L 153.073469 130.83154 
L 156.489796 131.28394 
L 159.906122 131.211412 
L 163.322449 131.638733 
L 166.738776 131.523873 
L 170.155102 131.902591 
L 173.571429 131.922049 
L 176.987755 131.641806 
L 180.404082 131.599735 
L 183.820408 131.683044 
L 187.236735 131.658953 
L 190.653061 132.038369 
L 194.069388 131.911082 
L 197.485714 131.810831 
L 200.902041 131.861797 
L 204.318367 131.859746 
L 207.734694 131.779325 
L 211.15102 131.77339 
L 214.567347 131.680099 
L 217.983673 131.776699 
L 221.4 131.688993 
L 224.816327 131.75254 
L 228.232653 131.687657 
L 231.64898 131.420561 
L 235.065306 131.383146 
L 238.481633 131.183563 
L 241.897959 131.09215 
L 245.314286 130.343943 
L 248.730612 130.353481 
L 252.146939 130.017998 
L 255.563265 129.867718 
L 258.979592 129.741449 
L 262.395918 129.684902 
L 265.812245 129.899237 
L 269.228571 129.757232 
L 272.644898 129.704929 
L 276.061224 129.643646 
L 279.477551 129.665442 
L 282.893878 129.497434 
L 286.310204 129.452977 
L 289.726531 129.417233 
L 293.142857 129.343114 
L 296.559184 129.2533 
L 299.97551 129.216669 
L 303.391837 129.151276 
L 306.808163 129.18934 
L 310.22449 129.124414 
L 313.640816 128.937079 
L 317.057143 128.818621 
L 320.473469 129.185471 
L 323.889796 129.036875 
L 327.306122 128.4023 
L 330.722449 128.29061 
L 334.138776 128.59086 
L 337.555102 128.602744 
L 340.971429 128.593683 
L 344.387755 128.532556 
L 347.804082 127.488564 
L 351.220408 127.447382 
L 354.636735 128.013534 
L 358.053061 127.954754 
L 361.469388 128.060631 
L 364.885714 128.011392 
L 368.302041 127.862475 
L 371.718367 127.80429 
L 375.134694 126.816479 
L 378.55102 126.768813 
L 381.967347 126.734142 
L 385.383673 126.703693 
L 388.8 126.538308 
" style="fill:none;stroke:#1f77b4;stroke-dasharray:5.55,2.4;stroke-dashoffset:0;stroke-width:1.5;"/>
    <defs>
     <path d="M 0 1.5 
C 0.397805 1.5 0.77937 1.341951 1.06066 1.06066 
C 1.341951 0.77937 1.5 0.397805 1.5 0 
C 1.5 -0.397805 1.341951 -0.77937 1.06066 -1.06066 
C 0.77937 -1.341951 0.397805 -1.5 0 -1.5 
C -0.397805 -1.5 -0.77937 -1.341951 -1.06066 -1.06066 
C -1.341951 -0.77937 -1.5 -0.397805 -1.5 0 
C -1.5 0.397805 -1.341951 0.77937 -1.06066 1.06066 
C -0.77937 1.341951 -0.397805 1.5 0 1.5 
z
" id="mf403e8d5e6" style="stroke:#1f77b4;"/>
    </defs>
    <g clip-path="url(#p69e5f78509)">
     <use style="fill:#1f77b4;stroke:#1f77b4;" x="54" xlink:href="#mf403e8d5e6" y="238.802945"/>
     <use style="fill:#1f77b4;stroke:#1f77b4;" x="57.416327" xlink:href="#mf403e8d5e6" y="242.116364"/>
     <use style="fill:#1f77b4;stroke:#1f77b4;" x="60.832653" xlink:href="#mf403e8d5e6" y="137.696891"/>
     <use style="fill:#1f77b4;stroke:#1f77b4;" x="64.24898" xlink:href="#mf403e8d5e6" y="132.604805"/>
     <use style="fill:#1f77b4;stroke:#1f77b4;" x="67.665306" xlink:href="#mf403e8d5e6" y="44.443636"/>
     <use style="fill:#1f77b4;stroke:#1f77b4;" x="71.081633" xlink:href="#mf403e8d5e6" y="56.389969"/>
     <use style="fill:#1f77b4;stroke:#1f77b4;" x="74.497959" xlink:href="#mf403e8d5e6" y="98.12913"/>
     <use style="fill:#1f77b4;stroke:#1f77b4;" x="77.914286" xlink:href="#mf403e8d5e6" y="97.415981"/>
     <use style="fill:#1f77b4;stroke:#1f77b4;" x="81.330612" xlink:href="#mf403e8d5e6" y="102.049603"/>
     <use style="fill:#1f77b4;stroke:#1f77b4;" x="84.746939" xlink:href="#mf403e8d5e6" y="103.475858"/>
     <use style="fill:#1f77b4;stroke:#1f77b4;" x="88.163265" xlink:href="#mf403e8d5e6" y="132.727132"/>
     <use style="fill:#1f77b4;stroke:#1f77b4;" x="91.579592" xlink:href="#mf403e8d5e6" y="131.518188"/>
     <use style="fill:#1f77b4;stroke:#1f77b4;" x="94.995918" xlink:href="#mf403e8d5e6" y="124.082843"/>
     <use style="fill:#1f77b4;stroke:#1f77b4;" x="98.412245" xlink:href="#mf403e8d5e6" y="125.631733"/>
     <use style="fill:#1f77b4;stroke:#1f77b4;" x="101.828571" xlink:href="#mf403e8d5e6" y="128.690196"/>
     <use style="fill:#1f77b4;stroke:#1f77b4;" x="105.244898" xlink:href="#mf403e8d5e6" y="127.898391"/>
     <use style="fill:#1f77b4;stroke:#1f77b4;" x="108.661224" xlink:href="#mf403e8d5e6" y="131.744179"/>
     <use style="fill:#1f77b4;stroke:#1f77b4;" x="112.077551" xlink:href="#mf403e8d5e6" y="132.051204"/>
     <use style="fill:#1f77b4;stroke:#1f77b4;" x="115.493878" xlink:href="#mf403e8d5e6" y="128.658071"/>
     <use style="fill:#1f77b4;stroke:#1f77b4;" x="118.910204" xlink:href="#mf403e8d5e6" y="129.293751"/>
     <use style="fill:#1f77b4;stroke:#1f77b4;" x="122.326531" xlink:href="#mf403e8d5e6" y="131.863792"/>
     <use style="fill:#1f77b4;stroke:#1f77b4;" x="125.742857" xlink:href="#mf403e8d5e6" y="131.197073"/>
     <use style="fill:#1f77b4;stroke:#1f77b4;" x="129.159184" xlink:href="#mf403e8d5e6" y="130.352172"/>
     <use style="fill:#1f77b4;stroke:#1f77b4;" x="132.57551" xlink:href="#mf403e8d5e6" y="130.968456"/>
     <use style="fill:#1f77b4;stroke:#1f77b4;" x="135.991837" xlink:href="#mf403e8d5e6" y="130.510015"/>
     <use style="fill:#1f77b4;stroke:#1f77b4;" x="139.408163" xlink:href="#mf403e8d5e6" y="130.319747"/>
     <use style="fill:#1f77b4;stroke:#1f77b4;" x="142.82449" xlink:href="#mf403e8d5e6" y="131.001066"/>
     <use style="fill:#1f77b4;stroke:#1f77b4;" x="146.240816" xlink:href="#mf403e8d5e6" y="130.979958"/>
     <use style="fill:#1f77b4;stroke:#1f77b4;" x="149.657143" xlink:href="#mf403e8d5e6" y="130.681479"/>
     <use style="fill:#1f77b4;stroke:#1f77b4;" x="153.073469" xlink:href="#mf403e8d5e6" y="130.83154"/>
     <use style="fill:#1f77b4;stroke:#1f77b4;" x="156.489796" xlink:href="#mf403e8d5e6" y="131.28394"/>
     <use style="fill:#1f77b4;stroke:#1f77b4;" x="159.906122" xlink:href="#mf403e8d5e6" y="131.211412"/>
     <use style="fill:#1f77b4;stroke:#1f77b4;" x="163.322449" xlink:href="#mf403e8d5e6" y="131.638733"/>
     <use style="fill:#1f77b4;stroke:#1f77b4;" x="166.738776" xlink:href="#mf403e8d5e6" y="131.523873"/>
     <use style="fill:#1f77b4;stroke:#1f77b4;" x="170.155102" xlink:href="#mf403e8d5e6" y="131.902591"/>
     <use style="fill:#1f77b4;stroke:#1f77b4;" x="173.571429" xlink:href="#mf403e8d5e6" y="131.922049"/>
     <use style="fill:#1f77b4;stroke:#1f77b4;" x="176.987755" xlink:href="#mf403e8d5e6" y="131.641806"/>
     <use style="fill:#1f77b4;stroke:#1f77b4;" x="180.404082" xlink:href="#mf403e8d5e6" y="131.599735"/>
     <use style="fill:#1f77b4;stroke:#1f77b4;" x="183.820408" xlink:href="#mf403e8d5e6" y="131.683044"/>
     <use style="fill:#1f77b4;stroke:#1f77b4;" x="187.236735" xlink:href="#mf403e8d5e6" y="131.658953"/>
     <use style="fill:#1f77b4;stroke:#1f77b4;" x="190.653061" xlink:href="#mf403e8d5e6" y="132.038369"/>
     <use style="fill:#1f77b4;stroke:#1f77b4;" x="194.069388" xlink:href="#mf403e8d5e6" y="131.911082"/>
     <use style="fill:#1f77b4;stroke:#1f77b4;" x="197.485714" xlink:href="#mf403e8d5e6" y="131.810831"/>
     <use style="fill:#1f77b4;stroke:#1f77b4;" x="200.902041" xlink:href="#mf403e8d5e6" y="131.861797"/>
     <use style="fill:#1f77b4;stroke:#1f77b4;" x="204.318367" xlink:href="#mf403e8d5e6" y="131.859746"/>
     <use style="fill:#1f77b4;stroke:#1f77b4;" x="207.734694" xlink:href="#mf403e8d5e6" y="131.779325"/>
     <use style="fill:#1f77b4;stroke:#1f77b4;" x="211.15102" xlink:href="#mf403e8d5e6" y="131.77339"/>
     <use style="fill:#1f77b4;stroke:#1f77b4;" x="214.567347" xlink:href="#mf403e8d5e6" y="131.680099"/>
     <use style="fill:#1f77b4;stroke:#1f77b4;" x="217.983673" xlink:href="#mf403e8d5e6" y="131.776699"/>
     <use style="fill:#1f77b4;stroke:#1f77b4;" x="221.4" xlink:href="#mf403e8d5e6" y="131.688993"/>
     <use style="fill:#1f77b4;stroke:#1f77b4;" x="224.816327" xlink:href="#mf403e8d5e6" y="131.75254"/>
     <use style="fill:#1f77b4;stroke:#1f77b4;" x="228.232653" xlink:href="#mf403e8d5e6" y="131.687657"/>
     <use style="fill:#1f77b4;stroke:#1f77b4;" x="231.64898" xlink:href="#mf403e8d5e6" y="131.420561"/>
     <use style="fill:#1f77b4;stroke:#1f77b4;" x="235.065306" xlink:href="#mf403e8d5e6" y="131.383146"/>
     <use style="fill:#1f77b4;stroke:#1f77b4;" x="238.481633" xlink:href="#mf403e8d5e6" y="131.183563"/>
     <use style="fill:#1f77b4;stroke:#1f77b4;" x="241.897959" xlink:href="#mf403e8d5e6" y="131.09215"/>
     <use style="fill:#1f77b4;stroke:#1f77b4;" x="245.314286" xlink:href="#mf403e8d5e6" y="130.343943"/>
     <use style="fill:#1f77b4;stroke:#1f77b4;" x="248.730612" xlink:href="#mf403e8d5e6" y="130.353481"/>
     <use style="fill:#1f77b4;stroke:#1f77b4;" x="252.146939" xlink:href="#mf403e8d5e6" y="130.017998"/>
     <use style="fill:#1f77b4;stroke:#1f77b4;" x="255.563265" xlink:href="#mf403e8d5e6" y="129.867718"/>
     <use style="fill:#1f77b4;stroke:#1f77b4;" x="258.979592" xlink:href="#mf403e8d5e6" y="129.741449"/>
     <use style="fill:#1f77b4;stroke:#1f77b4;" x="262.395918" xlink:href="#mf403e8d5e6" y="129.684902"/>
     <use style="fill:#1f77b4;stroke:#1f77b4;" x="265.812245" xlink:href="#mf403e8d5e6" y="129.899237"/>
     <use style="fill:#1f77b4;stroke:#1f77b4;" x="269.228571" xlink:href="#mf403e8d5e6" y="129.757232"/>
     <use style="fill:#1f77b4;stroke:#1f77b4;" x="272.644898" xlink:href="#mf403e8d5e6" y="129.704929"/>
     <use style="fill:#1f77b4;stroke:#1f77b4;" x="276.061224" xlink:href="#mf403e8d5e6" y="129.643646"/>
     <use style="fill:#1f77b4;stroke:#1f77b4;" x="279.477551" xlink:href="#mf403e8d5e6" y="129.665442"/>
     <use style="fill:#1f77b4;stroke:#1f77b4;" x="282.893878" xlink:href="#mf403e8d5e6" y="129.497434"/>
     <use style="fill:#1f77b4;stroke:#1f77b4;" x="286.310204" xlink:href="#mf403e8d5e6" y="129.452977"/>
     <use style="fill:#1f77b4;stroke:#1f77b4;" x="289.726531" xlink:href="#mf403e8d5e6" y="129.417233"/>
     <use style="fill:#1f77b4;stroke:#1f77b4;" x="293.142857" xlink:href="#mf403e8d5e6" y="129.343114"/>
     <use style="fill:#1f77b4;stroke:#1f77b4;" x="296.559184" xlink:href="#mf403e8d5e6" y="129.2533"/>
     <use style="fill:#1f77b4;stroke:#1f77b4;" x="299.97551" xlink:href="#mf403e8d5e6" y="129.216669"/>
     <use style="fill:#1f77b4;stroke:#1f77b4;" x="303.391837" xlink:href="#mf403e8d5e6" y="129.151276"/>
     <use style="fill:#1f77b4;stroke:#1f77b4;" x="306.808163" xlink:href="#mf403e8d5e6" y="129.18934"/>
     <use style="fill:#1f77b4;stroke:#1f77b4;" x="310.22449" xlink:href="#mf403e8d5e6" y="129.124414"/>
     <use style="fill:#1f77b4;stroke:#1f77b4;" x="313.640816" xlink:href="#mf403e8d5e6" y="128.937079"/>
     <use style="fill:#1f77b4;stroke:#1f77b4;" x="317.057143" xlink:href="#mf403e8d5e6" y="128.818621"/>
     <use style="fill:#1f77b4;stroke:#1f77b4;" x="320.473469" xlink:href="#mf403e8d5e6" y="129.185471"/>
     <use style="fill:#1f77b4;stroke:#1f77b4;" x="323.889796" xlink:href="#mf403e8d5e6" y="129.036875"/>
     <use style="fill:#1f77b4;stroke:#1f77b4;" x="327.306122" xlink:href="#mf403e8d5e6" y="128.4023"/>
     <use style="fill:#1f77b4;stroke:#1f77b4;" x="330.722449" xlink:href="#mf403e8d5e6" y="128.29061"/>
     <use style="fill:#1f77b4;stroke:#1f77b4;" x="334.138776" xlink:href="#mf403e8d5e6" y="128.59086"/>
     <use style="fill:#1f77b4;stroke:#1f77b4;" x="337.555102" xlink:href="#mf403e8d5e6" y="128.602744"/>
     <use style="fill:#1f77b4;stroke:#1f77b4;" x="340.971429" xlink:href="#mf403e8d5e6" y="128.593683"/>
     <use style="fill:#1f77b4;stroke:#1f77b4;" x="344.387755" xlink:href="#mf403e8d5e6" y="128.532556"/>
     <use style="fill:#1f77b4;stroke:#1f77b4;" x="347.804082" xlink:href="#mf403e8d5e6" y="127.488564"/>
     <use style="fill:#1f77b4;stroke:#1f77b4;" x="351.220408" xlink:href="#mf403e8d5e6" y="127.447382"/>
     <use style="fill:#1f77b4;stroke:#1f77b4;" x="354.636735" xlink:href="#mf403e8d5e6" y="128.013534"/>
     <use style="fill:#1f77b4;stroke:#1f77b4;" x="358.053061" xlink:href="#mf403e8d5e6" y="127.954754"/>
     <use style="fill:#1f77b4;stroke:#1f77b4;" x="361.469388" xlink:href="#mf403e8d5e6" y="128.060631"/>
     <use style="fill:#1f77b4;stroke:#1f77b4;" x="364.885714" xlink:href="#mf403e8d5e6" y="128.011392"/>
     <use style="fill:#1f77b4;stroke:#1f77b4;" x="368.302041" xlink:href="#mf403e8d5e6" y="127.862475"/>
     <use style="fill:#1f77b4;stroke:#1f77b4;" x="371.718367" xlink:href="#mf403e8d5e6" y="127.80429"/>
     <use style="fill:#1f77b4;stroke:#1f77b4;" x="375.134694" xlink:href="#mf403e8d5e6" y="126.816479"/>
     <use style="fill:#1f77b4;stroke:#1f77b4;" x="378.55102" xlink:href="#mf403e8d5e6" y="126.768813"/>
     <use style="fill:#1f77b4;stroke:#1f77b4;" x="381.967347" xlink:href="#mf403e8d5e6" y="126.734142"/>
     <use style="fill:#1f77b4;stroke:#1f77b4;" x="385.383673" xlink:href="#mf403e8d5e6" y="126.703693"/>
     <use style="fill:#1f77b4;stroke:#1f77b4;" x="388.8" xlink:href="#mf403e8d5e6" y="126.538308"/>
    </g>
   </g>
   <g id="patch_3">
    <path d="M 54 252 
L 54 34.56 
" style="fill:none;stroke:#000000;stroke-linecap:square;stroke-linejoin:miter;stroke-width:0.8;"/>
   </g>
   <g id="patch_4">
    <path d="M 388.8 252 
L 388.8 34.56 
" style="fill:none;stroke:#000000;stroke-linecap:square;stroke-linejoin:miter;stroke-width:0.8;"/>
   </g>
   <g id="patch_5">
    <path d="M 54 252 
L 388.8 252 
" style="fill:none;stroke:#000000;stroke-linecap:square;stroke-linejoin:miter;stroke-width:0.8;"/>
   </g>
   <g id="patch_6">
    <path d="M 54 34.56 
L 388.8 34.56 
" style="fill:none;stroke:#000000;stroke-linecap:square;stroke-linejoin:miter;stroke-width:0.8;"/>
   </g>
   <g id="legend_1">
    <g id="patch_7">
     <path d="M 321.55625 57.238125 
L 381.8 57.238125 
Q 383.8 57.238125 383.8 55.238125 
L 383.8 41.56 
Q 383.8 39.56 381.8 39.56 
L 321.55625 39.56 
Q 319.55625 39.56 319.55625 41.56 
L 319.55625 55.238125 
Q 319.55625 57.238125 321.55625 57.238125 
z
" style="fill:#ffffff;opacity:0.8;stroke:#cccccc;stroke-linejoin:miter;"/>
    </g>
    <g id="line2d_13">
     <path d="M 323.55625 47.658437 
L 343.55625 47.658437 
" style="fill:none;stroke:#1f77b4;stroke-dasharray:5.55,2.4;stroke-dashoffset:0;stroke-width:1.5;"/>
    </g>
    <g id="line2d_14">
     <g>
      <use style="fill:#1f77b4;stroke:#1f77b4;" x="333.55625" xlink:href="#mf403e8d5e6" y="47.658437"/>
     </g>
    </g>
    <g id="text_13">
     <!-- RMSE -->
     <defs>
      <path d="M 44.390625 34.1875 
Q 47.5625 33.109375 50.5625 29.59375 
Q 53.5625 26.078125 56.59375 19.921875 
L 66.609375 0 
L 56 0 
L 46.6875 18.703125 
Q 43.0625 26.03125 39.671875 28.421875 
Q 36.28125 30.8125 30.421875 30.8125 
L 19.671875 30.8125 
L 19.671875 0 
L 9.8125 0 
L 9.8125 72.90625 
L 32.078125 72.90625 
Q 44.578125 72.90625 50.734375 67.671875 
Q 56.890625 62.453125 56.890625 51.90625 
Q 56.890625 45.015625 53.6875 40.46875 
Q 50.484375 35.9375 44.390625 34.1875 
z
M 19.671875 64.796875 
L 19.671875 38.921875 
L 32.078125 38.921875 
Q 39.203125 38.921875 42.84375 42.21875 
Q 46.484375 45.515625 46.484375 51.90625 
Q 46.484375 58.296875 42.84375 61.546875 
Q 39.203125 64.796875 32.078125 64.796875 
z
" id="DejaVuSans-82"/>
      <path d="M 9.8125 72.90625 
L 24.515625 72.90625 
L 43.109375 23.296875 
L 61.8125 72.90625 
L 76.515625 72.90625 
L 76.515625 0 
L 66.890625 0 
L 66.890625 64.015625 
L 48.09375 14.015625 
L 38.1875 14.015625 
L 19.390625 64.015625 
L 19.390625 0 
L 9.8125 0 
z
" id="DejaVuSans-77"/>
      <path d="M 53.515625 70.515625 
L 53.515625 60.890625 
Q 47.90625 63.578125 42.921875 64.890625 
Q 37.9375 66.21875 33.296875 66.21875 
Q 25.25 66.21875 20.875 63.09375 
Q 16.5 59.96875 16.5 54.203125 
Q 16.5 49.359375 19.40625 46.890625 
Q 22.3125 44.4375 30.421875 42.921875 
L 36.375 41.703125 
Q 47.40625 39.59375 52.65625 34.296875 
Q 57.90625 29 57.90625 20.125 
Q 57.90625 9.515625 50.796875 4.046875 
Q 43.703125 -1.421875 29.984375 -1.421875 
Q 24.8125 -1.421875 18.96875 -0.25 
Q 13.140625 0.921875 6.890625 3.21875 
L 6.890625 13.375 
Q 12.890625 10.015625 18.65625 8.296875 
Q 24.421875 6.59375 29.984375 6.59375 
Q 38.421875 6.59375 43.015625 9.90625 
Q 47.609375 13.234375 47.609375 19.390625 
Q 47.609375 24.75 44.3125 27.78125 
Q 41.015625 30.8125 33.5 32.328125 
L 27.484375 33.5 
Q 16.453125 35.6875 11.515625 40.375 
Q 6.59375 45.0625 6.59375 53.421875 
Q 6.59375 63.09375 13.40625 68.65625 
Q 20.21875 74.21875 32.171875 74.21875 
Q 37.3125 74.21875 42.625 73.28125 
Q 47.953125 72.359375 53.515625 70.515625 
z
" id="DejaVuSans-83"/>
      <path d="M 9.8125 72.90625 
L 55.90625 72.90625 
L 55.90625 64.59375 
L 19.671875 64.59375 
L 19.671875 43.015625 
L 54.390625 43.015625 
L 54.390625 34.71875 
L 19.671875 34.71875 
L 19.671875 8.296875 
L 56.78125 8.296875 
L 56.78125 0 
L 9.8125 0 
z
" id="DejaVuSans-69"/>
     </defs>
     <g transform="translate(351.55625 51.158437)scale(0.1 -0.1)">
      <use xlink:href="#DejaVuSans-82"/>
      <use x="69.482422" xlink:href="#DejaVuSans-77"/>
      <use x="155.761719" xlink:href="#DejaVuSans-83"/>
      <use x="219.238281" xlink:href="#DejaVuSans-69"/>
     </g>
    </g>
   </g>
  </g>
 </g>
 <defs>
  <clipPath id="p69e5f78509">
   <rect height="217.44" width="334.8" x="54" y="34.56"/>
  </clipPath>
 </defs>
</svg>
